*
*
G04 PADS VX.2.4 Build Number: 11282995 generated Gerber (RS-274-X) file*
G04 PC Version=2.1*
*
%IN "SE_13.pcb"*%
*
%MOIN*%
*
%FSLAX35Y35*%
*
*
*
*
G04 PC Standard Apertures*
*
*
G04 Thermal Relief Aperture macro.*
%AMTER*
1,1,$1,0,0*
1,0,$1-$2,0,0*
21,0,$3,$4,0,0,45*
21,0,$3,$4,0,0,135*
%
*
*
G04 Annular Aperture macro.*
%AMANN*
1,1,$1,0,0*
1,0,$2,0,0*
%
*
*
G04 Odd Aperture macro.*
%AMODD*
1,1,$1,0,0*
1,0,$1-0.005,0,0*
%
*
*
G04 PC Custom Aperture Macros*
*
*
*
*
*
*
G04 PC Aperture Table*
*
%ADD010C,0.001*%
%ADD011C,0.09843*%
%ADD014R,0.04724X0.06299*%
%ADD016R,0.06299X0.04724*%
%ADD017R,0.03937X0.03937*%
%ADD019R,0.0315X0.02992*%
%ADD024C,0.01*%
%ADD025C,0.012*%
%ADD026C,0.0041*%
%ADD027C,0.024*%
%ADD028C,0.004*%
%ADD049C,0.015*%
%ADD053C,0.02*%
%ADD055R,0.02992X0.0315*%
%ADD059R,0.01574X0.0588*%
%ADD060R,0.01575X0.0588*%
%ADD072C,0.03*%
%ADD082C,0.025*%
%ADD124R,0.05512X0.04724*%
%ADD127R,0.04724X0.05512*%
%ADD143R,0.05906X0.05906*%
%ADD144C,0.05906*%
%ADD145C,0.008*%
%ADD149O,0.01181X0.08268*%
%ADD150O,0.08268X0.01181*%
%ADD193R,0.02165X0.03937*%
%ADD194R,0.02165X0.03937*%
*
*
*
*
G04 PC Circuitry*
G04 Layer Name SE_13.pcb - circuitry*
%LPD*%
*
*
G04 PC Custom Flashes*
G04 Layer Name SE_13.pcb - flashes*
%LPD*%
*
*
G04 PC Circuitry*
G04 Layer Name SE_13.pcb - circuitry*
%LPD*%
*
G54D10*
G54D11*
G01X266100Y123100D03*
X286100D03*
G54D14*
X194744Y117600D03*
X206556D03*
X263206Y465750D03*
X251394D03*
X404556Y472350D03*
X392744D03*
G54D16*
X177000Y116094D03*
Y127906D03*
X185800Y116094D03*
Y127906D03*
X472350Y162294D03*
Y174106D03*
G54D17*
X123563Y366750D03*
X131437D03*
X153987Y415700D03*
X146113D03*
X147850Y436687D03*
Y428813D03*
X127500Y436687D03*
Y428813D03*
X169300Y118613D03*
Y126487D03*
X340350Y211187D03*
Y203313D03*
X359513Y340900D03*
X367387D03*
X373900Y141713D03*
Y149587D03*
X350250Y161137D03*
Y153263D03*
X225487Y352450D03*
X217613D03*
Y335950D03*
X225487D03*
X270037Y352450D03*
X262163D03*
X270037Y370050D03*
X262163D03*
X291487Y410750D03*
X283613D03*
X298550Y404787D03*
Y396913D03*
X367387Y357400D03*
X359513D03*
X413037Y360150D03*
X405163D03*
X413037Y376650D03*
X405163D03*
X433937Y418450D03*
X426063D03*
X439350Y410837D03*
Y402963D03*
X357400Y203313D03*
Y211187D03*
X366750Y153263D03*
Y161137D03*
X366287Y134650D03*
X358413D03*
X147387Y366750D03*
X139513D03*
X114763Y181400D03*
X122637D03*
G54D19*
X116500Y266342D03*
Y260358D03*
Y290542D03*
Y284558D03*
Y272458D03*
Y278442D03*
X146200Y359292D03*
Y353308D03*
X151700Y359292D03*
Y353308D03*
X158850Y222408D03*
Y228392D03*
X152800D03*
Y222408D03*
G54D24*
X155100Y265550D02*
X157750Y268200D01*
Y311200*
X160500Y313950*
Y324400*
X155100Y265550D02*
X148400D01*
X145650Y268300*
X142350*
X153900D02*
Y268850D01*
X151700Y271050*
Y284540*
X145390Y290850*
Y312108*
X154450Y281500D02*
Y285408D01*
X147358Y292500*
Y312108*
X153900Y298000D02*
X149327Y302573D01*
Y312108*
X127673D02*
Y313777D01*
X125850Y313950*
X129642Y312108D02*
Y315652D01*
X129642D02*
X130800Y318350D01*
X153350Y315600D02*
Y317423D01*
X154642*
X148950Y318900D02*
X149968Y319392D01*
X154642*
X166308Y321100D02*
Y332650D01*
X128600Y336500D02*
X127992Y337108D01*
X122358*
Y339077D02*
X123650D01*
Y340900*
X141250Y338150D02*
X141453Y339492D01*
Y344392*
X160500Y324400D02*
X159603Y325297D01*
X154642*
X166308Y338700D02*
Y346092D01*
X159092Y353308*
X151700*
X166308Y332650D02*
Y332729D01*
X159960Y339077*
X154642*
X179310Y338555D02*
X179165Y338700D01*
X172292*
X143450Y349700D02*
X142900Y350250D01*
X149327Y344392D02*
Y348050D01*
X151700Y350423*
Y353308*
X147358Y344392D02*
Y349642D01*
X146200Y350800*
Y353308*
X143421Y344392D02*
Y349671D01*
X143450Y349700*
X146200Y353308D02*
X146279D01*
Y355279*
X147300Y356300*
X165758*
X166308Y355750D02*
X165758Y356300D01*
X172292Y355750D02*
X172697Y356155D01*
X179310*
G54D25*
X120350Y275450D02*
X125144Y280244D01*
Y283964*
X125300Y275450D02*
X127703Y277853D01*
Y283964*
X130250Y275450D02*
X130262Y275462D01*
Y283964*
X134650Y275450D02*
X132820Y277280D01*
Y283964*
X139050Y275450D02*
X135374Y279126D01*
Y283964*
X144550Y275450D02*
X142900D01*
X137938Y280412*
Y283964*
X179310Y320955D02*
Y321100D01*
X172292*
X138500Y332100D02*
Y335950D01*
X147300Y366750D02*
X147387D01*
G54D26*
X282600Y410200D02*
X283150Y410750D01*
X283613*
X439350Y403050D02*
X439900Y403600D01*
G54D27*
X364000Y112100D03*
X366750Y107700D03*
X370600Y114850D03*
X376650D03*
X394800D03*
X382700D03*
X388750D03*
X400850D03*
X156650Y134650D03*
X162150Y137950D03*
X158850Y140150D03*
X317800Y133550D03*
X321100D03*
X354100Y139600D03*
X355200Y134100D03*
X363450Y126400D03*
X388200Y141250D03*
X391500Y128050D03*
X381600Y140150D03*
X111000Y160500D03*
Y155550D03*
Y150050D03*
Y145100D03*
X104400D03*
Y150050D03*
Y155550D03*
Y160500D03*
X156100Y157200D03*
Y152250D03*
X163250Y142350D03*
Y147300D03*
X168750Y157200D03*
Y152250D03*
Y147300D03*
X162700Y152250D03*
Y157200D03*
X357400Y143450D03*
X371150Y150600D03*
X379950Y149500D03*
X477850Y159400D03*
X474000D03*
X465200D03*
X469600D03*
X104400Y166000D03*
Y171500D03*
X111000Y166000D03*
Y171500D03*
X113200Y181400D03*
X124750Y180850D03*
X156100Y174250D03*
Y168750D03*
Y162700D03*
X168750D03*
X162700D03*
X168750Y174250D03*
Y168750D03*
X162700D03*
Y174250D03*
X350250Y162700D03*
X456950Y178650D03*
X465200Y171500D03*
Y176450D03*
X469050Y171500D03*
Y176450D03*
X472900Y171500D03*
Y176450D03*
X477300Y171500D03*
Y176450D03*
X477850Y163250D03*
X474000D03*
X469600D03*
X465200D03*
X123650Y181950D03*
X313950Y198450D03*
X350800Y195150D03*
X456950Y181950D03*
X155550Y219350D03*
X141250Y208900D03*
X159950Y211650D03*
X317250Y203950D03*
X320550D03*
X156100Y236950D03*
X171500Y240800D03*
X162150Y222650D03*
X185800Y240800D03*
X179200D03*
X116500Y261150D03*
X118700Y257300D03*
X116500Y254000D03*
X152800Y257300D03*
X166550D03*
X117050Y268300D03*
X120350Y275450D03*
X125300D03*
X130250D03*
X134650D03*
X130250Y265550D03*
X139050Y275450D03*
X144550D03*
X142350Y268300D03*
X153900D03*
X154450Y273250D03*
Y281500D03*
X161050Y267200D03*
X176450D03*
X167100Y272150D03*
X161050Y281500D03*
X176450D03*
X183050Y267200D03*
Y281500D03*
X117050Y291400D03*
X133000Y301300D03*
X122550Y291400D03*
X153900Y298000D03*
X155000Y289200D03*
X143450Y288650D03*
X140700Y291400D03*
X161050Y287550D03*
X175350Y285900D03*
X169850Y284250D03*
X183050Y298000D03*
X309000Y290300D03*
X316700D03*
X312850Y285900D03*
X119800Y315050D03*
X125850Y313950D03*
X130800Y318350D03*
X153350Y315600D03*
X148950Y318900D03*
X161600Y304600D03*
X180300Y310650D03*
X183050Y318350D03*
X222650Y318900D03*
X227600Y312300D03*
X222650Y315600D03*
X296900Y318900D03*
Y315600D03*
X371150Y315050D03*
X365650Y318900D03*
X436600D03*
X110450Y334300D03*
X131350Y328800D03*
X138500Y332100D03*
X123650Y340900D03*
X128600Y336500D03*
X145650Y335400D03*
X148400Y332100D03*
X141250Y326600D03*
X142900Y329900D03*
X147850Y338150D03*
X141250D03*
X173700Y332650D03*
X180300Y328250D03*
X183050Y335950D03*
X235300Y339250D03*
X365650Y322200D03*
X436600D03*
X114300Y346400D03*
X128600Y351350D03*
X130800Y359050D03*
X142900Y350250D03*
X140150Y353550D03*
X151700Y360700D03*
X146200D03*
X179750Y345850D03*
X183050Y353550D03*
X375550Y344200D03*
X104950Y374450D03*
X110450Y370600D03*
X116500D03*
X124750Y381600D03*
X131900Y371150D03*
X123650Y370600D03*
X143450Y381600D03*
X139600Y371150D03*
X146200Y370600D03*
X153350D03*
X160500Y371150D03*
X164900Y375550D03*
X117600Y392600D03*
X111000D03*
X105500Y389850D03*
X132450Y392600D03*
X124750D03*
X153350D03*
X146750D03*
X139050D03*
X164900Y388750D03*
X161050Y392600D03*
X292500Y392050D03*
X288650Y396450D03*
X298000D03*
X434950Y398100D03*
X183600Y417350D03*
X181400Y414050D03*
X183600Y410200D03*
X283150Y418450D03*
X282600Y410200D03*
X293050Y421750D03*
X315600Y421200D03*
Y414600D03*
Y408000D03*
X424500Y417900D03*
X431100Y404150D03*
X449250Y408550D03*
Y412950D03*
Y416800D03*
X439900Y403600D03*
X463000Y416250D03*
X287550Y428900D03*
X315600Y441000D03*
Y434400D03*
Y427800D03*
X302950Y432200D03*
X421200Y425600D03*
X434950Y428900D03*
X431100Y436050D03*
X446500Y439350D03*
X463000Y436050D03*
Y429450D03*
Y422850D03*
X178100Y442650D03*
X185800Y449250D03*
Y442650D03*
X243000Y448700D03*
X246300D03*
X388200Y454750D03*
X384900D03*
X463000Y449250D03*
Y442650D03*
X248500Y464650D03*
X253450D03*
X248500Y468500D03*
X253450D03*
X248500Y472900D03*
X253450D03*
X266100D03*
X261150D03*
X266100Y468500D03*
X261150D03*
Y464650D03*
X266100D03*
X395900Y468500D03*
X390950D03*
Y473450D03*
X395900D03*
Y478400D03*
X390950D03*
X401950Y470150D03*
X406350D03*
X401950Y474550D03*
X406350D03*
Y478950D03*
X401950D03*
G54D28*
X185600Y419150D02*
G75*
G03X185400Y419350I-200J0D01*
G01X152100*
G03X151900Y419150I0J-200*
G01Y408400*
G03X152100Y408200I200J0*
G01X185400*
G03X185600Y408400I0J200*
G01Y419150*
X197150Y145800D02*
G03X196950Y146000I-200J0D01*
G01X185100*
G03X184900Y145800I0J-200*
G01Y141574*
G03X184911Y141508I200J-0*
G01Y137232D02*
G03Y141508I-6171J2138D01*
G01Y137232D02*
G03X184900Y137167I189J-65D01*
G01Y135117*
X182583Y132800*
X167500*
G03X167300Y132600I0J-200*
G01Y124600*
G03X167500Y124400I200J0*
G01X196950*
G03X197150Y124600I0J200*
G01Y145800*
Y122150D02*
G03X196950Y122350I-200J0D01*
G01X167500*
G03X167300Y122150I0J-200*
G01Y113600*
G03X167500Y113400I200J0*
G01X196950*
G03X197150Y113600I0J200*
G01Y122150*
X125650Y250634D02*
G03X125634Y250713I-200J0D01*
G01X125453Y251597D02*
G03X125634Y250713I2250J0D01*
G01X125453Y251597D02*
Y255250D01*
G03X125253Y255450I-200J0*
G01X122400*
G03X122200Y255250I0J-200*
G01Y250500*
X102400*
G03X102200Y250300I0J-200*
G01Y240650*
G03X102400Y240450I200J0*
G01X125450*
G03X125650Y240650I0J200*
G01Y250634*
X122900Y262950D02*
G03X122700Y263150I-200J0D01*
G01X114700*
G03X114500Y262950I0J-200*
G01Y252750*
G03X114700Y252550I200J0*
G01X119950*
G03X120150Y252750I0J200*
G01Y257500*
X122700*
G03X122900Y257700I0J200*
G01Y262950*
X408350Y480200D02*
G03X408150Y480400I-200J0D01*
G01X400150*
G03X399950Y480200I0J-200*
G01Y467250*
G03X400150Y467050I200J0*
G01X405485*
G03X405627Y467109I0J200*
G01X408291Y469773*
G03X408350Y469915I-141J142*
G01Y480200*
X397900D02*
G03X397700Y480400I-200J0D01*
G01X389150*
G03X388950Y480200I0J-200*
G01Y467250*
G03X389150Y467050I200J0*
G01X397700*
G03X397900Y467250I0J200*
G01Y480200*
X256000Y475250D02*
G03X255800Y475450I-200J0D01*
G01X246700*
G03X246500Y475250I0J-200*
G01Y462300*
G03X246700Y462100I200J0*
G01X255800*
G03X256000Y462300I0J200*
G01Y475250*
X268100D02*
G03X267900Y475450I-200J0D01*
G01X259350*
G03X259150Y475250I0J-200*
G01Y462300*
G03X259350Y462100I200J0*
G01X267900*
G03X268100Y462300I0J200*
G01Y475250*
X479850Y178250D02*
G03X479650Y178450I-200J0D01*
G01X463400*
G03X463200Y178250I0J-200*
G01Y169700*
G03X463400Y169500I200J0*
G01X479650*
G03X479850Y169700I0J200*
G01Y178250*
Y165050D02*
G03X479650Y165250I-200J0D01*
G01X463400*
G03X463200Y165050I0J-200*
G01Y157600*
G03X463400Y157400I200J0*
G01X479650*
G03X479850Y157600I0J200*
G01Y165050*
X197150Y122150D02*
G03X196950Y122350I-200J0D01*
G01X120700*
Y178243*
G03X120528Y178441I-200J0*
G01X119668Y179432D02*
G03X120528Y178441I1001J-0D01*
G01X119668Y179432D02*
Y183369D01*
X120528Y184359D02*
G03X119668Y183369I141J-990D01*
G01X120528Y184359D02*
G03X120700Y184557I-28J198D01*
G01Y221922*
G03X120693Y221976I-200J-0*
G01X120600Y222650D02*
G03X120693Y221976I2500J-0D01*
G01X120600Y222650D02*
X120600D01*
X120693Y223324D02*
G03X120600Y222650I2407J-674D01*
G01X120693Y223324D02*
G03X120700Y223378I-193J54D01*
G01Y226872*
G03X120693Y226926I-200J-0*
G01X120600Y227600D02*
G03X120693Y226926I2500J-0D01*
G01X120600Y227600D02*
X120600D01*
X120693Y228274D02*
G03X120600Y227600I2407J-674D01*
G01X120693Y228274D02*
G03X120700Y228328I-193J54D01*
G01Y231822*
G03X120693Y231876I-200J-0*
G01X120600Y232550D02*
G03X120693Y231876I2500J-0D01*
G01X120600Y232550D02*
X120600D01*
X120693Y233224D02*
G03X120600Y232550I2407J-674D01*
G01X120693Y233224D02*
G03X120700Y233278I-193J54D01*
G01Y242600*
G03X120500Y242800I-200J0*
G01X102400*
G03X102200Y242600I0J-200*
G01Y111811*
G03X111811Y102200I9611J0*
G01X196950*
G03X197150Y102400I0J200*
G01Y122150*
X171850Y215650D02*
G03X171650Y215850I-200J0D01*
G01X118000*
G03X117800Y215650I0J-200*
G01Y120750*
G03X118000Y120550I200J0*
G01X165050*
G03X165250Y120750I0J200*
G01Y134850*
X171650*
G03X171850Y135050I0J200*
G01Y215650*
X279100Y231600D02*
G03X278900Y231800I-200J0D01*
G01X174100*
G03X173900Y231600I0J-200*
G01Y148250*
G03X174100Y148050I200J0*
G01X199200*
Y102400*
G03X199400Y102200I200J0*
G01X278900*
G03X279100Y102400I0J200*
G01Y231600*
X428300Y228021D02*
G03X428228Y228175I-200J0D01*
G01X423933Y231754*
G03X423805Y231800I-128J-154*
G01X267600*
G03X267400Y231600I0J-200*
G01Y206000*
G03X267600Y205800I200J0*
G01X316002*
G03X316106Y205829I-0J200*
G01X318394D02*
G03X316106I-1144J-1879D01*
G01X318394D02*
G03X318498Y205800I104J171D01*
G01X319302*
G03X319406Y205829I-0J200*
G01X321694D02*
G03X319406I-1144J-1879D01*
G01X321694D02*
G03X321798Y205800I104J171D01*
G01X328634*
G03X328776Y205859I0J200*
G01X340817Y217900*
X355279*
G03X355422Y217961I-0J200*
G01X359378D02*
G03X355422I-1978J-1911D01*
G01X359378D02*
G03X359521Y217900I143J139D01*
G01X368600*
Y169044*
G03X368624Y168949I200J-0*
G01X368950Y167650D02*
G03X368624Y168949I-2750J-0D01*
G01X368950Y167650D02*
Y164225D01*
G03X369078Y164039I200J0*
G01X369129Y164018D02*
G03X369078Y164039I-410J-913D01*
G01X369129Y164018D02*
G03X369211Y164000I82J182D01*
G01X428100*
G03X428300Y164200I-0J200*
G01Y228021*
X402850Y143600D02*
G03X402650Y143800I-200J0D01*
G01X366366*
G03X366224Y143741I-0J-200*
G01X362884Y140401*
G03X362825Y140259I141J-142*
G01Y129550*
G03X363025Y129350I200J0*
G01X366400*
Y117766*
G03X366459Y117624I200J-0*
G01X370774Y113309*
G03X370916Y113250I142J141*
G01X402650*
G03X402850Y113450I0J200*
G01Y143600*
X386350Y164500D02*
G03X386150Y164700I-200J0D01*
G01X383100*
G03X382900Y164500I0J-200*
G01Y142750*
G03X383100Y142550I200J0*
G01X386150*
G03X386350Y142750I0J200*
G01Y164500*
X464450Y451834D02*
G03X464391Y451976I-200J0D01*
G01X456376Y459991*
G03X456234Y460050I-142J-141*
G01X421050*
G03X420850Y459850I0J-200*
G01Y456085*
G03X420858Y456030I200J-0*
G01X421098Y454331D02*
G03X420858Y456030I-6137J-0D01*
G01X421098Y454331D02*
X421098D01*
X420858Y452632D02*
G03X421098Y454331I-5897J1699D01*
G01X420858Y452632D02*
G03X420850Y452576I192J-56D01*
G01Y429300*
G03X421050Y429100I200J0*
G01X429650*
Y408400*
G03X429850Y408200I200J0*
G01X446100*
G03X446300Y408400I0J200*
G01Y419200*
X455383*
X455498Y419085*
G03X455612Y419028I141J141*
G01X456891Y418391D02*
G03X455612Y419028I-1591J-1591D01*
G01X456891Y418391D02*
X460023Y415259D01*
G03X460165Y415200I142J141*
G01X463085*
G03X463227Y415259I0J200*
G01X464391Y416423*
G03X464450Y416565I-141J142*
G01Y451834*
X431450Y415850D02*
G03X431250Y416050I-200J0D01*
G01X429052*
G03X428882Y415955I-0J-200*
G01X428032Y415481D02*
G03X428882Y415955I-0J1001D01*
G01X428032Y415481D02*
X424095D01*
X423244Y415955D02*
G03X424095Y415481I851J527D01*
G01X423244Y415955D02*
G03X423074Y416050I-170J-105D01*
G01X416463*
X416463D02*
Y443447D01*
X416463D02*
G03X416404Y443588I-200J-0D01*
G01X407976Y452016*
G03X407834Y452075I-142J-141*
G01X393041*
G03X392899Y452016I-0J-200*
G01X386083Y445200*
X320950*
G03X320750Y445000I0J-200*
G01Y366050*
G03X320950Y365850I200J0*
G01X398250*
G03X398450Y366050I0J200*
G01Y380150*
X409300*
Y373750*
G03X409500Y373550I200J0*
G01X420800*
G03X421000Y373750I0J200*
G01Y397633*
X424458Y401091*
G03X424516Y401232I-142J141*
G01X424516*
G03X424493Y401326I-200J-0*
G01X424200Y402500D02*
G03X424493Y401326I2500J0D01*
G01X427874Y404707D02*
G03X424200Y402500I-1174J-2207D01*
G01X427874Y404707D02*
G03X428109Y404742I94J177D01*
G01X428524Y405157*
G03X428567Y405220I-141J141*
G01X430030Y406683D02*
G03X428567Y405220I1070J-2533D01*
G01X430030Y406683D02*
G03X430093Y406726I-78J184D01*
G01X431391Y408024*
G03X431450Y408166I-141J142*
G01Y415850*
X317600Y445000D02*
G03X317400Y445200I-200J0D01*
G01X285200*
G03X285000Y445000I0J-200*
G01Y421050*
G03X285200Y420850I200J0*
G01X287200*
Y401800*
G03X287400Y401600I200J0*
G01X317400*
G03X317600Y401800I0J200*
G01Y445000*
X289825Y407050D02*
G03X289625Y407250I-200J0D01*
G01X279650*
Y445000*
G03X279450Y445200I-200J0*
G01X259666*
G03X259524Y445141I-0J-200*
G01X240608Y426225*
X209066*
G03X208924Y426166I-0J-200*
G01X196646Y413888*
G03X196588Y413747I141J-141*
G01X196587D02*
Y366916D01*
X196587D02*
G03X196646Y366774I200J-0D01*
G01X202118Y361302*
G03X202259Y361244I141J142*
G01X254700*
G03X254900Y361444I0J200*
G01Y373000*
X259984*
G03X260019Y373003I0J200*
G01X260195Y373019D02*
G03X260019Y373003I-0J-1000D01*
G01X260195Y373019D02*
X264132D01*
X264307Y373003D02*
G03X264132Y373019I-176J-984D01*
G01X264307Y373003D02*
G03X264342Y373000I35J197D01*
G01X266300*
Y367150*
G03X266500Y366950I200J0*
G01X279450*
G03X279650Y367150I0J200*
G01Y392133*
X289766Y402249*
G03X289825Y402391I-141J142*
G01Y407050*
X430350Y311900D02*
G03X430150Y312100I-200J0D01*
G01X351150*
Y356556*
G03X351126Y356651I-200J0*
G01Y359249D02*
G03Y356651I2424J-1299D01*
G01Y359249D02*
G03X351150Y359344I-176J95D01*
G01Y366900*
G03X350950Y367100I-200J0*
G01X320950*
G03X320750Y366900I0J-200*
G01Y297900*
G03X320950Y297700I200J0*
G01X430150*
G03X430350Y297900I0J200*
G01Y311900*
X311000Y206850D02*
G03X310800Y207050I-200J0D01*
G01X278050*
G03X277850Y206850I0J-200*
G01Y130100*
G03X278050Y129900I200J0*
G01X292150*
Y116300*
X272000*
G03X271800Y116100I0J-200*
G01Y102400*
G03X272000Y102200I200J0*
G01X310800*
G03X311000Y102400I0J200*
G01Y206850*
X336850Y214000D02*
G03X336650Y214200I-200J0D01*
G01X322600*
G03X322400Y214000I0J-200*
G01Y205198*
G03X322429Y205094I200J0*
G01Y202806D02*
G03Y205094I-1879J1144D01*
G01Y202806D02*
G03X322400Y202702I171J-104D01*
G01Y158150*
G03X322600Y157950I200J0*
G01X336650*
G03X336850Y158150I0J200*
G01Y214000*
X149850Y430700D02*
G03X149650Y430900I-200J0D01*
G01X124050*
G03X123850Y430700I0J-200*
G01Y408400*
G03X124050Y408200I200J0*
G01X149650*
G03X149850Y408400I0J200*
G01Y430700*
X436400Y347100D02*
G03X436200Y347300I-200J0D01*
G01X374850*
G03X374650Y347100I0J-200*
G01Y346808*
G03X374902Y346615I200J-0*
G01X377318Y342432D02*
G03X374902Y346615I-1768J1768D01*
G01X377318Y342432D02*
X375668Y340782D01*
X373900Y340050D02*
G03X375668Y340782I-0J2500D01*
G01X373900Y340050D02*
X371550D01*
G03X371350Y339850I0J-200*
G01Y337950*
X369566*
G03X369531Y337947I-0J-200*
G01X369356Y337931D02*
G03X369531Y337947I-0J1001D01*
G01X369356Y337931D02*
X365419D01*
X365243Y337947D02*
G03X365419Y337931I176J985D01*
G01X365243Y337947D02*
G03X365208Y337950I-35J-197D01*
G01X361692*
G03X361657Y337947I-0J-200*
G01X361482Y337931D02*
G03X361657Y337947I-0J1001D01*
G01X361482Y337931D02*
X357545D01*
X357369Y337947D02*
G03X357545Y337931I176J985D01*
G01X357369Y337947D02*
G03X357334Y337950I-35J-197D01*
G01X348450*
G03X348250Y337750I0J-200*
G01Y308850*
G03X348450Y308650I200J0*
G01X363600*
G03X363800Y308850I0J200*
G01Y317652*
G03X363771Y317756I-200J-0*
G01Y320044D02*
G03Y317756I1879J-1144D01*
G01Y320044D02*
G03X363800Y320148I-171J104D01*
G01Y320952*
G03X363771Y321056I-200J-0*
G01X367650Y323117D02*
G03X363771Y321056I-2000J-917D01*
G01X367650Y323117D02*
G03X367832Y323000I182J83D01*
G01X434418*
G03X434600Y323117I0J200*
G01X436233Y324369D02*
G03X434600Y323117I367J-2169D01*
G01X436233Y324369D02*
G03X436400Y324566I-33J197D01*
G01Y347100*
X428700Y292050D02*
G03X428500Y292250I-200J-0D01*
G01X327556*
G03X327404Y291920I0J-200*
G01X328000Y290300D02*
G03X327404Y291920I-2500J0D01*
G01X328000Y290300D02*
Y257850D01*
X327398Y256223D02*
G03X328000Y257850I-1898J1627D01*
G01X327398Y256223D02*
G03X327350Y256093I152J-130D01*
G01Y247800*
G03X327550Y247600I200J0*
G01X428500*
G03X428700Y247800I0J200*
G01Y292050*
X318700Y281100D02*
G03X318500Y281300I-200J0D01*
G01X196650*
G03X196450Y281100I0J-200*
G01Y257150*
G03X196650Y256950I200J0*
G01X314884*
G03X315026Y257009I0J200*
G01X318641Y260624*
G03X318700Y260766I-141J142*
G01Y281100*
X329150Y309700D02*
G03X328950Y309900I-200J0D01*
G01X235700*
G03X235500Y309700I0J-200*
G01Y297900*
G03X235700Y297700I200J0*
G01X328950*
G03X329150Y297900I0J200*
G01Y309700*
X297250Y349575D02*
G03X297050Y349775I-200J0D01*
G01X291291*
G03X291149Y349716I-0J-200*
G01X278283Y336850*
X236507*
G03X236377Y336802I0J-200*
G01X234750Y336200D02*
G03X236377Y336802I-0J2500D01*
G01X234750Y336200D02*
X229650D01*
G03X229450Y336000I0J-200*
G01Y333000*
X227666*
G03X227631Y332997I-0J-200*
G01X227456Y332981D02*
G03X227631Y332997I-0J1001D01*
G01X227456Y332981D02*
X223519D01*
X223343Y332997D02*
G03X223519Y332981I176J985D01*
G01X223343Y332997D02*
G03X223308Y333000I-35J-197D01*
G01X219792*
G03X219757Y332997I-0J-200*
G01X219582Y332981D02*
G03X219757Y332997I-0J1001D01*
G01X219582Y332981D02*
X215645D01*
X215469Y332997D02*
G03X215645Y332981I176J985D01*
G01X215469Y332997D02*
G03X215434Y333000I-35J-197D01*
G01X200266*
G03X200124Y332941I-0J-200*
G01X197609Y330426*
G03X197550Y330284I141J-142*
G01Y317473*
G03X197660Y317294I200J-0*
G01X198144Y316944D02*
G03X197660Y317294I-1344J-1344D01*
G01X198144Y316944D02*
X217328Y297759D01*
G03X217470Y297700I142J141*
G01X240400*
G03X240600Y297900I0J200*
G01Y309700*
G03X240400Y309900I-200J0*
G01X220250*
Y319650*
X220446*
G03X220630Y319771I0J200*
G01X224650Y319817D02*
G03X220630Y319771I-2000J-917D01*
G01X224650Y319817D02*
G03X224832Y319700I182J83D01*
G01X294718*
G03X294900Y319817I0J200*
G01X297038Y321096D02*
G03X294900Y319817I-138J-2196D01*
G01X297038Y321096D02*
G03X297250Y321295I12J199D01*
G01Y349575*
X208150Y363050D02*
G03X207950Y363250I-200J0D01*
G01X201050*
G03X200850Y363050I0J-200*
G01Y330850*
G03X201050Y330650I200J0*
G01X207950*
G03X208150Y330850I0J200*
G01Y352156*
G03X208126Y352251I-200J0*
G01Y354849D02*
G03Y352251I2424J-1299D01*
G01Y354849D02*
G03X208150Y354944I-176J95D01*
G01Y363050*
X390750Y480200D02*
G03X390550Y480400I-200J0D01*
G01X328100*
G03X327900Y480200I0J-200*
G01Y462150*
G03X328100Y461950I200J0*
G01X360934*
G03X361076Y462009I0J200*
G01X366117Y467050*
X390550*
G03X390750Y467250I0J200*
G01Y480200*
X491501Y311900D02*
G03X491301Y312100I-200J0D01*
G01X427100*
G03X426900Y311900I0J-200*
G01Y297900*
G03X427100Y297700I200J0*
G01X430550*
X430962Y297655D02*
G03X430550Y297700I-412J-1855D01*
G01X430962Y297655D02*
G03X431006Y297650I44J195D01*
G01X459350*
Y169700*
G03X459550Y169500I200J0*
G01X491301*
G03X491501Y169700I-0J200*
G01Y311900*
X125357Y178735D02*
G03X125278Y178691I55J-192D01*
G01X124606Y178431D02*
G03X125278Y178691I-0J1001D01*
G01X124606Y178431D02*
X120669D01*
X119668Y179432D02*
G03X120669Y178431I1001J-0D01*
G01X119668Y179432D02*
Y183369D01*
X120669Y184369D02*
G03X119668Y183369I-0J-1000D01*
G01X120669Y184369D02*
X124606D01*
X125606Y183369D02*
G03X124606Y184369I-1000J-0D01*
G01X125606Y183369D02*
Y183005D01*
G03X125718Y182826I200J0*
G01X125357Y178735D02*
G03X125718Y182826I-607J2115D01*
G01X151900Y418999D02*
X185600D01*
X151900Y418639D02*
X185600D01*
X151900Y418279D02*
X185600D01*
X151900Y417919D02*
X185600D01*
X151900Y417559D02*
X185600D01*
X151900Y417199D02*
X185600D01*
X151900Y416839D02*
X185600D01*
X151900Y416479D02*
X185600D01*
X151900Y416119D02*
X185600D01*
X151900Y415759D02*
X185600D01*
X151900Y415399D02*
X185600D01*
X151900Y415039D02*
X185600D01*
X151900Y414679D02*
X185600D01*
X151900Y414319D02*
X185600D01*
X151900Y413959D02*
X185600D01*
X151900Y413599D02*
X185600D01*
X151900Y413239D02*
X185600D01*
X151900Y412879D02*
X185600D01*
X151900Y412519D02*
X185600D01*
X151900Y412159D02*
X185600D01*
X151900Y411799D02*
X185600D01*
X151900Y411439D02*
X185600D01*
X151900Y411079D02*
X185600D01*
X151900Y410719D02*
X185600D01*
X151900Y410359D02*
X185600D01*
X151900Y409999D02*
X185600D01*
X151900Y409639D02*
X185600D01*
X151900Y409279D02*
X185600D01*
X151900Y408919D02*
X185600D01*
X151900Y408559D02*
X185600D01*
X184900Y145639D02*
X197150D01*
X184900Y145279D02*
X197150D01*
X184900Y144919D02*
X197150D01*
X184900Y144559D02*
X197150D01*
X184900Y144199D02*
X197150D01*
X184900Y143839D02*
X197150D01*
X184900Y143479D02*
X197150D01*
X184900Y143119D02*
X197150D01*
X184900Y142759D02*
X197150D01*
X184900Y142399D02*
X197150D01*
X184900Y142039D02*
X197150D01*
X184900Y141679D02*
X197150D01*
X184973Y141319D02*
X197150D01*
X185075Y140959D02*
X197150D01*
X185154Y140599D02*
X197150D01*
X185213Y140239D02*
X197150D01*
X185251Y139879D02*
X197150D01*
X185269Y139519D02*
X197150D01*
X185267Y139159D02*
X197150D01*
X185246Y138799D02*
X197150D01*
X185204Y138439D02*
X197150D01*
X185142Y138079D02*
X197150D01*
X185059Y137719D02*
X197150D01*
X184953Y137359D02*
X197150D01*
X184900Y136999D02*
X197150D01*
X184900Y136639D02*
X197150D01*
X184900Y136279D02*
X197150D01*
X184900Y135919D02*
X197150D01*
X184900Y135559D02*
X197150D01*
X184900Y135199D02*
X197150D01*
X184622Y134839D02*
X197150D01*
X184262Y134479D02*
X197150D01*
X183902Y134119D02*
X197150D01*
X183542Y133759D02*
X197150D01*
X183182Y133399D02*
X197150D01*
X182822Y133039D02*
X197150D01*
X167316Y132679D02*
X197150D01*
X167300Y132319D02*
X197150D01*
X167300Y131959D02*
X197150D01*
X167300Y131599D02*
X197150D01*
X167300Y131239D02*
X197150D01*
X167300Y130879D02*
X197150D01*
X167300Y130519D02*
X197150D01*
X167300Y130159D02*
X197150D01*
X167300Y129799D02*
X197150D01*
X167300Y129439D02*
X197150D01*
X167300Y129079D02*
X197150D01*
X167300Y128719D02*
X197150D01*
X167300Y128359D02*
X197150D01*
X167300Y127999D02*
X197150D01*
X167300Y127639D02*
X197150D01*
X167300Y127279D02*
X197150D01*
X167300Y126919D02*
X197150D01*
X167300Y126559D02*
X197150D01*
X167300Y126199D02*
X197150D01*
X167300Y125839D02*
X197150D01*
X167300Y125479D02*
X197150D01*
X167300Y125119D02*
X197150D01*
X167300Y124759D02*
X197150D01*
X185077Y145999D02*
X196973D01*
X167300Y122039D02*
X197150D01*
X167300Y121679D02*
X197150D01*
X167300Y121319D02*
X197150D01*
X167300Y120959D02*
X197150D01*
X167300Y120599D02*
X197150D01*
X167300Y120239D02*
X197150D01*
X167300Y119879D02*
X197150D01*
X167300Y119519D02*
X197150D01*
X167300Y119159D02*
X197150D01*
X167300Y118799D02*
X197150D01*
X167300Y118439D02*
X197150D01*
X167300Y118079D02*
X197150D01*
X167300Y117719D02*
X197150D01*
X167300Y117359D02*
X197150D01*
X167300Y116999D02*
X197150D01*
X167300Y116639D02*
X197150D01*
X167300Y116279D02*
X197150D01*
X167300Y115919D02*
X197150D01*
X167300Y115559D02*
X197150D01*
X167300Y115199D02*
X197150D01*
X167300Y114839D02*
X197150D01*
X167300Y114479D02*
X197150D01*
X167300Y114119D02*
X197150D01*
X167300Y113759D02*
X197150D01*
X122200Y250529D02*
X125650D01*
X102200Y250169D02*
X125650D01*
X102200Y249809D02*
X125650D01*
X102200Y249449D02*
X125650D01*
X102200Y249089D02*
X125650D01*
X102200Y248729D02*
X125650D01*
X102200Y248369D02*
X125650D01*
X102200Y248009D02*
X125650D01*
X102200Y247649D02*
X125650D01*
X102200Y247289D02*
X125650D01*
X102200Y246929D02*
X125650D01*
X102200Y246569D02*
X125650D01*
X102200Y246209D02*
X125650D01*
X102200Y245849D02*
X125650D01*
X102200Y245489D02*
X125650D01*
X102200Y245129D02*
X125650D01*
X102200Y244769D02*
X125650D01*
X102200Y244409D02*
X125650D01*
X102200Y244049D02*
X125650D01*
X102200Y243689D02*
X125650D01*
X102200Y243329D02*
X125650D01*
X102200Y242969D02*
X125650D01*
X102200Y242609D02*
X125650D01*
X102200Y242249D02*
X125650D01*
X102200Y241889D02*
X125650D01*
X102200Y241529D02*
X125650D01*
X102200Y241169D02*
X125650D01*
X102200Y240809D02*
X125650D01*
X122200Y250889D02*
X125567D01*
X122200Y251249D02*
X125480D01*
X122200Y255209D02*
X125453D01*
X122200Y254849D02*
X125453D01*
X122200Y254489D02*
X125453D01*
X122200Y254129D02*
X125453D01*
X122200Y253769D02*
X125453D01*
X122200Y253409D02*
X125453D01*
X122200Y253049D02*
X125453D01*
X122200Y252689D02*
X125453D01*
X122200Y252329D02*
X125453D01*
X122200Y251969D02*
X125453D01*
X122200Y251609D02*
X125453D01*
X114500Y262629D02*
X122900D01*
X114500Y262269D02*
X122900D01*
X114500Y261909D02*
X122900D01*
X114500Y261549D02*
X122900D01*
X114500Y261189D02*
X122900D01*
X114500Y260829D02*
X122900D01*
X114500Y260469D02*
X122900D01*
X114500Y260109D02*
X122900D01*
X114500Y259749D02*
X122900D01*
X114500Y259389D02*
X122900D01*
X114500Y259029D02*
X122900D01*
X114500Y258669D02*
X122900D01*
X114500Y258309D02*
X122900D01*
X114500Y257949D02*
X122900D01*
X114504Y262989D02*
X122896D01*
X114500Y257589D02*
X122866D01*
X114500Y257229D02*
X120150D01*
X114500Y256869D02*
X120150D01*
X114500Y256509D02*
X120150D01*
X114500Y256149D02*
X120150D01*
X114500Y255789D02*
X120150D01*
X114500Y255429D02*
X120150D01*
X114500Y255069D02*
X120150D01*
X114500Y254709D02*
X120150D01*
X114500Y254349D02*
X120150D01*
X114500Y253989D02*
X120150D01*
X114500Y253629D02*
X120150D01*
X114500Y253269D02*
X120150D01*
X114500Y252909D02*
X120150D01*
X399950Y480009D02*
X408350D01*
X399950Y479649D02*
X408350D01*
X399950Y479289D02*
X408350D01*
X399950Y478929D02*
X408350D01*
X399950Y478569D02*
X408350D01*
X399950Y478209D02*
X408350D01*
X399950Y477849D02*
X408350D01*
X399950Y477489D02*
X408350D01*
X399950Y477129D02*
X408350D01*
X399950Y476769D02*
X408350D01*
X399950Y476409D02*
X408350D01*
X399950Y476049D02*
X408350D01*
X399950Y475689D02*
X408350D01*
X399950Y475329D02*
X408350D01*
X399950Y474969D02*
X408350D01*
X399950Y474609D02*
X408350D01*
X399950Y474249D02*
X408350D01*
X399950Y473889D02*
X408350D01*
X399950Y473529D02*
X408350D01*
X399950Y473169D02*
X408350D01*
X399950Y472809D02*
X408350D01*
X399950Y472449D02*
X408350D01*
X399950Y472089D02*
X408350D01*
X399950Y471729D02*
X408350D01*
X399950Y471369D02*
X408350D01*
X399950Y471009D02*
X408350D01*
X399950Y470649D02*
X408350D01*
X399950Y470289D02*
X408350D01*
X399950Y469929D02*
X408350D01*
X400043Y480369D02*
X408257D01*
X399950Y469569D02*
X408087D01*
X399950Y469209D02*
X407727D01*
X399950Y468849D02*
X407367D01*
X399950Y468489D02*
X407007D01*
X399950Y468129D02*
X406647D01*
X399950Y467769D02*
X406287D01*
X399950Y467409D02*
X405927D01*
X388950Y480009D02*
X397900D01*
X388950Y479649D02*
X397900D01*
X388950Y479289D02*
X397900D01*
X388950Y478929D02*
X397900D01*
X388950Y478569D02*
X397900D01*
X388950Y478209D02*
X397900D01*
X388950Y477849D02*
X397900D01*
X388950Y477489D02*
X397900D01*
X388950Y477129D02*
X397900D01*
X388950Y476769D02*
X397900D01*
X388950Y476409D02*
X397900D01*
X388950Y476049D02*
X397900D01*
X388950Y475689D02*
X397900D01*
X388950Y475329D02*
X397900D01*
X388950Y474969D02*
X397900D01*
X388950Y474609D02*
X397900D01*
X388950Y474249D02*
X397900D01*
X388950Y473889D02*
X397900D01*
X388950Y473529D02*
X397900D01*
X388950Y473169D02*
X397900D01*
X388950Y472809D02*
X397900D01*
X388950Y472449D02*
X397900D01*
X388950Y472089D02*
X397900D01*
X388950Y471729D02*
X397900D01*
X388950Y471369D02*
X397900D01*
X388950Y471009D02*
X397900D01*
X388950Y470649D02*
X397900D01*
X388950Y470289D02*
X397900D01*
X388950Y469929D02*
X397900D01*
X388950Y469569D02*
X397900D01*
X388950Y469209D02*
X397900D01*
X388950Y468849D02*
X397900D01*
X388950Y468489D02*
X397900D01*
X388950Y468129D02*
X397900D01*
X388950Y467769D02*
X397900D01*
X388950Y467409D02*
X397900D01*
X389043Y480369D02*
X397807D01*
X246500Y475059D02*
X256000D01*
X246500Y474699D02*
X256000D01*
X246500Y474339D02*
X256000D01*
X246500Y473979D02*
X256000D01*
X246500Y473619D02*
X256000D01*
X246500Y473259D02*
X256000D01*
X246500Y472899D02*
X256000D01*
X246500Y472539D02*
X256000D01*
X246500Y472179D02*
X256000D01*
X246500Y471819D02*
X256000D01*
X246500Y471459D02*
X256000D01*
X246500Y471099D02*
X256000D01*
X246500Y470739D02*
X256000D01*
X246500Y470379D02*
X256000D01*
X246500Y470019D02*
X256000D01*
X246500Y469659D02*
X256000D01*
X246500Y469299D02*
X256000D01*
X246500Y468939D02*
X256000D01*
X246500Y468579D02*
X256000D01*
X246500Y468219D02*
X256000D01*
X246500Y467859D02*
X256000D01*
X246500Y467499D02*
X256000D01*
X246500Y467139D02*
X256000D01*
X246500Y466779D02*
X256000D01*
X246500Y466419D02*
X256000D01*
X246500Y466059D02*
X256000D01*
X246500Y465699D02*
X256000D01*
X246500Y465339D02*
X256000D01*
X246500Y464979D02*
X256000D01*
X246500Y464619D02*
X256000D01*
X246500Y464259D02*
X256000D01*
X246500Y463899D02*
X256000D01*
X246500Y463539D02*
X256000D01*
X246500Y463179D02*
X256000D01*
X246500Y462819D02*
X256000D01*
X246500Y462459D02*
X256000D01*
X246593Y475419D02*
X255907D01*
X259150Y475059D02*
X268100D01*
X259150Y474699D02*
X268100D01*
X259150Y474339D02*
X268100D01*
X259150Y473979D02*
X268100D01*
X259150Y473619D02*
X268100D01*
X259150Y473259D02*
X268100D01*
X259150Y472899D02*
X268100D01*
X259150Y472539D02*
X268100D01*
X259150Y472179D02*
X268100D01*
X259150Y471819D02*
X268100D01*
X259150Y471459D02*
X268100D01*
X259150Y471099D02*
X268100D01*
X259150Y470739D02*
X268100D01*
X259150Y470379D02*
X268100D01*
X259150Y470019D02*
X268100D01*
X259150Y469659D02*
X268100D01*
X259150Y469299D02*
X268100D01*
X259150Y468939D02*
X268100D01*
X259150Y468579D02*
X268100D01*
X259150Y468219D02*
X268100D01*
X259150Y467859D02*
X268100D01*
X259150Y467499D02*
X268100D01*
X259150Y467139D02*
X268100D01*
X259150Y466779D02*
X268100D01*
X259150Y466419D02*
X268100D01*
X259150Y466059D02*
X268100D01*
X259150Y465699D02*
X268100D01*
X259150Y465339D02*
X268100D01*
X259150Y464979D02*
X268100D01*
X259150Y464619D02*
X268100D01*
X259150Y464259D02*
X268100D01*
X259150Y463899D02*
X268100D01*
X259150Y463539D02*
X268100D01*
X259150Y463179D02*
X268100D01*
X259150Y462819D02*
X268100D01*
X259150Y462459D02*
X268100D01*
X259243Y475419D02*
X268007D01*
X463200Y178139D02*
X479850D01*
X463200Y177779D02*
X479850D01*
X463200Y177419D02*
X479850D01*
X463200Y177059D02*
X479850D01*
X463200Y176699D02*
X479850D01*
X463200Y176339D02*
X479850D01*
X463200Y175979D02*
X479850D01*
X463200Y175619D02*
X479850D01*
X463200Y175259D02*
X479850D01*
X463200Y174899D02*
X479850D01*
X463200Y174539D02*
X479850D01*
X463200Y174179D02*
X479850D01*
X463200Y173819D02*
X479850D01*
X463200Y173459D02*
X479850D01*
X463200Y173099D02*
X479850D01*
X463200Y172739D02*
X479850D01*
X463200Y172379D02*
X479850D01*
X463200Y172019D02*
X479850D01*
X463200Y171659D02*
X479850D01*
X463200Y171299D02*
X479850D01*
X463200Y170939D02*
X479850D01*
X463200Y170579D02*
X479850D01*
X463200Y170219D02*
X479850D01*
X463200Y169859D02*
X479850D01*
X463200Y164959D02*
X479850D01*
X463200Y164599D02*
X479850D01*
X463200Y164239D02*
X479850D01*
X463200Y163879D02*
X479850D01*
X463200Y163519D02*
X479850D01*
X463200Y163159D02*
X479850D01*
X463200Y162799D02*
X479850D01*
X463200Y162439D02*
X479850D01*
X463200Y162079D02*
X479850D01*
X463200Y161719D02*
X479850D01*
X463200Y161359D02*
X479850D01*
X463200Y160999D02*
X479850D01*
X463200Y160639D02*
X479850D01*
X463200Y160279D02*
X479850D01*
X463200Y159919D02*
X479850D01*
X463200Y159559D02*
X479850D01*
X463200Y159199D02*
X479850D01*
X463200Y158839D02*
X479850D01*
X463200Y158479D02*
X479850D01*
X463200Y158119D02*
X479850D01*
X463200Y157759D02*
X479850D01*
X102200Y121999D02*
X197150D01*
X102200Y121639D02*
X197150D01*
X102200Y121279D02*
X197150D01*
X102200Y120919D02*
X197150D01*
X102200Y120559D02*
X197150D01*
X102200Y120199D02*
X197150D01*
X102200Y119839D02*
X197150D01*
X102200Y119479D02*
X197150D01*
X102200Y119119D02*
X197150D01*
X102200Y118759D02*
X197150D01*
X102200Y118399D02*
X197150D01*
X102200Y118039D02*
X197150D01*
X102200Y117679D02*
X197150D01*
X102200Y117319D02*
X197150D01*
X102200Y116959D02*
X197150D01*
X102200Y116599D02*
X197150D01*
X102200Y116239D02*
X197150D01*
X102200Y115879D02*
X197150D01*
X102200Y115519D02*
X197150D01*
X102200Y115159D02*
X197150D01*
X102200Y114799D02*
X197150D01*
X102200Y114439D02*
X197150D01*
X102200Y114079D02*
X197150D01*
X102200Y113719D02*
X197150D01*
X102200Y113359D02*
X197150D01*
X102200Y112999D02*
X197150D01*
X102200Y112639D02*
X197150D01*
X102200Y112279D02*
X197150D01*
X102200Y111919D02*
X197150D01*
X102203Y111559D02*
X197150D01*
X102220Y111199D02*
X197150D01*
X102249Y110839D02*
X197150D01*
X102293Y110479D02*
X197150D01*
X102350Y110119D02*
X197150D01*
X102422Y109759D02*
X197150D01*
X102508Y109399D02*
X197150D01*
X102609Y109039D02*
X197150D01*
X102725Y108679D02*
X197150D01*
X102857Y108319D02*
X197150D01*
X103006Y107959D02*
X197150D01*
X103172Y107599D02*
X197150D01*
X103357Y107239D02*
X197150D01*
X103562Y106879D02*
X197150D01*
X103788Y106519D02*
X197150D01*
X104038Y106159D02*
X197150D01*
X104313Y105799D02*
X197150D01*
X104616Y105439D02*
X197150D01*
X104952Y105079D02*
X197150D01*
X105325Y104719D02*
X197150D01*
X105742Y104359D02*
X197150D01*
X106213Y103999D02*
X197150D01*
X106753Y103639D02*
X197150D01*
X107387Y103279D02*
X197150D01*
X108164Y102919D02*
X197150D01*
X109210Y102559D02*
X197150D01*
X102200Y242599D02*
X120700D01*
X102200Y242239D02*
X120700D01*
X102200Y241879D02*
X120700D01*
X102200Y241519D02*
X120700D01*
X102200Y241159D02*
X120700D01*
X102200Y240799D02*
X120700D01*
X102200Y240439D02*
X120700D01*
X102200Y240079D02*
X120700D01*
X102200Y239719D02*
X120700D01*
X102200Y239359D02*
X120700D01*
X102200Y238999D02*
X120700D01*
X102200Y238639D02*
X120700D01*
X102200Y238279D02*
X120700D01*
X102200Y237919D02*
X120700D01*
X102200Y237559D02*
X120700D01*
X102200Y237199D02*
X120700D01*
X102200Y236839D02*
X120700D01*
X102200Y236479D02*
X120700D01*
X102200Y236119D02*
X120700D01*
X102200Y235759D02*
X120700D01*
X102200Y235399D02*
X120700D01*
X102200Y235039D02*
X120700D01*
X102200Y234679D02*
X120700D01*
X102200Y234319D02*
X120700D01*
X102200Y233959D02*
X120700D01*
X102200Y233599D02*
X120700D01*
X102200Y231799D02*
X120700D01*
X102200Y231439D02*
X120700D01*
X102200Y231079D02*
X120700D01*
X102200Y230719D02*
X120700D01*
X102200Y230359D02*
X120700D01*
X102200Y229999D02*
X120700D01*
X102200Y229639D02*
X120700D01*
X102200Y229279D02*
X120700D01*
X102200Y228919D02*
X120700D01*
X102200Y228559D02*
X120700D01*
X102200Y226759D02*
X120700D01*
X102200Y226399D02*
X120700D01*
X102200Y226039D02*
X120700D01*
X102200Y225679D02*
X120700D01*
X102200Y225319D02*
X120700D01*
X102200Y224959D02*
X120700D01*
X102200Y224599D02*
X120700D01*
X102200Y224239D02*
X120700D01*
X102200Y223879D02*
X120700D01*
X102200Y223519D02*
X120700D01*
X102200Y221719D02*
X120700D01*
X102200Y221359D02*
X120700D01*
X102200Y220999D02*
X120700D01*
X102200Y220639D02*
X120700D01*
X102200Y220279D02*
X120700D01*
X102200Y219919D02*
X120700D01*
X102200Y219559D02*
X120700D01*
X102200Y219199D02*
X120700D01*
X102200Y218839D02*
X120700D01*
X102200Y218479D02*
X120700D01*
X102200Y218119D02*
X120700D01*
X102200Y217759D02*
X120700D01*
X102200Y217399D02*
X120700D01*
X102200Y217039D02*
X120700D01*
X102200Y216679D02*
X120700D01*
X102200Y216319D02*
X120700D01*
X102200Y215959D02*
X120700D01*
X102200Y215599D02*
X120700D01*
X102200Y215239D02*
X120700D01*
X102200Y214879D02*
X120700D01*
X102200Y214519D02*
X120700D01*
X102200Y214159D02*
X120700D01*
X102200Y213799D02*
X120700D01*
X102200Y213439D02*
X120700D01*
X102200Y213079D02*
X120700D01*
X102200Y212719D02*
X120700D01*
X102200Y212359D02*
X120700D01*
X102200Y211999D02*
X120700D01*
X102200Y211639D02*
X120700D01*
X102200Y211279D02*
X120700D01*
X102200Y210919D02*
X120700D01*
X102200Y210559D02*
X120700D01*
X102200Y210199D02*
X120700D01*
X102200Y209839D02*
X120700D01*
X102200Y209479D02*
X120700D01*
X102200Y209119D02*
X120700D01*
X102200Y208759D02*
X120700D01*
X102200Y208399D02*
X120700D01*
X102200Y208039D02*
X120700D01*
X102200Y207679D02*
X120700D01*
X102200Y207319D02*
X120700D01*
X102200Y206959D02*
X120700D01*
X102200Y206599D02*
X120700D01*
X102200Y206239D02*
X120700D01*
X102200Y205879D02*
X120700D01*
X102200Y205519D02*
X120700D01*
X102200Y205159D02*
X120700D01*
X102200Y204799D02*
X120700D01*
X102200Y204439D02*
X120700D01*
X102200Y204079D02*
X120700D01*
X102200Y203719D02*
X120700D01*
X102200Y203359D02*
X120700D01*
X102200Y202999D02*
X120700D01*
X102200Y202639D02*
X120700D01*
X102200Y202279D02*
X120700D01*
X102200Y201919D02*
X120700D01*
X102200Y201559D02*
X120700D01*
X102200Y201199D02*
X120700D01*
X102200Y200839D02*
X120700D01*
X102200Y200479D02*
X120700D01*
X102200Y200119D02*
X120700D01*
X102200Y199759D02*
X120700D01*
X102200Y199399D02*
X120700D01*
X102200Y199039D02*
X120700D01*
X102200Y198679D02*
X120700D01*
X102200Y198319D02*
X120700D01*
X102200Y197959D02*
X120700D01*
X102200Y197599D02*
X120700D01*
X102200Y197239D02*
X120700D01*
X102200Y196879D02*
X120700D01*
X102200Y196519D02*
X120700D01*
X102200Y196159D02*
X120700D01*
X102200Y195799D02*
X120700D01*
X102200Y195439D02*
X120700D01*
X102200Y195079D02*
X120700D01*
X102200Y194719D02*
X120700D01*
X102200Y194359D02*
X120700D01*
X102200Y193999D02*
X120700D01*
X102200Y193639D02*
X120700D01*
X102200Y193279D02*
X120700D01*
X102200Y192919D02*
X120700D01*
X102200Y192559D02*
X120700D01*
X102200Y192199D02*
X120700D01*
X102200Y191839D02*
X120700D01*
X102200Y191479D02*
X120700D01*
X102200Y191119D02*
X120700D01*
X102200Y190759D02*
X120700D01*
X102200Y190399D02*
X120700D01*
X102200Y190039D02*
X120700D01*
X102200Y189679D02*
X120700D01*
X102200Y189319D02*
X120700D01*
X102200Y188959D02*
X120700D01*
X102200Y188599D02*
X120700D01*
X102200Y188239D02*
X120700D01*
X102200Y187879D02*
X120700D01*
X102200Y187519D02*
X120700D01*
X102200Y187159D02*
X120700D01*
X102200Y186799D02*
X120700D01*
X102200Y186439D02*
X120700D01*
X102200Y186079D02*
X120700D01*
X102200Y185719D02*
X120700D01*
X102200Y185359D02*
X120700D01*
X102200Y184999D02*
X120700D01*
X102200Y184639D02*
X120700D01*
X102200Y178159D02*
X120700D01*
X102200Y177799D02*
X120700D01*
X102200Y177439D02*
X120700D01*
X102200Y177079D02*
X120700D01*
X102200Y176719D02*
X120700D01*
X102200Y176359D02*
X120700D01*
X102200Y175999D02*
X120700D01*
X102200Y175639D02*
X120700D01*
X102200Y175279D02*
X120700D01*
X102200Y174919D02*
X120700D01*
X102200Y174559D02*
X120700D01*
X102200Y174199D02*
X120700D01*
X102200Y173839D02*
X120700D01*
X102200Y173479D02*
X120700D01*
X102200Y173119D02*
X120700D01*
X102200Y172759D02*
X120700D01*
X102200Y172399D02*
X120700D01*
X102200Y172039D02*
X120700D01*
X102200Y171679D02*
X120700D01*
X102200Y171319D02*
X120700D01*
X102200Y170959D02*
X120700D01*
X102200Y170599D02*
X120700D01*
X102200Y170239D02*
X120700D01*
X102200Y169879D02*
X120700D01*
X102200Y169519D02*
X120700D01*
X102200Y169159D02*
X120700D01*
X102200Y168799D02*
X120700D01*
X102200Y168439D02*
X120700D01*
X102200Y168079D02*
X120700D01*
X102200Y167719D02*
X120700D01*
X102200Y167359D02*
X120700D01*
X102200Y166999D02*
X120700D01*
X102200Y166639D02*
X120700D01*
X102200Y166279D02*
X120700D01*
X102200Y165919D02*
X120700D01*
X102200Y165559D02*
X120700D01*
X102200Y165199D02*
X120700D01*
X102200Y164839D02*
X120700D01*
X102200Y164479D02*
X120700D01*
X102200Y164119D02*
X120700D01*
X102200Y163759D02*
X120700D01*
X102200Y163399D02*
X120700D01*
X102200Y163039D02*
X120700D01*
X102200Y162679D02*
X120700D01*
X102200Y162319D02*
X120700D01*
X102200Y161959D02*
X120700D01*
X102200Y161599D02*
X120700D01*
X102200Y161239D02*
X120700D01*
X102200Y160879D02*
X120700D01*
X102200Y160519D02*
X120700D01*
X102200Y160159D02*
X120700D01*
X102200Y159799D02*
X120700D01*
X102200Y159439D02*
X120700D01*
X102200Y159079D02*
X120700D01*
X102200Y158719D02*
X120700D01*
X102200Y158359D02*
X120700D01*
X102200Y157999D02*
X120700D01*
X102200Y157639D02*
X120700D01*
X102200Y157279D02*
X120700D01*
X102200Y156919D02*
X120700D01*
X102200Y156559D02*
X120700D01*
X102200Y156199D02*
X120700D01*
X102200Y155839D02*
X120700D01*
X102200Y155479D02*
X120700D01*
X102200Y155119D02*
X120700D01*
X102200Y154759D02*
X120700D01*
X102200Y154399D02*
X120700D01*
X102200Y154039D02*
X120700D01*
X102200Y153679D02*
X120700D01*
X102200Y153319D02*
X120700D01*
X102200Y152959D02*
X120700D01*
X102200Y152599D02*
X120700D01*
X102200Y152239D02*
X120700D01*
X102200Y151879D02*
X120700D01*
X102200Y151519D02*
X120700D01*
X102200Y151159D02*
X120700D01*
X102200Y150799D02*
X120700D01*
X102200Y150439D02*
X120700D01*
X102200Y150079D02*
X120700D01*
X102200Y149719D02*
X120700D01*
X102200Y149359D02*
X120700D01*
X102200Y148999D02*
X120700D01*
X102200Y148639D02*
X120700D01*
X102200Y148279D02*
X120700D01*
X102200Y147919D02*
X120700D01*
X102200Y147559D02*
X120700D01*
X102200Y147199D02*
X120700D01*
X102200Y146839D02*
X120700D01*
X102200Y146479D02*
X120700D01*
X102200Y146119D02*
X120700D01*
X102200Y145759D02*
X120700D01*
X102200Y145399D02*
X120700D01*
X102200Y145039D02*
X120700D01*
X102200Y144679D02*
X120700D01*
X102200Y144319D02*
X120700D01*
X102200Y143959D02*
X120700D01*
X102200Y143599D02*
X120700D01*
X102200Y143239D02*
X120700D01*
X102200Y142879D02*
X120700D01*
X102200Y142519D02*
X120700D01*
X102200Y142159D02*
X120700D01*
X102200Y141799D02*
X120700D01*
X102200Y141439D02*
X120700D01*
X102200Y141079D02*
X120700D01*
X102200Y140719D02*
X120700D01*
X102200Y140359D02*
X120700D01*
X102200Y139999D02*
X120700D01*
X102200Y139639D02*
X120700D01*
X102200Y139279D02*
X120700D01*
X102200Y138919D02*
X120700D01*
X102200Y138559D02*
X120700D01*
X102200Y138199D02*
X120700D01*
X102200Y137839D02*
X120700D01*
X102200Y137479D02*
X120700D01*
X102200Y137119D02*
X120700D01*
X102200Y136759D02*
X120700D01*
X102200Y136399D02*
X120700D01*
X102200Y136039D02*
X120700D01*
X102200Y135679D02*
X120700D01*
X102200Y135319D02*
X120700D01*
X102200Y134959D02*
X120700D01*
X102200Y134599D02*
X120700D01*
X102200Y134239D02*
X120700D01*
X102200Y133879D02*
X120700D01*
X102200Y133519D02*
X120700D01*
X102200Y133159D02*
X120700D01*
X102200Y132799D02*
X120700D01*
X102200Y132439D02*
X120700D01*
X102200Y132079D02*
X120700D01*
X102200Y131719D02*
X120700D01*
X102200Y131359D02*
X120700D01*
X102200Y130999D02*
X120700D01*
X102200Y130639D02*
X120700D01*
X102200Y130279D02*
X120700D01*
X102200Y129919D02*
X120700D01*
X102200Y129559D02*
X120700D01*
X102200Y129199D02*
X120700D01*
X102200Y128839D02*
X120700D01*
X102200Y128479D02*
X120700D01*
X102200Y128119D02*
X120700D01*
X102200Y127759D02*
X120700D01*
X102200Y127399D02*
X120700D01*
X102200Y127039D02*
X120700D01*
X102200Y126679D02*
X120700D01*
X102200Y126319D02*
X120700D01*
X102200Y125959D02*
X120700D01*
X102200Y125599D02*
X120700D01*
X102200Y125239D02*
X120700D01*
X102200Y124879D02*
X120700D01*
X102200Y124519D02*
X120700D01*
X102200Y124159D02*
X120700D01*
X102200Y123799D02*
X120700D01*
X102200Y123439D02*
X120700D01*
X102200Y123079D02*
X120700D01*
X102200Y122719D02*
X120700D01*
X102200Y122359D02*
X120700D01*
X102200Y233239D02*
X120696D01*
X102200Y228199D02*
X120673D01*
X102200Y222079D02*
X120666D01*
X102200Y223159D02*
X120652D01*
X102200Y227119D02*
X120647D01*
X102200Y232159D02*
X120631D01*
X102200Y232879D02*
X120622D01*
X102200Y227839D02*
X120611D01*
X102200Y222439D02*
X120609D01*
X102200Y222799D02*
X120604D01*
X102200Y227479D02*
X120603D01*
X102200Y232519D02*
X120600D01*
X102200Y178519D02*
X120260D01*
X102200Y184279D02*
X120254D01*
X102200Y178879D02*
X119835D01*
X102200Y183919D02*
X119833D01*
X102200Y179239D02*
X119687D01*
X102200Y183559D02*
X119687D01*
X102200Y183199D02*
X119668D01*
X102200Y182839D02*
X119668D01*
X102200Y182479D02*
X119668D01*
X102200Y182119D02*
X119668D01*
X102200Y181759D02*
X119668D01*
X102200Y181399D02*
X119668D01*
X102200Y181039D02*
X119668D01*
X102200Y180679D02*
X119668D01*
X102200Y180319D02*
X119668D01*
X102200Y179959D02*
X119668D01*
X102200Y179599D02*
X119668D01*
X117800Y215589D02*
X171850D01*
X117800Y215229D02*
X171850D01*
X117800Y214869D02*
X171850D01*
X117800Y214509D02*
X171850D01*
X117800Y214149D02*
X171850D01*
X117800Y213789D02*
X171850D01*
X117800Y213429D02*
X171850D01*
X117800Y213069D02*
X171850D01*
X117800Y212709D02*
X171850D01*
X117800Y212349D02*
X171850D01*
X117800Y211989D02*
X171850D01*
X117800Y211629D02*
X171850D01*
X117800Y211269D02*
X171850D01*
X117800Y210909D02*
X171850D01*
X117800Y210549D02*
X171850D01*
X117800Y210189D02*
X171850D01*
X117800Y209829D02*
X171850D01*
X117800Y209469D02*
X171850D01*
X117800Y209109D02*
X171850D01*
X117800Y208749D02*
X171850D01*
X117800Y208389D02*
X171850D01*
X117800Y208029D02*
X171850D01*
X117800Y207669D02*
X171850D01*
X117800Y207309D02*
X171850D01*
X117800Y206949D02*
X171850D01*
X117800Y206589D02*
X171850D01*
X117800Y206229D02*
X171850D01*
X117800Y205869D02*
X171850D01*
X117800Y205509D02*
X171850D01*
X117800Y205149D02*
X171850D01*
X117800Y204789D02*
X171850D01*
X117800Y204429D02*
X171850D01*
X117800Y204069D02*
X171850D01*
X117800Y203709D02*
X171850D01*
X117800Y203349D02*
X171850D01*
X117800Y202989D02*
X171850D01*
X117800Y202629D02*
X171850D01*
X117800Y202269D02*
X171850D01*
X117800Y201909D02*
X171850D01*
X117800Y201549D02*
X171850D01*
X117800Y201189D02*
X171850D01*
X117800Y200829D02*
X171850D01*
X117800Y200469D02*
X171850D01*
X117800Y200109D02*
X171850D01*
X117800Y199749D02*
X171850D01*
X117800Y199389D02*
X171850D01*
X117800Y199029D02*
X171850D01*
X117800Y198669D02*
X171850D01*
X117800Y198309D02*
X171850D01*
X117800Y197949D02*
X171850D01*
X117800Y197589D02*
X171850D01*
X117800Y197229D02*
X171850D01*
X117800Y196869D02*
X171850D01*
X117800Y196509D02*
X171850D01*
X117800Y196149D02*
X171850D01*
X117800Y195789D02*
X171850D01*
X117800Y195429D02*
X171850D01*
X117800Y195069D02*
X171850D01*
X117800Y194709D02*
X171850D01*
X117800Y194349D02*
X171850D01*
X117800Y193989D02*
X171850D01*
X117800Y193629D02*
X171850D01*
X117800Y193269D02*
X171850D01*
X117800Y192909D02*
X171850D01*
X117800Y192549D02*
X171850D01*
X117800Y192189D02*
X171850D01*
X117800Y191829D02*
X171850D01*
X117800Y191469D02*
X171850D01*
X117800Y191109D02*
X171850D01*
X117800Y190749D02*
X171850D01*
X117800Y190389D02*
X171850D01*
X117800Y190029D02*
X171850D01*
X117800Y189669D02*
X171850D01*
X117800Y189309D02*
X171850D01*
X117800Y188949D02*
X171850D01*
X117800Y188589D02*
X171850D01*
X117800Y188229D02*
X171850D01*
X117800Y187869D02*
X171850D01*
X117800Y187509D02*
X171850D01*
X117800Y187149D02*
X171850D01*
X117800Y186789D02*
X171850D01*
X117800Y186429D02*
X171850D01*
X117800Y186069D02*
X171850D01*
X117800Y185709D02*
X171850D01*
X117800Y185349D02*
X171850D01*
X117800Y184989D02*
X171850D01*
X117800Y184629D02*
X171850D01*
X125041Y184269D02*
X171850D01*
X125447Y183909D02*
X171850D01*
X125589Y183549D02*
X171850D01*
X125606Y183189D02*
X171850D01*
X125712Y182829D02*
X171850D01*
X126240Y182469D02*
X171850D01*
X126554Y182109D02*
X171850D01*
X126758Y181749D02*
X171850D01*
X126883Y181389D02*
X171850D01*
X126943Y181029D02*
X171850D01*
X126943Y180669D02*
X171850D01*
X126882Y180309D02*
X171850D01*
X126757Y179949D02*
X171850D01*
X126553Y179589D02*
X171850D01*
X126237Y179229D02*
X171850D01*
X125706Y178869D02*
X171850D01*
X124991Y178509D02*
X171850D01*
X117800Y178149D02*
X171850D01*
X117800Y177789D02*
X171850D01*
X117800Y177429D02*
X171850D01*
X117800Y177069D02*
X171850D01*
X117800Y176709D02*
X171850D01*
X117800Y176349D02*
X171850D01*
X117800Y175989D02*
X171850D01*
X117800Y175629D02*
X171850D01*
X117800Y175269D02*
X171850D01*
X117800Y174909D02*
X171850D01*
X117800Y174549D02*
X171850D01*
X117800Y174189D02*
X171850D01*
X117800Y173829D02*
X171850D01*
X117800Y173469D02*
X171850D01*
X117800Y173109D02*
X171850D01*
X117800Y172749D02*
X171850D01*
X117800Y172389D02*
X171850D01*
X117800Y172029D02*
X171850D01*
X117800Y171669D02*
X171850D01*
X117800Y171309D02*
X171850D01*
X117800Y170949D02*
X171850D01*
X117800Y170589D02*
X171850D01*
X117800Y170229D02*
X171850D01*
X117800Y169869D02*
X171850D01*
X117800Y169509D02*
X171850D01*
X117800Y169149D02*
X171850D01*
X117800Y168789D02*
X171850D01*
X117800Y168429D02*
X171850D01*
X117800Y168069D02*
X171850D01*
X117800Y167709D02*
X171850D01*
X117800Y167349D02*
X171850D01*
X117800Y166989D02*
X171850D01*
X117800Y166629D02*
X171850D01*
X117800Y166269D02*
X171850D01*
X117800Y165909D02*
X171850D01*
X117800Y165549D02*
X171850D01*
X117800Y165189D02*
X171850D01*
X117800Y164829D02*
X171850D01*
X117800Y164469D02*
X171850D01*
X117800Y164109D02*
X171850D01*
X117800Y163749D02*
X171850D01*
X117800Y163389D02*
X171850D01*
X117800Y163029D02*
X171850D01*
X117800Y162669D02*
X171850D01*
X117800Y162309D02*
X171850D01*
X117800Y161949D02*
X171850D01*
X117800Y161589D02*
X171850D01*
X117800Y161229D02*
X171850D01*
X117800Y160869D02*
X171850D01*
X117800Y160509D02*
X171850D01*
X117800Y160149D02*
X171850D01*
X117800Y159789D02*
X171850D01*
X117800Y159429D02*
X171850D01*
X117800Y159069D02*
X171850D01*
X117800Y158709D02*
X171850D01*
X117800Y158349D02*
X171850D01*
X117800Y157989D02*
X171850D01*
X117800Y157629D02*
X171850D01*
X117800Y157269D02*
X171850D01*
X117800Y156909D02*
X171850D01*
X117800Y156549D02*
X171850D01*
X117800Y156189D02*
X171850D01*
X117800Y155829D02*
X171850D01*
X117800Y155469D02*
X171850D01*
X117800Y155109D02*
X171850D01*
X117800Y154749D02*
X171850D01*
X117800Y154389D02*
X171850D01*
X117800Y154029D02*
X171850D01*
X117800Y153669D02*
X171850D01*
X117800Y153309D02*
X171850D01*
X117800Y152949D02*
X171850D01*
X117800Y152589D02*
X171850D01*
X117800Y152229D02*
X171850D01*
X117800Y151869D02*
X171850D01*
X117800Y151509D02*
X171850D01*
X117800Y151149D02*
X171850D01*
X117800Y150789D02*
X171850D01*
X117800Y150429D02*
X171850D01*
X117800Y150069D02*
X171850D01*
X117800Y149709D02*
X171850D01*
X117800Y149349D02*
X171850D01*
X117800Y148989D02*
X171850D01*
X117800Y148629D02*
X171850D01*
X117800Y148269D02*
X171850D01*
X117800Y147909D02*
X171850D01*
X117800Y147549D02*
X171850D01*
X117800Y147189D02*
X171850D01*
X117800Y146829D02*
X171850D01*
X117800Y146469D02*
X171850D01*
X117800Y146109D02*
X171850D01*
X117800Y145749D02*
X171850D01*
X117800Y145389D02*
X171850D01*
X117800Y145029D02*
X171850D01*
X117800Y144669D02*
X171850D01*
X117800Y144309D02*
X171850D01*
X117800Y143949D02*
X171850D01*
X117800Y143589D02*
X171850D01*
X117800Y143229D02*
X171850D01*
X117800Y142869D02*
X171850D01*
X117800Y142509D02*
X171850D01*
X117800Y142149D02*
X171850D01*
X117800Y141789D02*
X171850D01*
X117800Y141429D02*
X171850D01*
X117800Y141069D02*
X171850D01*
X117800Y140709D02*
X171850D01*
X117800Y140349D02*
X171850D01*
X117800Y139989D02*
X171850D01*
X117800Y139629D02*
X171850D01*
X117800Y139269D02*
X171850D01*
X117800Y138909D02*
X171850D01*
X117800Y138549D02*
X171850D01*
X117800Y138189D02*
X171850D01*
X117800Y137829D02*
X171850D01*
X117800Y137469D02*
X171850D01*
X117800Y137109D02*
X171850D01*
X117800Y136749D02*
X171850D01*
X117800Y136389D02*
X171850D01*
X117800Y136029D02*
X171850D01*
X117800Y135669D02*
X171850D01*
X117800Y135309D02*
X171850D01*
X117800Y134949D02*
X171822D01*
X117800Y134589D02*
X165250D01*
X117800Y134229D02*
X165250D01*
X117800Y133869D02*
X165250D01*
X117800Y133509D02*
X165250D01*
X117800Y133149D02*
X165250D01*
X117800Y132789D02*
X165250D01*
X117800Y132429D02*
X165250D01*
X117800Y132069D02*
X165250D01*
X117800Y131709D02*
X165250D01*
X117800Y131349D02*
X165250D01*
X117800Y130989D02*
X165250D01*
X117800Y130629D02*
X165250D01*
X117800Y130269D02*
X165250D01*
X117800Y129909D02*
X165250D01*
X117800Y129549D02*
X165250D01*
X117800Y129189D02*
X165250D01*
X117800Y128829D02*
X165250D01*
X117800Y128469D02*
X165250D01*
X117800Y128109D02*
X165250D01*
X117800Y127749D02*
X165250D01*
X117800Y127389D02*
X165250D01*
X117800Y127029D02*
X165250D01*
X117800Y126669D02*
X165250D01*
X117800Y126309D02*
X165250D01*
X117800Y125949D02*
X165250D01*
X117800Y125589D02*
X165250D01*
X117800Y125229D02*
X165250D01*
X117800Y124869D02*
X165250D01*
X117800Y124509D02*
X165250D01*
X117800Y124149D02*
X165250D01*
X117800Y123789D02*
X165250D01*
X117800Y123429D02*
X165250D01*
X117800Y123069D02*
X165250D01*
X117800Y122709D02*
X165250D01*
X117800Y122349D02*
X165250D01*
X117800Y121989D02*
X165250D01*
X117800Y121629D02*
X165250D01*
X117800Y121269D02*
X165250D01*
X117800Y120909D02*
X165250D01*
X117800Y178509D02*
X120283D01*
X117800Y184269D02*
X120233D01*
X117800Y178869D02*
X119842D01*
X117800Y183909D02*
X119827D01*
X117800Y179229D02*
X119689D01*
X117800Y183549D02*
X119685D01*
X117800Y183189D02*
X119668D01*
X117800Y182829D02*
X119668D01*
X117800Y182469D02*
X119668D01*
X117800Y182109D02*
X119668D01*
X117800Y181749D02*
X119668D01*
X117800Y181389D02*
X119668D01*
X117800Y181029D02*
X119668D01*
X117800Y180669D02*
X119668D01*
X117800Y180309D02*
X119668D01*
X117800Y179949D02*
X119668D01*
X117800Y179589D02*
X119668D01*
X173900Y231439D02*
X279100D01*
X173900Y231079D02*
X279100D01*
X173900Y230719D02*
X279100D01*
X173900Y230359D02*
X279100D01*
X173900Y229999D02*
X279100D01*
X173900Y229639D02*
X279100D01*
X173900Y229279D02*
X279100D01*
X173900Y228919D02*
X279100D01*
X173900Y228559D02*
X279100D01*
X173900Y228199D02*
X279100D01*
X173900Y227839D02*
X279100D01*
X173900Y227479D02*
X279100D01*
X173900Y227119D02*
X279100D01*
X173900Y226759D02*
X279100D01*
X173900Y226399D02*
X279100D01*
X173900Y226039D02*
X279100D01*
X173900Y225679D02*
X279100D01*
X173900Y225319D02*
X279100D01*
X173900Y224959D02*
X279100D01*
X173900Y224599D02*
X279100D01*
X173900Y224239D02*
X279100D01*
X173900Y223879D02*
X279100D01*
X173900Y223519D02*
X279100D01*
X173900Y223159D02*
X279100D01*
X173900Y222799D02*
X279100D01*
X173900Y222439D02*
X279100D01*
X173900Y222079D02*
X279100D01*
X173900Y221719D02*
X279100D01*
X173900Y221359D02*
X279100D01*
X173900Y220999D02*
X279100D01*
X173900Y220639D02*
X279100D01*
X173900Y220279D02*
X279100D01*
X173900Y219919D02*
X279100D01*
X173900Y219559D02*
X279100D01*
X173900Y219199D02*
X279100D01*
X173900Y218839D02*
X279100D01*
X173900Y218479D02*
X279100D01*
X173900Y218119D02*
X279100D01*
X173900Y217759D02*
X279100D01*
X173900Y217399D02*
X279100D01*
X173900Y217039D02*
X279100D01*
X173900Y216679D02*
X279100D01*
X173900Y216319D02*
X279100D01*
X173900Y215959D02*
X279100D01*
X173900Y215599D02*
X279100D01*
X173900Y215239D02*
X279100D01*
X173900Y214879D02*
X279100D01*
X173900Y214519D02*
X279100D01*
X173900Y214159D02*
X279100D01*
X173900Y213799D02*
X279100D01*
X173900Y213439D02*
X279100D01*
X173900Y213079D02*
X279100D01*
X173900Y212719D02*
X279100D01*
X173900Y212359D02*
X279100D01*
X173900Y211999D02*
X279100D01*
X173900Y211639D02*
X279100D01*
X173900Y211279D02*
X279100D01*
X173900Y210919D02*
X279100D01*
X173900Y210559D02*
X279100D01*
X173900Y210199D02*
X279100D01*
X173900Y209839D02*
X279100D01*
X173900Y209479D02*
X279100D01*
X173900Y209119D02*
X279100D01*
X173900Y208759D02*
X279100D01*
X173900Y208399D02*
X279100D01*
X173900Y208039D02*
X279100D01*
X173900Y207679D02*
X279100D01*
X173900Y207319D02*
X279100D01*
X173900Y206959D02*
X279100D01*
X173900Y206599D02*
X279100D01*
X173900Y206239D02*
X279100D01*
X173900Y205879D02*
X279100D01*
X173900Y205519D02*
X279100D01*
X173900Y205159D02*
X279100D01*
X173900Y204799D02*
X279100D01*
X173900Y204439D02*
X279100D01*
X173900Y204079D02*
X279100D01*
X173900Y203719D02*
X279100D01*
X173900Y203359D02*
X279100D01*
X173900Y202999D02*
X279100D01*
X173900Y202639D02*
X279100D01*
X173900Y202279D02*
X279100D01*
X173900Y201919D02*
X279100D01*
X173900Y201559D02*
X279100D01*
X173900Y201199D02*
X279100D01*
X173900Y200839D02*
X279100D01*
X173900Y200479D02*
X279100D01*
X173900Y200119D02*
X279100D01*
X173900Y199759D02*
X279100D01*
X173900Y199399D02*
X279100D01*
X173900Y199039D02*
X279100D01*
X173900Y198679D02*
X279100D01*
X173900Y198319D02*
X279100D01*
X173900Y197959D02*
X279100D01*
X173900Y197599D02*
X279100D01*
X173900Y197239D02*
X279100D01*
X173900Y196879D02*
X279100D01*
X173900Y196519D02*
X279100D01*
X173900Y196159D02*
X279100D01*
X173900Y195799D02*
X279100D01*
X173900Y195439D02*
X279100D01*
X173900Y195079D02*
X279100D01*
X173900Y194719D02*
X279100D01*
X173900Y194359D02*
X279100D01*
X173900Y193999D02*
X279100D01*
X173900Y193639D02*
X279100D01*
X173900Y193279D02*
X279100D01*
X173900Y192919D02*
X279100D01*
X173900Y192559D02*
X279100D01*
X173900Y192199D02*
X279100D01*
X173900Y191839D02*
X279100D01*
X173900Y191479D02*
X279100D01*
X173900Y191119D02*
X279100D01*
X173900Y190759D02*
X279100D01*
X173900Y190399D02*
X279100D01*
X173900Y190039D02*
X279100D01*
X173900Y189679D02*
X279100D01*
X173900Y189319D02*
X279100D01*
X173900Y188959D02*
X279100D01*
X173900Y188599D02*
X279100D01*
X173900Y188239D02*
X279100D01*
X173900Y187879D02*
X279100D01*
X173900Y187519D02*
X279100D01*
X173900Y187159D02*
X279100D01*
X173900Y186799D02*
X279100D01*
X173900Y186439D02*
X279100D01*
X173900Y186079D02*
X279100D01*
X173900Y185719D02*
X279100D01*
X173900Y185359D02*
X279100D01*
X173900Y184999D02*
X279100D01*
X173900Y184639D02*
X279100D01*
X173900Y184279D02*
X279100D01*
X173900Y183919D02*
X279100D01*
X173900Y183559D02*
X279100D01*
X173900Y183199D02*
X279100D01*
X173900Y182839D02*
X279100D01*
X173900Y182479D02*
X279100D01*
X173900Y182119D02*
X279100D01*
X173900Y181759D02*
X279100D01*
X173900Y181399D02*
X279100D01*
X173900Y181039D02*
X279100D01*
X173900Y180679D02*
X279100D01*
X173900Y180319D02*
X279100D01*
X173900Y179959D02*
X279100D01*
X173900Y179599D02*
X279100D01*
X173900Y179239D02*
X279100D01*
X173900Y178879D02*
X279100D01*
X173900Y178519D02*
X279100D01*
X173900Y178159D02*
X279100D01*
X173900Y177799D02*
X279100D01*
X173900Y177439D02*
X279100D01*
X173900Y177079D02*
X279100D01*
X173900Y176719D02*
X279100D01*
X173900Y176359D02*
X279100D01*
X173900Y175999D02*
X279100D01*
X173900Y175639D02*
X279100D01*
X173900Y175279D02*
X279100D01*
X173900Y174919D02*
X279100D01*
X173900Y174559D02*
X279100D01*
X173900Y174199D02*
X279100D01*
X173900Y173839D02*
X279100D01*
X173900Y173479D02*
X279100D01*
X173900Y173119D02*
X279100D01*
X173900Y172759D02*
X279100D01*
X173900Y172399D02*
X279100D01*
X173900Y172039D02*
X279100D01*
X173900Y171679D02*
X279100D01*
X173900Y171319D02*
X279100D01*
X173900Y170959D02*
X279100D01*
X173900Y170599D02*
X279100D01*
X173900Y170239D02*
X279100D01*
X173900Y169879D02*
X279100D01*
X173900Y169519D02*
X279100D01*
X173900Y169159D02*
X279100D01*
X173900Y168799D02*
X279100D01*
X173900Y168439D02*
X279100D01*
X173900Y168079D02*
X279100D01*
X173900Y167719D02*
X279100D01*
X173900Y167359D02*
X279100D01*
X173900Y166999D02*
X279100D01*
X173900Y166639D02*
X279100D01*
X173900Y166279D02*
X279100D01*
X173900Y165919D02*
X279100D01*
X173900Y165559D02*
X279100D01*
X173900Y165199D02*
X279100D01*
X173900Y164839D02*
X279100D01*
X173900Y164479D02*
X279100D01*
X173900Y164119D02*
X279100D01*
X173900Y163759D02*
X279100D01*
X173900Y163399D02*
X279100D01*
X173900Y163039D02*
X279100D01*
X173900Y162679D02*
X279100D01*
X173900Y162319D02*
X279100D01*
X173900Y161959D02*
X279100D01*
X173900Y161599D02*
X279100D01*
X173900Y161239D02*
X279100D01*
X173900Y160879D02*
X279100D01*
X173900Y160519D02*
X279100D01*
X173900Y160159D02*
X279100D01*
X173900Y159799D02*
X279100D01*
X173900Y159439D02*
X279100D01*
X173900Y159079D02*
X279100D01*
X173900Y158719D02*
X279100D01*
X173900Y158359D02*
X279100D01*
X173900Y157999D02*
X279100D01*
X173900Y157639D02*
X279100D01*
X173900Y157279D02*
X279100D01*
X173900Y156919D02*
X279100D01*
X173900Y156559D02*
X279100D01*
X173900Y156199D02*
X279100D01*
X173900Y155839D02*
X279100D01*
X173900Y155479D02*
X279100D01*
X173900Y155119D02*
X279100D01*
X173900Y154759D02*
X279100D01*
X173900Y154399D02*
X279100D01*
X173900Y154039D02*
X279100D01*
X173900Y153679D02*
X279100D01*
X173900Y153319D02*
X279100D01*
X173900Y152959D02*
X279100D01*
X173900Y152599D02*
X279100D01*
X173900Y152239D02*
X279100D01*
X173900Y151879D02*
X279100D01*
X173900Y151519D02*
X279100D01*
X173900Y151159D02*
X279100D01*
X173900Y150799D02*
X279100D01*
X173900Y150439D02*
X279100D01*
X173900Y150079D02*
X279100D01*
X173900Y149719D02*
X279100D01*
X173900Y149359D02*
X279100D01*
X173900Y148999D02*
X279100D01*
X173900Y148639D02*
X279100D01*
X173900Y148279D02*
X279100D01*
X199200Y147919D02*
X279100D01*
X199200Y147559D02*
X279100D01*
X199200Y147199D02*
X279100D01*
X199200Y146839D02*
X279100D01*
X199200Y146479D02*
X279100D01*
X199200Y146119D02*
X279100D01*
X199200Y145759D02*
X279100D01*
X199200Y145399D02*
X279100D01*
X199200Y145039D02*
X279100D01*
X199200Y144679D02*
X279100D01*
X199200Y144319D02*
X279100D01*
X199200Y143959D02*
X279100D01*
X199200Y143599D02*
X279100D01*
X199200Y143239D02*
X279100D01*
X199200Y142879D02*
X279100D01*
X199200Y142519D02*
X279100D01*
X199200Y142159D02*
X279100D01*
X199200Y141799D02*
X279100D01*
X199200Y141439D02*
X279100D01*
X199200Y141079D02*
X279100D01*
X199200Y140719D02*
X279100D01*
X199200Y140359D02*
X279100D01*
X199200Y139999D02*
X279100D01*
X199200Y139639D02*
X279100D01*
X199200Y139279D02*
X279100D01*
X199200Y138919D02*
X279100D01*
X199200Y138559D02*
X279100D01*
X199200Y138199D02*
X279100D01*
X199200Y137839D02*
X279100D01*
X199200Y137479D02*
X279100D01*
X199200Y137119D02*
X279100D01*
X199200Y136759D02*
X279100D01*
X199200Y136399D02*
X279100D01*
X199200Y136039D02*
X279100D01*
X199200Y135679D02*
X279100D01*
X199200Y135319D02*
X279100D01*
X199200Y134959D02*
X279100D01*
X199200Y134599D02*
X279100D01*
X199200Y134239D02*
X279100D01*
X199200Y133879D02*
X279100D01*
X199200Y133519D02*
X279100D01*
X199200Y133159D02*
X279100D01*
X199200Y132799D02*
X279100D01*
X199200Y132439D02*
X279100D01*
X199200Y132079D02*
X279100D01*
X199200Y131719D02*
X279100D01*
X199200Y131359D02*
X279100D01*
X199200Y130999D02*
X279100D01*
X199200Y130639D02*
X279100D01*
X199200Y130279D02*
X279100D01*
X199200Y129919D02*
X279100D01*
X199200Y129559D02*
X279100D01*
X199200Y129199D02*
X279100D01*
X199200Y128839D02*
X279100D01*
X199200Y128479D02*
X279100D01*
X199200Y128119D02*
X279100D01*
X199200Y127759D02*
X279100D01*
X199200Y127399D02*
X279100D01*
X199200Y127039D02*
X279100D01*
X199200Y126679D02*
X279100D01*
X199200Y126319D02*
X279100D01*
X199200Y125959D02*
X279100D01*
X199200Y125599D02*
X279100D01*
X199200Y125239D02*
X279100D01*
X199200Y124879D02*
X279100D01*
X199200Y124519D02*
X279100D01*
X199200Y124159D02*
X279100D01*
X199200Y123799D02*
X279100D01*
X199200Y123439D02*
X279100D01*
X199200Y123079D02*
X279100D01*
X199200Y122719D02*
X279100D01*
X199200Y122359D02*
X279100D01*
X199200Y121999D02*
X279100D01*
X199200Y121639D02*
X279100D01*
X199200Y121279D02*
X279100D01*
X199200Y120919D02*
X279100D01*
X199200Y120559D02*
X279100D01*
X199200Y120199D02*
X279100D01*
X199200Y119839D02*
X279100D01*
X199200Y119479D02*
X279100D01*
X199200Y119119D02*
X279100D01*
X199200Y118759D02*
X279100D01*
X199200Y118399D02*
X279100D01*
X199200Y118039D02*
X279100D01*
X199200Y117679D02*
X279100D01*
X199200Y117319D02*
X279100D01*
X199200Y116959D02*
X279100D01*
X199200Y116599D02*
X279100D01*
X199200Y116239D02*
X279100D01*
X199200Y115879D02*
X279100D01*
X199200Y115519D02*
X279100D01*
X199200Y115159D02*
X279100D01*
X199200Y114799D02*
X279100D01*
X199200Y114439D02*
X279100D01*
X199200Y114079D02*
X279100D01*
X199200Y113719D02*
X279100D01*
X199200Y113359D02*
X279100D01*
X199200Y112999D02*
X279100D01*
X199200Y112639D02*
X279100D01*
X199200Y112279D02*
X279100D01*
X199200Y111919D02*
X279100D01*
X199200Y111559D02*
X279100D01*
X199200Y111199D02*
X279100D01*
X199200Y110839D02*
X279100D01*
X199200Y110479D02*
X279100D01*
X199200Y110119D02*
X279100D01*
X199200Y109759D02*
X279100D01*
X199200Y109399D02*
X279100D01*
X199200Y109039D02*
X279100D01*
X199200Y108679D02*
X279100D01*
X199200Y108319D02*
X279100D01*
X199200Y107959D02*
X279100D01*
X199200Y107599D02*
X279100D01*
X199200Y107239D02*
X279100D01*
X199200Y106879D02*
X279100D01*
X199200Y106519D02*
X279100D01*
X199200Y106159D02*
X279100D01*
X199200Y105799D02*
X279100D01*
X199200Y105439D02*
X279100D01*
X199200Y105079D02*
X279100D01*
X199200Y104719D02*
X279100D01*
X199200Y104359D02*
X279100D01*
X199200Y103999D02*
X279100D01*
X199200Y103639D02*
X279100D01*
X199200Y103279D02*
X279100D01*
X199200Y102919D02*
X279100D01*
X199200Y102559D02*
X279100D01*
X174077Y231799D02*
X278923D01*
X267400Y227719D02*
X428300D01*
X267400Y227359D02*
X428300D01*
X267400Y226999D02*
X428300D01*
X267400Y226639D02*
X428300D01*
X267400Y226279D02*
X428300D01*
X267400Y225919D02*
X428300D01*
X267400Y225559D02*
X428300D01*
X267400Y225199D02*
X428300D01*
X267400Y224839D02*
X428300D01*
X267400Y224479D02*
X428300D01*
X267400Y224119D02*
X428300D01*
X267400Y223759D02*
X428300D01*
X267400Y223399D02*
X428300D01*
X267400Y223039D02*
X428300D01*
X267400Y222679D02*
X428300D01*
X267400Y222319D02*
X428300D01*
X267400Y221959D02*
X428300D01*
X267400Y221599D02*
X428300D01*
X267400Y221239D02*
X428300D01*
X267400Y220879D02*
X428300D01*
X267400Y220519D02*
X428300D01*
X267400Y220159D02*
X428300D01*
X267400Y219799D02*
X428300D01*
X267400Y219439D02*
X428300D01*
X267400Y219079D02*
X428300D01*
X358064Y218719D02*
X428300D01*
X358894Y218359D02*
X428300D01*
X359340Y217999D02*
X428300D01*
X368600Y217639D02*
X428300D01*
X368600Y217279D02*
X428300D01*
X368600Y216919D02*
X428300D01*
X368600Y216559D02*
X428300D01*
X368600Y216199D02*
X428300D01*
X368600Y215839D02*
X428300D01*
X368600Y215479D02*
X428300D01*
X368600Y215119D02*
X428300D01*
X368600Y214759D02*
X428300D01*
X368600Y214399D02*
X428300D01*
X368600Y214039D02*
X428300D01*
X368600Y213679D02*
X428300D01*
X368600Y213319D02*
X428300D01*
X368600Y212959D02*
X428300D01*
X368600Y212599D02*
X428300D01*
X368600Y212239D02*
X428300D01*
X368600Y211879D02*
X428300D01*
X368600Y211519D02*
X428300D01*
X368600Y211159D02*
X428300D01*
X368600Y210799D02*
X428300D01*
X368600Y210439D02*
X428300D01*
X368600Y210079D02*
X428300D01*
X368600Y209719D02*
X428300D01*
X368600Y209359D02*
X428300D01*
X368600Y208999D02*
X428300D01*
X368600Y208639D02*
X428300D01*
X368600Y208279D02*
X428300D01*
X368600Y207919D02*
X428300D01*
X368600Y207559D02*
X428300D01*
X368600Y207199D02*
X428300D01*
X368600Y206839D02*
X428300D01*
X368600Y206479D02*
X428300D01*
X368600Y206119D02*
X428300D01*
X368600Y205759D02*
X428300D01*
X368600Y205399D02*
X428300D01*
X368600Y205039D02*
X428300D01*
X368600Y204679D02*
X428300D01*
X368600Y204319D02*
X428300D01*
X368600Y203959D02*
X428300D01*
X368600Y203599D02*
X428300D01*
X368600Y203239D02*
X428300D01*
X368600Y202879D02*
X428300D01*
X368600Y202519D02*
X428300D01*
X368600Y202159D02*
X428300D01*
X368600Y201799D02*
X428300D01*
X368600Y201439D02*
X428300D01*
X368600Y201079D02*
X428300D01*
X368600Y200719D02*
X428300D01*
X368600Y200359D02*
X428300D01*
X368600Y199999D02*
X428300D01*
X368600Y199639D02*
X428300D01*
X368600Y199279D02*
X428300D01*
X368600Y198919D02*
X428300D01*
X368600Y198559D02*
X428300D01*
X368600Y198199D02*
X428300D01*
X368600Y197839D02*
X428300D01*
X368600Y197479D02*
X428300D01*
X368600Y197119D02*
X428300D01*
X368600Y196759D02*
X428300D01*
X368600Y196399D02*
X428300D01*
X368600Y196039D02*
X428300D01*
X368600Y195679D02*
X428300D01*
X368600Y195319D02*
X428300D01*
X368600Y194959D02*
X428300D01*
X368600Y194599D02*
X428300D01*
X368600Y194239D02*
X428300D01*
X368600Y193879D02*
X428300D01*
X368600Y193519D02*
X428300D01*
X368600Y193159D02*
X428300D01*
X368600Y192799D02*
X428300D01*
X368600Y192439D02*
X428300D01*
X368600Y192079D02*
X428300D01*
X368600Y191719D02*
X428300D01*
X368600Y191359D02*
X428300D01*
X368600Y190999D02*
X428300D01*
X368600Y190639D02*
X428300D01*
X368600Y190279D02*
X428300D01*
X368600Y189919D02*
X428300D01*
X368600Y189559D02*
X428300D01*
X368600Y189199D02*
X428300D01*
X368600Y188839D02*
X428300D01*
X368600Y188479D02*
X428300D01*
X368600Y188119D02*
X428300D01*
X368600Y187759D02*
X428300D01*
X368600Y187399D02*
X428300D01*
X368600Y187039D02*
X428300D01*
X368600Y186679D02*
X428300D01*
X368600Y186319D02*
X428300D01*
X368600Y185959D02*
X428300D01*
X368600Y185599D02*
X428300D01*
X368600Y185239D02*
X428300D01*
X368600Y184879D02*
X428300D01*
X368600Y184519D02*
X428300D01*
X368600Y184159D02*
X428300D01*
X368600Y183799D02*
X428300D01*
X368600Y183439D02*
X428300D01*
X368600Y183079D02*
X428300D01*
X368600Y182719D02*
X428300D01*
X368600Y182359D02*
X428300D01*
X368600Y181999D02*
X428300D01*
X368600Y181639D02*
X428300D01*
X368600Y181279D02*
X428300D01*
X368600Y180919D02*
X428300D01*
X368600Y180559D02*
X428300D01*
X368600Y180199D02*
X428300D01*
X368600Y179839D02*
X428300D01*
X368600Y179479D02*
X428300D01*
X368600Y179119D02*
X428300D01*
X368600Y178759D02*
X428300D01*
X368600Y178399D02*
X428300D01*
X368600Y178039D02*
X428300D01*
X368600Y177679D02*
X428300D01*
X368600Y177319D02*
X428300D01*
X368600Y176959D02*
X428300D01*
X368600Y176599D02*
X428300D01*
X368600Y176239D02*
X428300D01*
X368600Y175879D02*
X428300D01*
X368600Y175519D02*
X428300D01*
X368600Y175159D02*
X428300D01*
X368600Y174799D02*
X428300D01*
X368600Y174439D02*
X428300D01*
X368600Y174079D02*
X428300D01*
X368600Y173719D02*
X428300D01*
X368600Y173359D02*
X428300D01*
X368600Y172999D02*
X428300D01*
X368600Y172639D02*
X428300D01*
X368600Y172279D02*
X428300D01*
X368600Y171919D02*
X428300D01*
X368600Y171559D02*
X428300D01*
X368600Y171199D02*
X428300D01*
X368600Y170839D02*
X428300D01*
X368600Y170479D02*
X428300D01*
X368600Y170119D02*
X428300D01*
X368600Y169759D02*
X428300D01*
X368600Y169399D02*
X428300D01*
X368600Y169039D02*
X428300D01*
X368750Y168679D02*
X428300D01*
X368867Y168319D02*
X428300D01*
X368933Y167959D02*
X428300D01*
X368950Y167599D02*
X428300D01*
X368950Y167239D02*
X428300D01*
X368950Y166879D02*
X428300D01*
X368950Y166519D02*
X428300D01*
X368950Y166159D02*
X428300D01*
X368950Y165799D02*
X428300D01*
X368950Y165439D02*
X428300D01*
X368950Y165079D02*
X428300D01*
X368950Y164719D02*
X428300D01*
X368950Y164359D02*
X428300D01*
X267400Y228079D02*
X428291D01*
X267400Y228439D02*
X427911D01*
X267400Y228799D02*
X427479D01*
X267400Y229159D02*
X427047D01*
X267400Y229519D02*
X426615D01*
X267400Y229879D02*
X426183D01*
X267400Y230239D02*
X425751D01*
X267400Y230599D02*
X425319D01*
X267400Y230959D02*
X424887D01*
X267400Y231319D02*
X424455D01*
X267416Y231679D02*
X424023D01*
X267400Y218719D02*
X356736D01*
X267400Y218359D02*
X355906D01*
X267400Y217999D02*
X355460D01*
X267400Y217639D02*
X340556D01*
X267400Y217279D02*
X340196D01*
X267400Y216919D02*
X339836D01*
X267400Y216559D02*
X339476D01*
X267400Y216199D02*
X339116D01*
X267400Y215839D02*
X338756D01*
X267400Y215479D02*
X338396D01*
X267400Y215119D02*
X338036D01*
X267400Y214759D02*
X337676D01*
X267400Y214399D02*
X337316D01*
X267400Y214039D02*
X336956D01*
X267400Y213679D02*
X336596D01*
X267400Y213319D02*
X336236D01*
X267400Y212959D02*
X335876D01*
X267400Y212599D02*
X335516D01*
X267400Y212239D02*
X335156D01*
X267400Y211879D02*
X334796D01*
X267400Y211519D02*
X334436D01*
X267400Y211159D02*
X334076D01*
X267400Y210799D02*
X333716D01*
X267400Y210439D02*
X333356D01*
X267400Y210079D02*
X332996D01*
X267400Y209719D02*
X332636D01*
X267400Y209359D02*
X332276D01*
X267400Y208999D02*
X331916D01*
X267400Y208639D02*
X331556D01*
X267400Y208279D02*
X331196D01*
X267400Y207919D02*
X330836D01*
X267400Y207559D02*
X330476D01*
X267400Y207199D02*
X330116D01*
X267400Y206839D02*
X329756D01*
X267400Y206479D02*
X329396D01*
X320920Y206119D02*
X329036D01*
X317620D02*
X320180D01*
X267400D02*
X316880D01*
X365972Y143489D02*
X402850D01*
X365612Y143129D02*
X402850D01*
X365252Y142769D02*
X402850D01*
X364892Y142409D02*
X402850D01*
X364532Y142049D02*
X402850D01*
X364172Y141689D02*
X402850D01*
X363812Y141329D02*
X402850D01*
X363452Y140969D02*
X402850D01*
X363092Y140609D02*
X402850D01*
X362825Y140249D02*
X402850D01*
X362825Y139889D02*
X402850D01*
X362825Y139529D02*
X402850D01*
X362825Y139169D02*
X402850D01*
X362825Y138809D02*
X402850D01*
X362825Y138449D02*
X402850D01*
X362825Y138089D02*
X402850D01*
X362825Y137729D02*
X402850D01*
X362825Y137369D02*
X402850D01*
X362825Y137009D02*
X402850D01*
X362825Y136649D02*
X402850D01*
X362825Y136289D02*
X402850D01*
X362825Y135929D02*
X402850D01*
X362825Y135569D02*
X402850D01*
X362825Y135209D02*
X402850D01*
X362825Y134849D02*
X402850D01*
X362825Y134489D02*
X402850D01*
X362825Y134129D02*
X402850D01*
X362825Y133769D02*
X402850D01*
X362825Y133409D02*
X402850D01*
X362825Y133049D02*
X402850D01*
X362825Y132689D02*
X402850D01*
X362825Y132329D02*
X402850D01*
X362825Y131969D02*
X402850D01*
X362825Y131609D02*
X402850D01*
X362825Y131249D02*
X402850D01*
X362825Y130889D02*
X402850D01*
X362825Y130529D02*
X402850D01*
X362825Y130169D02*
X402850D01*
X362825Y129809D02*
X402850D01*
X362853Y129449D02*
X402850D01*
X366400Y129089D02*
X402850D01*
X366400Y128729D02*
X402850D01*
X366400Y128369D02*
X402850D01*
X366400Y128009D02*
X402850D01*
X366400Y127649D02*
X402850D01*
X366400Y127289D02*
X402850D01*
X366400Y126929D02*
X402850D01*
X366400Y126569D02*
X402850D01*
X366400Y126209D02*
X402850D01*
X366400Y125849D02*
X402850D01*
X366400Y125489D02*
X402850D01*
X366400Y125129D02*
X402850D01*
X366400Y124769D02*
X402850D01*
X366400Y124409D02*
X402850D01*
X366400Y124049D02*
X402850D01*
X366400Y123689D02*
X402850D01*
X366400Y123329D02*
X402850D01*
X366400Y122969D02*
X402850D01*
X366400Y122609D02*
X402850D01*
X366400Y122249D02*
X402850D01*
X366400Y121889D02*
X402850D01*
X366400Y121529D02*
X402850D01*
X366400Y121169D02*
X402850D01*
X366400Y120809D02*
X402850D01*
X366400Y120449D02*
X402850D01*
X366400Y120089D02*
X402850D01*
X366400Y119729D02*
X402850D01*
X366400Y119369D02*
X402850D01*
X366400Y119009D02*
X402850D01*
X366400Y118649D02*
X402850D01*
X366400Y118289D02*
X402850D01*
X366400Y117929D02*
X402850D01*
X366514Y117569D02*
X402850D01*
X366874Y117209D02*
X402850D01*
X367234Y116849D02*
X402850D01*
X367594Y116489D02*
X402850D01*
X367954Y116129D02*
X402850D01*
X368314Y115769D02*
X402850D01*
X368674Y115409D02*
X402850D01*
X369034Y115049D02*
X402850D01*
X369394Y114689D02*
X402850D01*
X369754Y114329D02*
X402850D01*
X370114Y113969D02*
X402850D01*
X370474Y113609D02*
X402850D01*
X382900Y164149D02*
X386350D01*
X382900Y163789D02*
X386350D01*
X382900Y163429D02*
X386350D01*
X382900Y163069D02*
X386350D01*
X382900Y162709D02*
X386350D01*
X382900Y162349D02*
X386350D01*
X382900Y161989D02*
X386350D01*
X382900Y161629D02*
X386350D01*
X382900Y161269D02*
X386350D01*
X382900Y160909D02*
X386350D01*
X382900Y160549D02*
X386350D01*
X382900Y160189D02*
X386350D01*
X382900Y159829D02*
X386350D01*
X382900Y159469D02*
X386350D01*
X382900Y159109D02*
X386350D01*
X382900Y158749D02*
X386350D01*
X382900Y158389D02*
X386350D01*
X382900Y158029D02*
X386350D01*
X382900Y157669D02*
X386350D01*
X382900Y157309D02*
X386350D01*
X382900Y156949D02*
X386350D01*
X382900Y156589D02*
X386350D01*
X382900Y156229D02*
X386350D01*
X382900Y155869D02*
X386350D01*
X382900Y155509D02*
X386350D01*
X382900Y155149D02*
X386350D01*
X382900Y154789D02*
X386350D01*
X382900Y154429D02*
X386350D01*
X382900Y154069D02*
X386350D01*
X382900Y153709D02*
X386350D01*
X382900Y153349D02*
X386350D01*
X382900Y152989D02*
X386350D01*
X382900Y152629D02*
X386350D01*
X382900Y152269D02*
X386350D01*
X382900Y151909D02*
X386350D01*
X382900Y151549D02*
X386350D01*
X382900Y151189D02*
X386350D01*
X382900Y150829D02*
X386350D01*
X382900Y150469D02*
X386350D01*
X382900Y150109D02*
X386350D01*
X382900Y149749D02*
X386350D01*
X382900Y149389D02*
X386350D01*
X382900Y149029D02*
X386350D01*
X382900Y148669D02*
X386350D01*
X382900Y148309D02*
X386350D01*
X382900Y147949D02*
X386350D01*
X382900Y147589D02*
X386350D01*
X382900Y147229D02*
X386350D01*
X382900Y146869D02*
X386350D01*
X382900Y146509D02*
X386350D01*
X382900Y146149D02*
X386350D01*
X382900Y145789D02*
X386350D01*
X382900Y145429D02*
X386350D01*
X382900Y145069D02*
X386350D01*
X382900Y144709D02*
X386350D01*
X382900Y144349D02*
X386350D01*
X382900Y143989D02*
X386350D01*
X382900Y143629D02*
X386350D01*
X382900Y143269D02*
X386350D01*
X382900Y142909D02*
X386350D01*
X382900Y164509D02*
X386350D01*
X420850Y451759D02*
X464450D01*
X420850Y451399D02*
X464450D01*
X420850Y451039D02*
X464450D01*
X420850Y450679D02*
X464450D01*
X420850Y450319D02*
X464450D01*
X420850Y449959D02*
X464450D01*
X420850Y449599D02*
X464450D01*
X420850Y449239D02*
X464450D01*
X420850Y448879D02*
X464450D01*
X420850Y448519D02*
X464450D01*
X420850Y448159D02*
X464450D01*
X420850Y447799D02*
X464450D01*
X420850Y447439D02*
X464450D01*
X420850Y447079D02*
X464450D01*
X420850Y446719D02*
X464450D01*
X420850Y446359D02*
X464450D01*
X420850Y445999D02*
X464450D01*
X420850Y445639D02*
X464450D01*
X420850Y445279D02*
X464450D01*
X420850Y444919D02*
X464450D01*
X420850Y444559D02*
X464450D01*
X420850Y444199D02*
X464450D01*
X420850Y443839D02*
X464450D01*
X420850Y443479D02*
X464450D01*
X420850Y443119D02*
X464450D01*
X420850Y442759D02*
X464450D01*
X420850Y442399D02*
X464450D01*
X420850Y442039D02*
X464450D01*
X420850Y441679D02*
X464450D01*
X420850Y441319D02*
X464450D01*
X420850Y440959D02*
X464450D01*
X420850Y440599D02*
X464450D01*
X420850Y440239D02*
X464450D01*
X420850Y439879D02*
X464450D01*
X420850Y439519D02*
X464450D01*
X420850Y439159D02*
X464450D01*
X420850Y438799D02*
X464450D01*
X420850Y438439D02*
X464450D01*
X420850Y438079D02*
X464450D01*
X420850Y437719D02*
X464450D01*
X420850Y437359D02*
X464450D01*
X420850Y436999D02*
X464450D01*
X420850Y436639D02*
X464450D01*
X420850Y436279D02*
X464450D01*
X420850Y435919D02*
X464450D01*
X420850Y435559D02*
X464450D01*
X420850Y435199D02*
X464450D01*
X420850Y434839D02*
X464450D01*
X420850Y434479D02*
X464450D01*
X420850Y434119D02*
X464450D01*
X420850Y433759D02*
X464450D01*
X420850Y433399D02*
X464450D01*
X420850Y433039D02*
X464450D01*
X420850Y432679D02*
X464450D01*
X420850Y432319D02*
X464450D01*
X420850Y431959D02*
X464450D01*
X420850Y431599D02*
X464450D01*
X420850Y431239D02*
X464450D01*
X420850Y430879D02*
X464450D01*
X420850Y430519D02*
X464450D01*
X420850Y430159D02*
X464450D01*
X420850Y429799D02*
X464450D01*
X420850Y429439D02*
X464450D01*
X429650Y429079D02*
X464450D01*
X429650Y428719D02*
X464450D01*
X429650Y428359D02*
X464450D01*
X429650Y427999D02*
X464450D01*
X429650Y427639D02*
X464450D01*
X429650Y427279D02*
X464450D01*
X429650Y426919D02*
X464450D01*
X429650Y426559D02*
X464450D01*
X429650Y426199D02*
X464450D01*
X429650Y425839D02*
X464450D01*
X429650Y425479D02*
X464450D01*
X429650Y425119D02*
X464450D01*
X429650Y424759D02*
X464450D01*
X429650Y424399D02*
X464450D01*
X429650Y424039D02*
X464450D01*
X429650Y423679D02*
X464450D01*
X429650Y423319D02*
X464450D01*
X429650Y422959D02*
X464450D01*
X429650Y422599D02*
X464450D01*
X429650Y422239D02*
X464450D01*
X429650Y421879D02*
X464450D01*
X429650Y421519D02*
X464450D01*
X429650Y421159D02*
X464450D01*
X429650Y420799D02*
X464450D01*
X429650Y420439D02*
X464450D01*
X429650Y420079D02*
X464450D01*
X429650Y419719D02*
X464450D01*
X429650Y419359D02*
X464450D01*
X455778Y418999D02*
X464450D01*
X456597Y418639D02*
X464450D01*
X457003Y418279D02*
X464450D01*
X457363Y417919D02*
X464450D01*
X457723Y417559D02*
X464450D01*
X458083Y417199D02*
X464450D01*
X458443Y416839D02*
X464450D01*
X458803Y416479D02*
X464430D01*
X420850Y452119D02*
X464248D01*
X459163Y416119D02*
X464087D01*
X420850Y452479D02*
X463888D01*
X459523Y415759D02*
X463727D01*
X420914Y452839D02*
X463528D01*
X459883Y415399D02*
X463367D01*
X420992Y453199D02*
X463168D01*
X421049Y453559D02*
X462808D01*
X421084Y453919D02*
X462448D01*
X421097Y454279D02*
X462088D01*
X421090Y454639D02*
X461728D01*
X421061Y454999D02*
X461368D01*
X421011Y455359D02*
X461008D01*
X420939Y455719D02*
X460648D01*
X420850Y456079D02*
X460288D01*
X420850Y456439D02*
X459928D01*
X420850Y456799D02*
X459568D01*
X420850Y457159D02*
X459208D01*
X420850Y457519D02*
X458848D01*
X420850Y457879D02*
X458488D01*
X420850Y458239D02*
X458128D01*
X420850Y458599D02*
X457768D01*
X420850Y458959D02*
X457408D01*
X420850Y459319D02*
X457048D01*
X420850Y459679D02*
X456688D01*
X420984Y460039D02*
X456301D01*
X429650Y418999D02*
X446300D01*
X429650Y418639D02*
X446300D01*
X429650Y418279D02*
X446300D01*
X429650Y417919D02*
X446300D01*
X429650Y417559D02*
X446300D01*
X429650Y417199D02*
X446300D01*
X429650Y416839D02*
X446300D01*
X429650Y416479D02*
X446300D01*
X429650Y416119D02*
X446300D01*
X429650Y415759D02*
X446300D01*
X429650Y415399D02*
X446300D01*
X429650Y415039D02*
X446300D01*
X429650Y414679D02*
X446300D01*
X429650Y414319D02*
X446300D01*
X429650Y413959D02*
X446300D01*
X429650Y413599D02*
X446300D01*
X429650Y413239D02*
X446300D01*
X429650Y412879D02*
X446300D01*
X429650Y412519D02*
X446300D01*
X429650Y412159D02*
X446300D01*
X429650Y411799D02*
X446300D01*
X429650Y411439D02*
X446300D01*
X429650Y411079D02*
X446300D01*
X429650Y410719D02*
X446300D01*
X429650Y410359D02*
X446300D01*
X429650Y409999D02*
X446300D01*
X429650Y409639D02*
X446300D01*
X429650Y409279D02*
X446300D01*
X429650Y408919D02*
X446300D01*
X429650Y408559D02*
X446300D01*
X428335Y415529D02*
X431450D01*
X320750Y415169D02*
X431450D01*
X320750Y414809D02*
X431450D01*
X320750Y414449D02*
X431450D01*
X320750Y414089D02*
X431450D01*
X320750Y413729D02*
X431450D01*
X320750Y413369D02*
X431450D01*
X320750Y413009D02*
X431450D01*
X320750Y412649D02*
X431450D01*
X320750Y412289D02*
X431450D01*
X320750Y411929D02*
X431450D01*
X320750Y411569D02*
X431450D01*
X320750Y411209D02*
X431450D01*
X320750Y410849D02*
X431450D01*
X320750Y410489D02*
X431450D01*
X320750Y410129D02*
X431450D01*
X320750Y409769D02*
X431450D01*
X320750Y409409D02*
X431450D01*
X320750Y409049D02*
X431450D01*
X320750Y408689D02*
X431450D01*
X320750Y408329D02*
X431450D01*
X428837Y415889D02*
X431446D01*
X320750Y407969D02*
X431336D01*
X320750Y407609D02*
X430976D01*
X320750Y407249D02*
X430616D01*
X320750Y406889D02*
X430256D01*
X320750Y406529D02*
X429720D01*
X320750Y406169D02*
X429233D01*
X320750Y405809D02*
X428907D01*
X320750Y405449D02*
X428676D01*
X320750Y405089D02*
X428456D01*
X427833Y404729D02*
X428094D01*
X320750D02*
X425567D01*
X320750Y404369D02*
X425039D01*
X320750Y404009D02*
X424707D01*
X320750Y401129D02*
X424488D01*
X320750Y403649D02*
X424480D01*
X320750Y401489D02*
X424414D01*
X320750Y403289D02*
X424328D01*
X320750Y401849D02*
X424286D01*
X320750Y402929D02*
X424237D01*
X320750Y402209D02*
X424217D01*
X320750Y402569D02*
X424201D01*
X320750Y400769D02*
X424136D01*
X320750Y415529D02*
X423791D01*
X320750Y400409D02*
X423776D01*
X320750Y400049D02*
X423416D01*
X320750Y415889D02*
X423289D01*
X320750Y399689D02*
X423056D01*
X320750Y399329D02*
X422696D01*
X320750Y398969D02*
X422336D01*
X320750Y398609D02*
X421976D01*
X320750Y398249D02*
X421616D01*
X320750Y397889D02*
X421256D01*
X320750Y397529D02*
X421000D01*
X320750Y397169D02*
X421000D01*
X320750Y396809D02*
X421000D01*
X320750Y396449D02*
X421000D01*
X320750Y396089D02*
X421000D01*
X320750Y395729D02*
X421000D01*
X320750Y395369D02*
X421000D01*
X320750Y395009D02*
X421000D01*
X320750Y394649D02*
X421000D01*
X320750Y394289D02*
X421000D01*
X320750Y393929D02*
X421000D01*
X320750Y393569D02*
X421000D01*
X320750Y393209D02*
X421000D01*
X320750Y392849D02*
X421000D01*
X320750Y392489D02*
X421000D01*
X320750Y392129D02*
X421000D01*
X320750Y391769D02*
X421000D01*
X320750Y391409D02*
X421000D01*
X320750Y391049D02*
X421000D01*
X320750Y390689D02*
X421000D01*
X320750Y390329D02*
X421000D01*
X320750Y389969D02*
X421000D01*
X320750Y389609D02*
X421000D01*
X320750Y389249D02*
X421000D01*
X320750Y388889D02*
X421000D01*
X320750Y388529D02*
X421000D01*
X320750Y388169D02*
X421000D01*
X320750Y387809D02*
X421000D01*
X320750Y387449D02*
X421000D01*
X320750Y387089D02*
X421000D01*
X320750Y386729D02*
X421000D01*
X320750Y386369D02*
X421000D01*
X320750Y386009D02*
X421000D01*
X320750Y385649D02*
X421000D01*
X320750Y385289D02*
X421000D01*
X320750Y384929D02*
X421000D01*
X320750Y384569D02*
X421000D01*
X320750Y384209D02*
X421000D01*
X320750Y383849D02*
X421000D01*
X320750Y383489D02*
X421000D01*
X320750Y383129D02*
X421000D01*
X320750Y382769D02*
X421000D01*
X320750Y382409D02*
X421000D01*
X320750Y382049D02*
X421000D01*
X320750Y381689D02*
X421000D01*
X320750Y381329D02*
X421000D01*
X320750Y380969D02*
X421000D01*
X320750Y380609D02*
X421000D01*
X320750Y380249D02*
X421000D01*
X409300Y379889D02*
X421000D01*
X409300Y379529D02*
X421000D01*
X409300Y379169D02*
X421000D01*
X409300Y378809D02*
X421000D01*
X409300Y378449D02*
X421000D01*
X409300Y378089D02*
X421000D01*
X409300Y377729D02*
X421000D01*
X409300Y377369D02*
X421000D01*
X409300Y377009D02*
X421000D01*
X409300Y376649D02*
X421000D01*
X409300Y376289D02*
X421000D01*
X409300Y375929D02*
X421000D01*
X409300Y375569D02*
X421000D01*
X409300Y375209D02*
X421000D01*
X409300Y374849D02*
X421000D01*
X409300Y374489D02*
X421000D01*
X409300Y374129D02*
X421000D01*
X409300Y373769D02*
X421000D01*
X320750Y443249D02*
X416463D01*
X320750Y442889D02*
X416463D01*
X320750Y442529D02*
X416463D01*
X320750Y442169D02*
X416463D01*
X320750Y441809D02*
X416463D01*
X320750Y441449D02*
X416463D01*
X320750Y441089D02*
X416463D01*
X320750Y440729D02*
X416463D01*
X320750Y440369D02*
X416463D01*
X320750Y440009D02*
X416463D01*
X320750Y439649D02*
X416463D01*
X320750Y439289D02*
X416463D01*
X320750Y438929D02*
X416463D01*
X320750Y438569D02*
X416463D01*
X320750Y438209D02*
X416463D01*
X320750Y437849D02*
X416463D01*
X320750Y437489D02*
X416463D01*
X320750Y437129D02*
X416463D01*
X320750Y436769D02*
X416463D01*
X320750Y436409D02*
X416463D01*
X320750Y436049D02*
X416463D01*
X320750Y435689D02*
X416463D01*
X320750Y435329D02*
X416463D01*
X320750Y434969D02*
X416463D01*
X320750Y434609D02*
X416463D01*
X320750Y434249D02*
X416463D01*
X320750Y433889D02*
X416463D01*
X320750Y433529D02*
X416463D01*
X320750Y433169D02*
X416463D01*
X320750Y432809D02*
X416463D01*
X320750Y432449D02*
X416463D01*
X320750Y432089D02*
X416463D01*
X320750Y431729D02*
X416463D01*
X320750Y431369D02*
X416463D01*
X320750Y431009D02*
X416463D01*
X320750Y430649D02*
X416463D01*
X320750Y430289D02*
X416463D01*
X320750Y429929D02*
X416463D01*
X320750Y429569D02*
X416463D01*
X320750Y429209D02*
X416463D01*
X320750Y428849D02*
X416463D01*
X320750Y428489D02*
X416463D01*
X320750Y428129D02*
X416463D01*
X320750Y427769D02*
X416463D01*
X320750Y427409D02*
X416463D01*
X320750Y427049D02*
X416463D01*
X320750Y426689D02*
X416463D01*
X320750Y426329D02*
X416463D01*
X320750Y425969D02*
X416463D01*
X320750Y425609D02*
X416463D01*
X320750Y425249D02*
X416463D01*
X320750Y424889D02*
X416463D01*
X320750Y424529D02*
X416463D01*
X320750Y424169D02*
X416463D01*
X320750Y423809D02*
X416463D01*
X320750Y423449D02*
X416463D01*
X320750Y423089D02*
X416463D01*
X320750Y422729D02*
X416463D01*
X320750Y422369D02*
X416463D01*
X320750Y422009D02*
X416463D01*
X320750Y421649D02*
X416463D01*
X320750Y421289D02*
X416463D01*
X320750Y420929D02*
X416463D01*
X320750Y420569D02*
X416463D01*
X320750Y420209D02*
X416463D01*
X320750Y419849D02*
X416463D01*
X320750Y419489D02*
X416463D01*
X320750Y419129D02*
X416463D01*
X320750Y418769D02*
X416463D01*
X320750Y418409D02*
X416463D01*
X320750Y418049D02*
X416463D01*
X320750Y417689D02*
X416463D01*
X320750Y417329D02*
X416463D01*
X320750Y416969D02*
X416463D01*
X320750Y416609D02*
X416463D01*
X320750Y416249D02*
X416463D01*
X320750Y443609D02*
X416383D01*
X320750Y443969D02*
X416023D01*
X320750Y444329D02*
X415663D01*
X320750Y444689D02*
X415303D01*
X320756Y445049D02*
X414943D01*
X386292Y445409D02*
X414583D01*
X386652Y445769D02*
X414223D01*
X387012Y446129D02*
X413863D01*
X387372Y446489D02*
X413503D01*
X387732Y446849D02*
X413143D01*
X388092Y447209D02*
X412783D01*
X388452Y447569D02*
X412423D01*
X388812Y447929D02*
X412063D01*
X389172Y448289D02*
X411703D01*
X389532Y448649D02*
X411343D01*
X389892Y449009D02*
X410983D01*
X390252Y449369D02*
X410623D01*
X390612Y449729D02*
X410263D01*
X390972Y450089D02*
X409903D01*
X391332Y450449D02*
X409543D01*
X391692Y450809D02*
X409183D01*
X392052Y451169D02*
X408823D01*
X392412Y451529D02*
X408463D01*
X392772Y451889D02*
X408103D01*
X320750Y379889D02*
X398450D01*
X320750Y379529D02*
X398450D01*
X320750Y379169D02*
X398450D01*
X320750Y378809D02*
X398450D01*
X320750Y378449D02*
X398450D01*
X320750Y378089D02*
X398450D01*
X320750Y377729D02*
X398450D01*
X320750Y377369D02*
X398450D01*
X320750Y377009D02*
X398450D01*
X320750Y376649D02*
X398450D01*
X320750Y376289D02*
X398450D01*
X320750Y375929D02*
X398450D01*
X320750Y375569D02*
X398450D01*
X320750Y375209D02*
X398450D01*
X320750Y374849D02*
X398450D01*
X320750Y374489D02*
X398450D01*
X320750Y374129D02*
X398450D01*
X320750Y373769D02*
X398450D01*
X320750Y373409D02*
X398450D01*
X320750Y373049D02*
X398450D01*
X320750Y372689D02*
X398450D01*
X320750Y372329D02*
X398450D01*
X320750Y371969D02*
X398450D01*
X320750Y371609D02*
X398450D01*
X320750Y371249D02*
X398450D01*
X320750Y370889D02*
X398450D01*
X320750Y370529D02*
X398450D01*
X320750Y370169D02*
X398450D01*
X320750Y369809D02*
X398450D01*
X320750Y369449D02*
X398450D01*
X320750Y369089D02*
X398450D01*
X320750Y368729D02*
X398450D01*
X320750Y368369D02*
X398450D01*
X320750Y368009D02*
X398450D01*
X320750Y367649D02*
X398450D01*
X320750Y367289D02*
X398450D01*
X320750Y366929D02*
X398450D01*
X320750Y366569D02*
X398450D01*
X320750Y366209D02*
X398450D01*
X285000Y444799D02*
X317600D01*
X285000Y444439D02*
X317600D01*
X285000Y444079D02*
X317600D01*
X285000Y443719D02*
X317600D01*
X285000Y443359D02*
X317600D01*
X285000Y442999D02*
X317600D01*
X285000Y442639D02*
X317600D01*
X285000Y442279D02*
X317600D01*
X285000Y441919D02*
X317600D01*
X285000Y441559D02*
X317600D01*
X285000Y441199D02*
X317600D01*
X285000Y440839D02*
X317600D01*
X285000Y440479D02*
X317600D01*
X285000Y440119D02*
X317600D01*
X285000Y439759D02*
X317600D01*
X285000Y439399D02*
X317600D01*
X285000Y439039D02*
X317600D01*
X285000Y438679D02*
X317600D01*
X285000Y438319D02*
X317600D01*
X285000Y437959D02*
X317600D01*
X285000Y437599D02*
X317600D01*
X285000Y437239D02*
X317600D01*
X285000Y436879D02*
X317600D01*
X285000Y436519D02*
X317600D01*
X285000Y436159D02*
X317600D01*
X285000Y435799D02*
X317600D01*
X285000Y435439D02*
X317600D01*
X285000Y435079D02*
X317600D01*
X285000Y434719D02*
X317600D01*
X285000Y434359D02*
X317600D01*
X285000Y433999D02*
X317600D01*
X285000Y433639D02*
X317600D01*
X285000Y433279D02*
X317600D01*
X285000Y432919D02*
X317600D01*
X285000Y432559D02*
X317600D01*
X285000Y432199D02*
X317600D01*
X285000Y431839D02*
X317600D01*
X285000Y431479D02*
X317600D01*
X285000Y431119D02*
X317600D01*
X285000Y430759D02*
X317600D01*
X285000Y430399D02*
X317600D01*
X285000Y430039D02*
X317600D01*
X285000Y429679D02*
X317600D01*
X285000Y429319D02*
X317600D01*
X285000Y428959D02*
X317600D01*
X285000Y428599D02*
X317600D01*
X285000Y428239D02*
X317600D01*
X285000Y427879D02*
X317600D01*
X285000Y427519D02*
X317600D01*
X285000Y427159D02*
X317600D01*
X285000Y426799D02*
X317600D01*
X285000Y426439D02*
X317600D01*
X285000Y426079D02*
X317600D01*
X285000Y425719D02*
X317600D01*
X285000Y425359D02*
X317600D01*
X285000Y424999D02*
X317600D01*
X285000Y424639D02*
X317600D01*
X285000Y424279D02*
X317600D01*
X285000Y423919D02*
X317600D01*
X285000Y423559D02*
X317600D01*
X285000Y423199D02*
X317600D01*
X285000Y422839D02*
X317600D01*
X285000Y422479D02*
X317600D01*
X285000Y422119D02*
X317600D01*
X285000Y421759D02*
X317600D01*
X285000Y421399D02*
X317600D01*
X285000Y421039D02*
X317600D01*
X287200Y420679D02*
X317600D01*
X287200Y420319D02*
X317600D01*
X287200Y419959D02*
X317600D01*
X287200Y419599D02*
X317600D01*
X287200Y419239D02*
X317600D01*
X287200Y418879D02*
X317600D01*
X287200Y418519D02*
X317600D01*
X287200Y418159D02*
X317600D01*
X287200Y417799D02*
X317600D01*
X287200Y417439D02*
X317600D01*
X287200Y417079D02*
X317600D01*
X287200Y416719D02*
X317600D01*
X287200Y416359D02*
X317600D01*
X287200Y415999D02*
X317600D01*
X287200Y415639D02*
X317600D01*
X287200Y415279D02*
X317600D01*
X287200Y414919D02*
X317600D01*
X287200Y414559D02*
X317600D01*
X287200Y414199D02*
X317600D01*
X287200Y413839D02*
X317600D01*
X287200Y413479D02*
X317600D01*
X287200Y413119D02*
X317600D01*
X287200Y412759D02*
X317600D01*
X287200Y412399D02*
X317600D01*
X287200Y412039D02*
X317600D01*
X287200Y411679D02*
X317600D01*
X287200Y411319D02*
X317600D01*
X287200Y410959D02*
X317600D01*
X287200Y410599D02*
X317600D01*
X287200Y410239D02*
X317600D01*
X287200Y409879D02*
X317600D01*
X287200Y409519D02*
X317600D01*
X287200Y409159D02*
X317600D01*
X287200Y408799D02*
X317600D01*
X287200Y408439D02*
X317600D01*
X287200Y408079D02*
X317600D01*
X287200Y407719D02*
X317600D01*
X287200Y407359D02*
X317600D01*
X287200Y406999D02*
X317600D01*
X287200Y406639D02*
X317600D01*
X287200Y406279D02*
X317600D01*
X287200Y405919D02*
X317600D01*
X287200Y405559D02*
X317600D01*
X287200Y405199D02*
X317600D01*
X287200Y404839D02*
X317600D01*
X287200Y404479D02*
X317600D01*
X287200Y404119D02*
X317600D01*
X287200Y403759D02*
X317600D01*
X287200Y403399D02*
X317600D01*
X287200Y403039D02*
X317600D01*
X287200Y402679D02*
X317600D01*
X287200Y402319D02*
X317600D01*
X287200Y401959D02*
X317600D01*
X285078Y445159D02*
X317522D01*
X196587Y406962D02*
X289825D01*
X196587Y406602D02*
X289825D01*
X196587Y406242D02*
X289825D01*
X196587Y405882D02*
X289825D01*
X196587Y405522D02*
X289825D01*
X196587Y405162D02*
X289825D01*
X196587Y404802D02*
X289825D01*
X196587Y404442D02*
X289825D01*
X196587Y404082D02*
X289825D01*
X196587Y403722D02*
X289825D01*
X196587Y403362D02*
X289825D01*
X196587Y403002D02*
X289825D01*
X196587Y402642D02*
X289825D01*
X196587Y402282D02*
X289793D01*
X196587Y401922D02*
X289440D01*
X196587Y401562D02*
X289080D01*
X196587Y401202D02*
X288720D01*
X196587Y400842D02*
X288360D01*
X196587Y400482D02*
X288000D01*
X196587Y400122D02*
X287640D01*
X196587Y399762D02*
X287280D01*
X196587Y399402D02*
X286920D01*
X196587Y399042D02*
X286560D01*
X196587Y398682D02*
X286200D01*
X196587Y398322D02*
X285840D01*
X196587Y397962D02*
X285480D01*
X196587Y397602D02*
X285120D01*
X196587Y397242D02*
X284760D01*
X196587Y396882D02*
X284400D01*
X196587Y396522D02*
X284040D01*
X196587Y396162D02*
X283680D01*
X196587Y395802D02*
X283320D01*
X196587Y395442D02*
X282960D01*
X196587Y395082D02*
X282600D01*
X196587Y394722D02*
X282240D01*
X196587Y394362D02*
X281880D01*
X196587Y394002D02*
X281520D01*
X196587Y393642D02*
X281160D01*
X196587Y393282D02*
X280800D01*
X196587Y392922D02*
X280440D01*
X196587Y392562D02*
X280080D01*
X196587Y392202D02*
X279720D01*
X259145Y444762D02*
X279650D01*
X258785Y444402D02*
X279650D01*
X258425Y444042D02*
X279650D01*
X258065Y443682D02*
X279650D01*
X257705Y443322D02*
X279650D01*
X257345Y442962D02*
X279650D01*
X256985Y442602D02*
X279650D01*
X256625Y442242D02*
X279650D01*
X256265Y441882D02*
X279650D01*
X255905Y441522D02*
X279650D01*
X255545Y441162D02*
X279650D01*
X255185Y440802D02*
X279650D01*
X254825Y440442D02*
X279650D01*
X254465Y440082D02*
X279650D01*
X254105Y439722D02*
X279650D01*
X253745Y439362D02*
X279650D01*
X253385Y439002D02*
X279650D01*
X253025Y438642D02*
X279650D01*
X252665Y438282D02*
X279650D01*
X252305Y437922D02*
X279650D01*
X251945Y437562D02*
X279650D01*
X251585Y437202D02*
X279650D01*
X251225Y436842D02*
X279650D01*
X250865Y436482D02*
X279650D01*
X250505Y436122D02*
X279650D01*
X250145Y435762D02*
X279650D01*
X249785Y435402D02*
X279650D01*
X249425Y435042D02*
X279650D01*
X249065Y434682D02*
X279650D01*
X248705Y434322D02*
X279650D01*
X248345Y433962D02*
X279650D01*
X247985Y433602D02*
X279650D01*
X247625Y433242D02*
X279650D01*
X247265Y432882D02*
X279650D01*
X246905Y432522D02*
X279650D01*
X246545Y432162D02*
X279650D01*
X246185Y431802D02*
X279650D01*
X245825Y431442D02*
X279650D01*
X245465Y431082D02*
X279650D01*
X245105Y430722D02*
X279650D01*
X244745Y430362D02*
X279650D01*
X244385Y430002D02*
X279650D01*
X244025Y429642D02*
X279650D01*
X243665Y429282D02*
X279650D01*
X243305Y428922D02*
X279650D01*
X242945Y428562D02*
X279650D01*
X242585Y428202D02*
X279650D01*
X242225Y427842D02*
X279650D01*
X241865Y427482D02*
X279650D01*
X241505Y427122D02*
X279650D01*
X241145Y426762D02*
X279650D01*
X240785Y426402D02*
X279650D01*
X208800Y426042D02*
X279650D01*
X208440Y425682D02*
X279650D01*
X208080Y425322D02*
X279650D01*
X207720Y424962D02*
X279650D01*
X207360Y424602D02*
X279650D01*
X207000Y424242D02*
X279650D01*
X206640Y423882D02*
X279650D01*
X206280Y423522D02*
X279650D01*
X205920Y423162D02*
X279650D01*
X205560Y422802D02*
X279650D01*
X205200Y422442D02*
X279650D01*
X204840Y422082D02*
X279650D01*
X204480Y421722D02*
X279650D01*
X204120Y421362D02*
X279650D01*
X203760Y421002D02*
X279650D01*
X203400Y420642D02*
X279650D01*
X203040Y420282D02*
X279650D01*
X202680Y419922D02*
X279650D01*
X202320Y419562D02*
X279650D01*
X201960Y419202D02*
X279650D01*
X201600Y418842D02*
X279650D01*
X201240Y418482D02*
X279650D01*
X200880Y418122D02*
X279650D01*
X200520Y417762D02*
X279650D01*
X200160Y417402D02*
X279650D01*
X199800Y417042D02*
X279650D01*
X199440Y416682D02*
X279650D01*
X199080Y416322D02*
X279650D01*
X198720Y415962D02*
X279650D01*
X198360Y415602D02*
X279650D01*
X198000Y415242D02*
X279650D01*
X197640Y414882D02*
X279650D01*
X197280Y414522D02*
X279650D01*
X196920Y414162D02*
X279650D01*
X196595Y413802D02*
X279650D01*
X196587Y413442D02*
X279650D01*
X196587Y413082D02*
X279650D01*
X196587Y412722D02*
X279650D01*
X196587Y412362D02*
X279650D01*
X196587Y412002D02*
X279650D01*
X196587Y411642D02*
X279650D01*
X196587Y411282D02*
X279650D01*
X196587Y410922D02*
X279650D01*
X196587Y410562D02*
X279650D01*
X196587Y410202D02*
X279650D01*
X196587Y409842D02*
X279650D01*
X196587Y409482D02*
X279650D01*
X196587Y409122D02*
X279650D01*
X196587Y408762D02*
X279650D01*
X196587Y408402D02*
X279650D01*
X196587Y408042D02*
X279650D01*
X196587Y407682D02*
X279650D01*
X196587Y407322D02*
X279650D01*
X196587Y391842D02*
X279650D01*
X196587Y391482D02*
X279650D01*
X196587Y391122D02*
X279650D01*
X196587Y390762D02*
X279650D01*
X196587Y390402D02*
X279650D01*
X196587Y390042D02*
X279650D01*
X196587Y389682D02*
X279650D01*
X196587Y389322D02*
X279650D01*
X196587Y388962D02*
X279650D01*
X196587Y388602D02*
X279650D01*
X196587Y388242D02*
X279650D01*
X196587Y387882D02*
X279650D01*
X196587Y387522D02*
X279650D01*
X196587Y387162D02*
X279650D01*
X196587Y386802D02*
X279650D01*
X196587Y386442D02*
X279650D01*
X196587Y386082D02*
X279650D01*
X196587Y385722D02*
X279650D01*
X196587Y385362D02*
X279650D01*
X196587Y385002D02*
X279650D01*
X196587Y384642D02*
X279650D01*
X196587Y384282D02*
X279650D01*
X196587Y383922D02*
X279650D01*
X196587Y383562D02*
X279650D01*
X196587Y383202D02*
X279650D01*
X196587Y382842D02*
X279650D01*
X196587Y382482D02*
X279650D01*
X196587Y382122D02*
X279650D01*
X196587Y381762D02*
X279650D01*
X196587Y381402D02*
X279650D01*
X196587Y381042D02*
X279650D01*
X196587Y380682D02*
X279650D01*
X196587Y380322D02*
X279650D01*
X196587Y379962D02*
X279650D01*
X196587Y379602D02*
X279650D01*
X196587Y379242D02*
X279650D01*
X196587Y378882D02*
X279650D01*
X196587Y378522D02*
X279650D01*
X196587Y378162D02*
X279650D01*
X196587Y377802D02*
X279650D01*
X196587Y377442D02*
X279650D01*
X196587Y377082D02*
X279650D01*
X196587Y376722D02*
X279650D01*
X196587Y376362D02*
X279650D01*
X196587Y376002D02*
X279650D01*
X196587Y375642D02*
X279650D01*
X196587Y375282D02*
X279650D01*
X196587Y374922D02*
X279650D01*
X196587Y374562D02*
X279650D01*
X196587Y374202D02*
X279650D01*
X196587Y373842D02*
X279650D01*
X196587Y373482D02*
X279650D01*
X196587Y373122D02*
X279650D01*
X266300Y372762D02*
X279650D01*
X266300Y372402D02*
X279650D01*
X266300Y372042D02*
X279650D01*
X266300Y371682D02*
X279650D01*
X266300Y371322D02*
X279650D01*
X266300Y370962D02*
X279650D01*
X266300Y370602D02*
X279650D01*
X266300Y370242D02*
X279650D01*
X266300Y369882D02*
X279650D01*
X266300Y369522D02*
X279650D01*
X266300Y369162D02*
X279650D01*
X266300Y368802D02*
X279650D01*
X266300Y368442D02*
X279650D01*
X266300Y368082D02*
X279650D01*
X266300Y367722D02*
X279650D01*
X266300Y367362D02*
X279650D01*
X259505Y445122D02*
X279608D01*
X266365Y367002D02*
X279585D01*
X196587Y372762D02*
X254900D01*
X196587Y372402D02*
X254900D01*
X196587Y372042D02*
X254900D01*
X196587Y371682D02*
X254900D01*
X196587Y371322D02*
X254900D01*
X196587Y370962D02*
X254900D01*
X196587Y370602D02*
X254900D01*
X196587Y370242D02*
X254900D01*
X196587Y369882D02*
X254900D01*
X196587Y369522D02*
X254900D01*
X196587Y369162D02*
X254900D01*
X196587Y368802D02*
X254900D01*
X196587Y368442D02*
X254900D01*
X196587Y368082D02*
X254900D01*
X196587Y367722D02*
X254900D01*
X196587Y367362D02*
X254900D01*
X196587Y367002D02*
X254900D01*
X196778Y366642D02*
X254900D01*
X197138Y366282D02*
X254900D01*
X197498Y365922D02*
X254900D01*
X197858Y365562D02*
X254900D01*
X198218Y365202D02*
X254900D01*
X198578Y364842D02*
X254900D01*
X198938Y364482D02*
X254900D01*
X199298Y364122D02*
X254900D01*
X199658Y363762D02*
X254900D01*
X200018Y363402D02*
X254900D01*
X200378Y363042D02*
X254900D01*
X200738Y362682D02*
X254900D01*
X201098Y362322D02*
X254900D01*
X201458Y361962D02*
X254900D01*
X201818Y361602D02*
X254900D01*
X320750Y311739D02*
X430350D01*
X320750Y311379D02*
X430350D01*
X320750Y311019D02*
X430350D01*
X320750Y310659D02*
X430350D01*
X320750Y310299D02*
X430350D01*
X320750Y309939D02*
X430350D01*
X320750Y309579D02*
X430350D01*
X320750Y309219D02*
X430350D01*
X320750Y308859D02*
X430350D01*
X320750Y308499D02*
X430350D01*
X320750Y308139D02*
X430350D01*
X320750Y307779D02*
X430350D01*
X320750Y307419D02*
X430350D01*
X320750Y307059D02*
X430350D01*
X320750Y306699D02*
X430350D01*
X320750Y306339D02*
X430350D01*
X320750Y305979D02*
X430350D01*
X320750Y305619D02*
X430350D01*
X320750Y305259D02*
X430350D01*
X320750Y304899D02*
X430350D01*
X320750Y304539D02*
X430350D01*
X320750Y304179D02*
X430350D01*
X320750Y303819D02*
X430350D01*
X320750Y303459D02*
X430350D01*
X320750Y303099D02*
X430350D01*
X320750Y302739D02*
X430350D01*
X320750Y302379D02*
X430350D01*
X320750Y302019D02*
X430350D01*
X320750Y301659D02*
X430350D01*
X320750Y301299D02*
X430350D01*
X320750Y300939D02*
X430350D01*
X320750Y300579D02*
X430350D01*
X320750Y300219D02*
X430350D01*
X320750Y299859D02*
X430350D01*
X320750Y299499D02*
X430350D01*
X320750Y299139D02*
X430350D01*
X320750Y298779D02*
X430350D01*
X320750Y298419D02*
X430350D01*
X320750Y298059D02*
X430350D01*
X320750Y312099D02*
X430173D01*
X320750Y366819D02*
X351150D01*
X320750Y366459D02*
X351150D01*
X320750Y366099D02*
X351150D01*
X320750Y365739D02*
X351150D01*
X320750Y365379D02*
X351150D01*
X320750Y365019D02*
X351150D01*
X320750Y364659D02*
X351150D01*
X320750Y364299D02*
X351150D01*
X320750Y363939D02*
X351150D01*
X320750Y363579D02*
X351150D01*
X320750Y363219D02*
X351150D01*
X320750Y362859D02*
X351150D01*
X320750Y362499D02*
X351150D01*
X320750Y362139D02*
X351150D01*
X320750Y361779D02*
X351150D01*
X320750Y361419D02*
X351150D01*
X320750Y361059D02*
X351150D01*
X320750Y360699D02*
X351150D01*
X320750Y360339D02*
X351150D01*
X320750Y359979D02*
X351150D01*
X320750Y359619D02*
X351150D01*
X320750Y356379D02*
X351150D01*
X320750Y356019D02*
X351150D01*
X320750Y355659D02*
X351150D01*
X320750Y355299D02*
X351150D01*
X320750Y354939D02*
X351150D01*
X320750Y354579D02*
X351150D01*
X320750Y354219D02*
X351150D01*
X320750Y353859D02*
X351150D01*
X320750Y353499D02*
X351150D01*
X320750Y353139D02*
X351150D01*
X320750Y352779D02*
X351150D01*
X320750Y352419D02*
X351150D01*
X320750Y352059D02*
X351150D01*
X320750Y351699D02*
X351150D01*
X320750Y351339D02*
X351150D01*
X320750Y350979D02*
X351150D01*
X320750Y350619D02*
X351150D01*
X320750Y350259D02*
X351150D01*
X320750Y349899D02*
X351150D01*
X320750Y349539D02*
X351150D01*
X320750Y349179D02*
X351150D01*
X320750Y348819D02*
X351150D01*
X320750Y348459D02*
X351150D01*
X320750Y348099D02*
X351150D01*
X320750Y347739D02*
X351150D01*
X320750Y347379D02*
X351150D01*
X320750Y347019D02*
X351150D01*
X320750Y346659D02*
X351150D01*
X320750Y346299D02*
X351150D01*
X320750Y345939D02*
X351150D01*
X320750Y345579D02*
X351150D01*
X320750Y345219D02*
X351150D01*
X320750Y344859D02*
X351150D01*
X320750Y344499D02*
X351150D01*
X320750Y344139D02*
X351150D01*
X320750Y343779D02*
X351150D01*
X320750Y343419D02*
X351150D01*
X320750Y343059D02*
X351150D01*
X320750Y342699D02*
X351150D01*
X320750Y342339D02*
X351150D01*
X320750Y341979D02*
X351150D01*
X320750Y341619D02*
X351150D01*
X320750Y341259D02*
X351150D01*
X320750Y340899D02*
X351150D01*
X320750Y340539D02*
X351150D01*
X320750Y340179D02*
X351150D01*
X320750Y339819D02*
X351150D01*
X320750Y339459D02*
X351150D01*
X320750Y339099D02*
X351150D01*
X320750Y338739D02*
X351150D01*
X320750Y338379D02*
X351150D01*
X320750Y338019D02*
X351150D01*
X320750Y337659D02*
X351150D01*
X320750Y337299D02*
X351150D01*
X320750Y336939D02*
X351150D01*
X320750Y336579D02*
X351150D01*
X320750Y336219D02*
X351150D01*
X320750Y335859D02*
X351150D01*
X320750Y335499D02*
X351150D01*
X320750Y335139D02*
X351150D01*
X320750Y334779D02*
X351150D01*
X320750Y334419D02*
X351150D01*
X320750Y334059D02*
X351150D01*
X320750Y333699D02*
X351150D01*
X320750Y333339D02*
X351150D01*
X320750Y332979D02*
X351150D01*
X320750Y332619D02*
X351150D01*
X320750Y332259D02*
X351150D01*
X320750Y331899D02*
X351150D01*
X320750Y331539D02*
X351150D01*
X320750Y331179D02*
X351150D01*
X320750Y330819D02*
X351150D01*
X320750Y330459D02*
X351150D01*
X320750Y330099D02*
X351150D01*
X320750Y329739D02*
X351150D01*
X320750Y329379D02*
X351150D01*
X320750Y329019D02*
X351150D01*
X320750Y328659D02*
X351150D01*
X320750Y328299D02*
X351150D01*
X320750Y327939D02*
X351150D01*
X320750Y327579D02*
X351150D01*
X320750Y327219D02*
X351150D01*
X320750Y326859D02*
X351150D01*
X320750Y326499D02*
X351150D01*
X320750Y326139D02*
X351150D01*
X320750Y325779D02*
X351150D01*
X320750Y325419D02*
X351150D01*
X320750Y325059D02*
X351150D01*
X320750Y324699D02*
X351150D01*
X320750Y324339D02*
X351150D01*
X320750Y323979D02*
X351150D01*
X320750Y323619D02*
X351150D01*
X320750Y323259D02*
X351150D01*
X320750Y322899D02*
X351150D01*
X320750Y322539D02*
X351150D01*
X320750Y322179D02*
X351150D01*
X320750Y321819D02*
X351150D01*
X320750Y321459D02*
X351150D01*
X320750Y321099D02*
X351150D01*
X320750Y320739D02*
X351150D01*
X320750Y320379D02*
X351150D01*
X320750Y320019D02*
X351150D01*
X320750Y319659D02*
X351150D01*
X320750Y319299D02*
X351150D01*
X320750Y318939D02*
X351150D01*
X320750Y318579D02*
X351150D01*
X320750Y318219D02*
X351150D01*
X320750Y317859D02*
X351150D01*
X320750Y317499D02*
X351150D01*
X320750Y317139D02*
X351150D01*
X320750Y316779D02*
X351150D01*
X320750Y316419D02*
X351150D01*
X320750Y316059D02*
X351150D01*
X320750Y315699D02*
X351150D01*
X320750Y315339D02*
X351150D01*
X320750Y314979D02*
X351150D01*
X320750Y314619D02*
X351150D01*
X320750Y314259D02*
X351150D01*
X320750Y313899D02*
X351150D01*
X320750Y313539D02*
X351150D01*
X320750Y313179D02*
X351150D01*
X320750Y312819D02*
X351150D01*
X320750Y312459D02*
X351150D01*
X320750Y359259D02*
X351131D01*
X320750Y356739D02*
X351081D01*
X320750Y358899D02*
X350969D01*
X320750Y357099D02*
X350935D01*
X320750Y358539D02*
X350864D01*
X320750Y357459D02*
X350844D01*
X320750Y358179D02*
X350810D01*
X320750Y357819D02*
X350803D01*
X277850Y206599D02*
X311000D01*
X277850Y206239D02*
X311000D01*
X277850Y205879D02*
X311000D01*
X277850Y205519D02*
X311000D01*
X277850Y205159D02*
X311000D01*
X277850Y204799D02*
X311000D01*
X277850Y204439D02*
X311000D01*
X277850Y204079D02*
X311000D01*
X277850Y203719D02*
X311000D01*
X277850Y203359D02*
X311000D01*
X277850Y202999D02*
X311000D01*
X277850Y202639D02*
X311000D01*
X277850Y202279D02*
X311000D01*
X277850Y201919D02*
X311000D01*
X277850Y201559D02*
X311000D01*
X277850Y201199D02*
X311000D01*
X277850Y200839D02*
X311000D01*
X277850Y200479D02*
X311000D01*
X277850Y200119D02*
X311000D01*
X277850Y199759D02*
X311000D01*
X277850Y199399D02*
X311000D01*
X277850Y199039D02*
X311000D01*
X277850Y198679D02*
X311000D01*
X277850Y198319D02*
X311000D01*
X277850Y197959D02*
X311000D01*
X277850Y197599D02*
X311000D01*
X277850Y197239D02*
X311000D01*
X277850Y196879D02*
X311000D01*
X277850Y196519D02*
X311000D01*
X277850Y196159D02*
X311000D01*
X277850Y195799D02*
X311000D01*
X277850Y195439D02*
X311000D01*
X277850Y195079D02*
X311000D01*
X277850Y194719D02*
X311000D01*
X277850Y194359D02*
X311000D01*
X277850Y193999D02*
X311000D01*
X277850Y193639D02*
X311000D01*
X277850Y193279D02*
X311000D01*
X277850Y192919D02*
X311000D01*
X277850Y192559D02*
X311000D01*
X277850Y192199D02*
X311000D01*
X277850Y191839D02*
X311000D01*
X277850Y191479D02*
X311000D01*
X277850Y191119D02*
X311000D01*
X277850Y190759D02*
X311000D01*
X277850Y190399D02*
X311000D01*
X277850Y190039D02*
X311000D01*
X277850Y189679D02*
X311000D01*
X277850Y189319D02*
X311000D01*
X277850Y188959D02*
X311000D01*
X277850Y188599D02*
X311000D01*
X277850Y188239D02*
X311000D01*
X277850Y187879D02*
X311000D01*
X277850Y187519D02*
X311000D01*
X277850Y187159D02*
X311000D01*
X277850Y186799D02*
X311000D01*
X277850Y186439D02*
X311000D01*
X277850Y186079D02*
X311000D01*
X277850Y185719D02*
X311000D01*
X277850Y185359D02*
X311000D01*
X277850Y184999D02*
X311000D01*
X277850Y184639D02*
X311000D01*
X277850Y184279D02*
X311000D01*
X277850Y183919D02*
X311000D01*
X277850Y183559D02*
X311000D01*
X277850Y183199D02*
X311000D01*
X277850Y182839D02*
X311000D01*
X277850Y182479D02*
X311000D01*
X277850Y182119D02*
X311000D01*
X277850Y181759D02*
X311000D01*
X277850Y181399D02*
X311000D01*
X277850Y181039D02*
X311000D01*
X277850Y180679D02*
X311000D01*
X277850Y180319D02*
X311000D01*
X277850Y179959D02*
X311000D01*
X277850Y179599D02*
X311000D01*
X277850Y179239D02*
X311000D01*
X277850Y178879D02*
X311000D01*
X277850Y178519D02*
X311000D01*
X277850Y178159D02*
X311000D01*
X277850Y177799D02*
X311000D01*
X277850Y177439D02*
X311000D01*
X277850Y177079D02*
X311000D01*
X277850Y176719D02*
X311000D01*
X277850Y176359D02*
X311000D01*
X277850Y175999D02*
X311000D01*
X277850Y175639D02*
X311000D01*
X277850Y175279D02*
X311000D01*
X277850Y174919D02*
X311000D01*
X277850Y174559D02*
X311000D01*
X277850Y174199D02*
X311000D01*
X277850Y173839D02*
X311000D01*
X277850Y173479D02*
X311000D01*
X277850Y173119D02*
X311000D01*
X277850Y172759D02*
X311000D01*
X277850Y172399D02*
X311000D01*
X277850Y172039D02*
X311000D01*
X277850Y171679D02*
X311000D01*
X277850Y171319D02*
X311000D01*
X277850Y170959D02*
X311000D01*
X277850Y170599D02*
X311000D01*
X277850Y170239D02*
X311000D01*
X277850Y169879D02*
X311000D01*
X277850Y169519D02*
X311000D01*
X277850Y169159D02*
X311000D01*
X277850Y168799D02*
X311000D01*
X277850Y168439D02*
X311000D01*
X277850Y168079D02*
X311000D01*
X277850Y167719D02*
X311000D01*
X277850Y167359D02*
X311000D01*
X277850Y166999D02*
X311000D01*
X277850Y166639D02*
X311000D01*
X277850Y166279D02*
X311000D01*
X277850Y165919D02*
X311000D01*
X277850Y165559D02*
X311000D01*
X277850Y165199D02*
X311000D01*
X277850Y164839D02*
X311000D01*
X277850Y164479D02*
X311000D01*
X277850Y164119D02*
X311000D01*
X277850Y163759D02*
X311000D01*
X277850Y163399D02*
X311000D01*
X277850Y163039D02*
X311000D01*
X277850Y162679D02*
X311000D01*
X277850Y162319D02*
X311000D01*
X277850Y161959D02*
X311000D01*
X277850Y161599D02*
X311000D01*
X277850Y161239D02*
X311000D01*
X277850Y160879D02*
X311000D01*
X277850Y160519D02*
X311000D01*
X277850Y160159D02*
X311000D01*
X277850Y159799D02*
X311000D01*
X277850Y159439D02*
X311000D01*
X277850Y159079D02*
X311000D01*
X277850Y158719D02*
X311000D01*
X277850Y158359D02*
X311000D01*
X277850Y157999D02*
X311000D01*
X277850Y157639D02*
X311000D01*
X277850Y157279D02*
X311000D01*
X277850Y156919D02*
X311000D01*
X277850Y156559D02*
X311000D01*
X277850Y156199D02*
X311000D01*
X277850Y155839D02*
X311000D01*
X277850Y155479D02*
X311000D01*
X277850Y155119D02*
X311000D01*
X277850Y154759D02*
X311000D01*
X277850Y154399D02*
X311000D01*
X277850Y154039D02*
X311000D01*
X277850Y153679D02*
X311000D01*
X277850Y153319D02*
X311000D01*
X277850Y152959D02*
X311000D01*
X277850Y152599D02*
X311000D01*
X277850Y152239D02*
X311000D01*
X277850Y151879D02*
X311000D01*
X277850Y151519D02*
X311000D01*
X277850Y151159D02*
X311000D01*
X277850Y150799D02*
X311000D01*
X277850Y150439D02*
X311000D01*
X277850Y150079D02*
X311000D01*
X277850Y149719D02*
X311000D01*
X277850Y149359D02*
X311000D01*
X277850Y148999D02*
X311000D01*
X277850Y148639D02*
X311000D01*
X277850Y148279D02*
X311000D01*
X277850Y147919D02*
X311000D01*
X277850Y147559D02*
X311000D01*
X277850Y147199D02*
X311000D01*
X277850Y146839D02*
X311000D01*
X277850Y146479D02*
X311000D01*
X277850Y146119D02*
X311000D01*
X277850Y145759D02*
X311000D01*
X277850Y145399D02*
X311000D01*
X277850Y145039D02*
X311000D01*
X277850Y144679D02*
X311000D01*
X277850Y144319D02*
X311000D01*
X277850Y143959D02*
X311000D01*
X277850Y143599D02*
X311000D01*
X277850Y143239D02*
X311000D01*
X277850Y142879D02*
X311000D01*
X277850Y142519D02*
X311000D01*
X277850Y142159D02*
X311000D01*
X277850Y141799D02*
X311000D01*
X277850Y141439D02*
X311000D01*
X277850Y141079D02*
X311000D01*
X277850Y140719D02*
X311000D01*
X277850Y140359D02*
X311000D01*
X277850Y139999D02*
X311000D01*
X277850Y139639D02*
X311000D01*
X277850Y139279D02*
X311000D01*
X277850Y138919D02*
X311000D01*
X277850Y138559D02*
X311000D01*
X277850Y138199D02*
X311000D01*
X277850Y137839D02*
X311000D01*
X277850Y137479D02*
X311000D01*
X277850Y137119D02*
X311000D01*
X277850Y136759D02*
X311000D01*
X277850Y136399D02*
X311000D01*
X277850Y136039D02*
X311000D01*
X277850Y135679D02*
X311000D01*
X277850Y135319D02*
X311000D01*
X277850Y134959D02*
X311000D01*
X277850Y134599D02*
X311000D01*
X277850Y134239D02*
X311000D01*
X277850Y133879D02*
X311000D01*
X277850Y133519D02*
X311000D01*
X277850Y133159D02*
X311000D01*
X277850Y132799D02*
X311000D01*
X277850Y132439D02*
X311000D01*
X277850Y132079D02*
X311000D01*
X277850Y131719D02*
X311000D01*
X277850Y131359D02*
X311000D01*
X277850Y130999D02*
X311000D01*
X277850Y130639D02*
X311000D01*
X277850Y130279D02*
X311000D01*
X277966Y129919D02*
X311000D01*
X292150Y129559D02*
X311000D01*
X292150Y129199D02*
X311000D01*
X292150Y128839D02*
X311000D01*
X292150Y128479D02*
X311000D01*
X292150Y128119D02*
X311000D01*
X292150Y127759D02*
X311000D01*
X292150Y127399D02*
X311000D01*
X292150Y127039D02*
X311000D01*
X292150Y126679D02*
X311000D01*
X292150Y126319D02*
X311000D01*
X292150Y125959D02*
X311000D01*
X292150Y125599D02*
X311000D01*
X292150Y125239D02*
X311000D01*
X292150Y124879D02*
X311000D01*
X292150Y124519D02*
X311000D01*
X292150Y124159D02*
X311000D01*
X292150Y123799D02*
X311000D01*
X292150Y123439D02*
X311000D01*
X292150Y123079D02*
X311000D01*
X292150Y122719D02*
X311000D01*
X292150Y122359D02*
X311000D01*
X292150Y121999D02*
X311000D01*
X292150Y121639D02*
X311000D01*
X292150Y121279D02*
X311000D01*
X292150Y120919D02*
X311000D01*
X292150Y120559D02*
X311000D01*
X292150Y120199D02*
X311000D01*
X292150Y119839D02*
X311000D01*
X292150Y119479D02*
X311000D01*
X292150Y119119D02*
X311000D01*
X292150Y118759D02*
X311000D01*
X292150Y118399D02*
X311000D01*
X292150Y118039D02*
X311000D01*
X292150Y117679D02*
X311000D01*
X292150Y117319D02*
X311000D01*
X292150Y116959D02*
X311000D01*
X292150Y116599D02*
X311000D01*
X271856Y116239D02*
X311000D01*
X271800Y115879D02*
X311000D01*
X271800Y115519D02*
X311000D01*
X271800Y115159D02*
X311000D01*
X271800Y114799D02*
X311000D01*
X271800Y114439D02*
X311000D01*
X271800Y114079D02*
X311000D01*
X271800Y113719D02*
X311000D01*
X271800Y113359D02*
X311000D01*
X271800Y112999D02*
X311000D01*
X271800Y112639D02*
X311000D01*
X271800Y112279D02*
X311000D01*
X271800Y111919D02*
X311000D01*
X271800Y111559D02*
X311000D01*
X271800Y111199D02*
X311000D01*
X271800Y110839D02*
X311000D01*
X271800Y110479D02*
X311000D01*
X271800Y110119D02*
X311000D01*
X271800Y109759D02*
X311000D01*
X271800Y109399D02*
X311000D01*
X271800Y109039D02*
X311000D01*
X271800Y108679D02*
X311000D01*
X271800Y108319D02*
X311000D01*
X271800Y107959D02*
X311000D01*
X271800Y107599D02*
X311000D01*
X271800Y107239D02*
X311000D01*
X271800Y106879D02*
X311000D01*
X271800Y106519D02*
X311000D01*
X271800Y106159D02*
X311000D01*
X271800Y105799D02*
X311000D01*
X271800Y105439D02*
X311000D01*
X271800Y105079D02*
X311000D01*
X271800Y104719D02*
X311000D01*
X271800Y104359D02*
X311000D01*
X271800Y103999D02*
X311000D01*
X271800Y103639D02*
X311000D01*
X271800Y103279D02*
X311000D01*
X271800Y102919D02*
X311000D01*
X271800Y102559D02*
X311000D01*
X277882Y206959D02*
X310968D01*
X322400Y213749D02*
X336850D01*
X322400Y213389D02*
X336850D01*
X322400Y213029D02*
X336850D01*
X322400Y212669D02*
X336850D01*
X322400Y212309D02*
X336850D01*
X322400Y211949D02*
X336850D01*
X322400Y211589D02*
X336850D01*
X322400Y211229D02*
X336850D01*
X322400Y210869D02*
X336850D01*
X322400Y210509D02*
X336850D01*
X322400Y210149D02*
X336850D01*
X322400Y209789D02*
X336850D01*
X322400Y209429D02*
X336850D01*
X322400Y209069D02*
X336850D01*
X322400Y208709D02*
X336850D01*
X322400Y208349D02*
X336850D01*
X322400Y207989D02*
X336850D01*
X322400Y207629D02*
X336850D01*
X322400Y207269D02*
X336850D01*
X322400Y206909D02*
X336850D01*
X322400Y206549D02*
X336850D01*
X322400Y206189D02*
X336850D01*
X322400Y205829D02*
X336850D01*
X322400Y205469D02*
X336850D01*
X322421Y205109D02*
X336850D01*
X322600Y204749D02*
X336850D01*
X322706Y204389D02*
X336850D01*
X322749Y204029D02*
X336850D01*
X322732Y203669D02*
X336850D01*
X322654Y203309D02*
X336850D01*
X322509Y202949D02*
X336850D01*
X322400Y202589D02*
X336850D01*
X322400Y202229D02*
X336850D01*
X322400Y201869D02*
X336850D01*
X322400Y201509D02*
X336850D01*
X322400Y201149D02*
X336850D01*
X322400Y200789D02*
X336850D01*
X322400Y200429D02*
X336850D01*
X322400Y200069D02*
X336850D01*
X322400Y199709D02*
X336850D01*
X322400Y199349D02*
X336850D01*
X322400Y198989D02*
X336850D01*
X322400Y198629D02*
X336850D01*
X322400Y198269D02*
X336850D01*
X322400Y197909D02*
X336850D01*
X322400Y197549D02*
X336850D01*
X322400Y197189D02*
X336850D01*
X322400Y196829D02*
X336850D01*
X322400Y196469D02*
X336850D01*
X322400Y196109D02*
X336850D01*
X322400Y195749D02*
X336850D01*
X322400Y195389D02*
X336850D01*
X322400Y195029D02*
X336850D01*
X322400Y194669D02*
X336850D01*
X322400Y194309D02*
X336850D01*
X322400Y193949D02*
X336850D01*
X322400Y193589D02*
X336850D01*
X322400Y193229D02*
X336850D01*
X322400Y192869D02*
X336850D01*
X322400Y192509D02*
X336850D01*
X322400Y192149D02*
X336850D01*
X322400Y191789D02*
X336850D01*
X322400Y191429D02*
X336850D01*
X322400Y191069D02*
X336850D01*
X322400Y190709D02*
X336850D01*
X322400Y190349D02*
X336850D01*
X322400Y189989D02*
X336850D01*
X322400Y189629D02*
X336850D01*
X322400Y189269D02*
X336850D01*
X322400Y188909D02*
X336850D01*
X322400Y188549D02*
X336850D01*
X322400Y188189D02*
X336850D01*
X322400Y187829D02*
X336850D01*
X322400Y187469D02*
X336850D01*
X322400Y187109D02*
X336850D01*
X322400Y186749D02*
X336850D01*
X322400Y186389D02*
X336850D01*
X322400Y186029D02*
X336850D01*
X322400Y185669D02*
X336850D01*
X322400Y185309D02*
X336850D01*
X322400Y184949D02*
X336850D01*
X322400Y184589D02*
X336850D01*
X322400Y184229D02*
X336850D01*
X322400Y183869D02*
X336850D01*
X322400Y183509D02*
X336850D01*
X322400Y183149D02*
X336850D01*
X322400Y182789D02*
X336850D01*
X322400Y182429D02*
X336850D01*
X322400Y182069D02*
X336850D01*
X322400Y181709D02*
X336850D01*
X322400Y181349D02*
X336850D01*
X322400Y180989D02*
X336850D01*
X322400Y180629D02*
X336850D01*
X322400Y180269D02*
X336850D01*
X322400Y179909D02*
X336850D01*
X322400Y179549D02*
X336850D01*
X322400Y179189D02*
X336850D01*
X322400Y178829D02*
X336850D01*
X322400Y178469D02*
X336850D01*
X322400Y178109D02*
X336850D01*
X322400Y177749D02*
X336850D01*
X322400Y177389D02*
X336850D01*
X322400Y177029D02*
X336850D01*
X322400Y176669D02*
X336850D01*
X322400Y176309D02*
X336850D01*
X322400Y175949D02*
X336850D01*
X322400Y175589D02*
X336850D01*
X322400Y175229D02*
X336850D01*
X322400Y174869D02*
X336850D01*
X322400Y174509D02*
X336850D01*
X322400Y174149D02*
X336850D01*
X322400Y173789D02*
X336850D01*
X322400Y173429D02*
X336850D01*
X322400Y173069D02*
X336850D01*
X322400Y172709D02*
X336850D01*
X322400Y172349D02*
X336850D01*
X322400Y171989D02*
X336850D01*
X322400Y171629D02*
X336850D01*
X322400Y171269D02*
X336850D01*
X322400Y170909D02*
X336850D01*
X322400Y170549D02*
X336850D01*
X322400Y170189D02*
X336850D01*
X322400Y169829D02*
X336850D01*
X322400Y169469D02*
X336850D01*
X322400Y169109D02*
X336850D01*
X322400Y168749D02*
X336850D01*
X322400Y168389D02*
X336850D01*
X322400Y168029D02*
X336850D01*
X322400Y167669D02*
X336850D01*
X322400Y167309D02*
X336850D01*
X322400Y166949D02*
X336850D01*
X322400Y166589D02*
X336850D01*
X322400Y166229D02*
X336850D01*
X322400Y165869D02*
X336850D01*
X322400Y165509D02*
X336850D01*
X322400Y165149D02*
X336850D01*
X322400Y164789D02*
X336850D01*
X322400Y164429D02*
X336850D01*
X322400Y164069D02*
X336850D01*
X322400Y163709D02*
X336850D01*
X322400Y163349D02*
X336850D01*
X322400Y162989D02*
X336850D01*
X322400Y162629D02*
X336850D01*
X322400Y162269D02*
X336850D01*
X322400Y161909D02*
X336850D01*
X322400Y161549D02*
X336850D01*
X322400Y161189D02*
X336850D01*
X322400Y160829D02*
X336850D01*
X322400Y160469D02*
X336850D01*
X322400Y160109D02*
X336850D01*
X322400Y159749D02*
X336850D01*
X322400Y159389D02*
X336850D01*
X322400Y159029D02*
X336850D01*
X322400Y158669D02*
X336850D01*
X322400Y158309D02*
X336850D01*
X322432Y214109D02*
X336818D01*
X123850Y430519D02*
X149850D01*
X123850Y430159D02*
X149850D01*
X123850Y429799D02*
X149850D01*
X123850Y429439D02*
X149850D01*
X123850Y429079D02*
X149850D01*
X123850Y428719D02*
X149850D01*
X123850Y428359D02*
X149850D01*
X123850Y427999D02*
X149850D01*
X123850Y427639D02*
X149850D01*
X123850Y427279D02*
X149850D01*
X123850Y426919D02*
X149850D01*
X123850Y426559D02*
X149850D01*
X123850Y426199D02*
X149850D01*
X123850Y425839D02*
X149850D01*
X123850Y425479D02*
X149850D01*
X123850Y425119D02*
X149850D01*
X123850Y424759D02*
X149850D01*
X123850Y424399D02*
X149850D01*
X123850Y424039D02*
X149850D01*
X123850Y423679D02*
X149850D01*
X123850Y423319D02*
X149850D01*
X123850Y422959D02*
X149850D01*
X123850Y422599D02*
X149850D01*
X123850Y422239D02*
X149850D01*
X123850Y421879D02*
X149850D01*
X123850Y421519D02*
X149850D01*
X123850Y421159D02*
X149850D01*
X123850Y420799D02*
X149850D01*
X123850Y420439D02*
X149850D01*
X123850Y420079D02*
X149850D01*
X123850Y419719D02*
X149850D01*
X123850Y419359D02*
X149850D01*
X123850Y418999D02*
X149850D01*
X123850Y418639D02*
X149850D01*
X123850Y418279D02*
X149850D01*
X123850Y417919D02*
X149850D01*
X123850Y417559D02*
X149850D01*
X123850Y417199D02*
X149850D01*
X123850Y416839D02*
X149850D01*
X123850Y416479D02*
X149850D01*
X123850Y416119D02*
X149850D01*
X123850Y415759D02*
X149850D01*
X123850Y415399D02*
X149850D01*
X123850Y415039D02*
X149850D01*
X123850Y414679D02*
X149850D01*
X123850Y414319D02*
X149850D01*
X123850Y413959D02*
X149850D01*
X123850Y413599D02*
X149850D01*
X123850Y413239D02*
X149850D01*
X123850Y412879D02*
X149850D01*
X123850Y412519D02*
X149850D01*
X123850Y412159D02*
X149850D01*
X123850Y411799D02*
X149850D01*
X123850Y411439D02*
X149850D01*
X123850Y411079D02*
X149850D01*
X123850Y410719D02*
X149850D01*
X123850Y410359D02*
X149850D01*
X123850Y409999D02*
X149850D01*
X123850Y409639D02*
X149850D01*
X123850Y409279D02*
X149850D01*
X123850Y408919D02*
X149850D01*
X123850Y408559D02*
X149850D01*
X123960Y430879D02*
X149740D01*
X374650Y346809D02*
X436400D01*
X376642Y346449D02*
X436400D01*
X377188Y346089D02*
X436400D01*
X377528Y345729D02*
X436400D01*
X377760Y345369D02*
X436400D01*
X377916Y345009D02*
X436400D01*
X378009Y344649D02*
X436400D01*
X378048Y344289D02*
X436400D01*
X378035Y343929D02*
X436400D01*
X377969Y343569D02*
X436400D01*
X377845Y343209D02*
X436400D01*
X377653Y342849D02*
X436400D01*
X377372Y342489D02*
X436400D01*
X377014Y342129D02*
X436400D01*
X376654Y341769D02*
X436400D01*
X376294Y341409D02*
X436400D01*
X375934Y341049D02*
X436400D01*
X375569Y340689D02*
X436400D01*
X375047Y340329D02*
X436400D01*
X371389Y339969D02*
X436400D01*
X371350Y339609D02*
X436400D01*
X371350Y339249D02*
X436400D01*
X371350Y338889D02*
X436400D01*
X371350Y338529D02*
X436400D01*
X371350Y338169D02*
X436400D01*
X348259Y337809D02*
X436400D01*
X348250Y337449D02*
X436400D01*
X348250Y337089D02*
X436400D01*
X348250Y336729D02*
X436400D01*
X348250Y336369D02*
X436400D01*
X348250Y336009D02*
X436400D01*
X348250Y335649D02*
X436400D01*
X348250Y335289D02*
X436400D01*
X348250Y334929D02*
X436400D01*
X348250Y334569D02*
X436400D01*
X348250Y334209D02*
X436400D01*
X348250Y333849D02*
X436400D01*
X348250Y333489D02*
X436400D01*
X348250Y333129D02*
X436400D01*
X348250Y332769D02*
X436400D01*
X348250Y332409D02*
X436400D01*
X348250Y332049D02*
X436400D01*
X348250Y331689D02*
X436400D01*
X348250Y331329D02*
X436400D01*
X348250Y330969D02*
X436400D01*
X348250Y330609D02*
X436400D01*
X348250Y330249D02*
X436400D01*
X348250Y329889D02*
X436400D01*
X348250Y329529D02*
X436400D01*
X348250Y329169D02*
X436400D01*
X348250Y328809D02*
X436400D01*
X348250Y328449D02*
X436400D01*
X348250Y328089D02*
X436400D01*
X348250Y327729D02*
X436400D01*
X348250Y327369D02*
X436400D01*
X348250Y327009D02*
X436400D01*
X348250Y326649D02*
X436400D01*
X348250Y326289D02*
X436400D01*
X348250Y325929D02*
X436400D01*
X348250Y325569D02*
X436400D01*
X348250Y325209D02*
X436400D01*
X348250Y324849D02*
X436400D01*
X374662Y347169D02*
X436388D01*
X348250Y324489D02*
X436384D01*
X366708Y324129D02*
X435542D01*
X367193Y323769D02*
X435057D01*
X367488Y323409D02*
X434762D01*
X367701Y323049D02*
X434549D01*
X348250Y324129D02*
X364592D01*
X348250Y323769D02*
X364107D01*
X348250Y323409D02*
X363812D01*
X348250Y320889D02*
X363800D01*
X348250Y320529D02*
X363800D01*
X348250Y320169D02*
X363800D01*
X348250Y317649D02*
X363800D01*
X348250Y317289D02*
X363800D01*
X348250Y316929D02*
X363800D01*
X348250Y316569D02*
X363800D01*
X348250Y316209D02*
X363800D01*
X348250Y315849D02*
X363800D01*
X348250Y315489D02*
X363800D01*
X348250Y315129D02*
X363800D01*
X348250Y314769D02*
X363800D01*
X348250Y314409D02*
X363800D01*
X348250Y314049D02*
X363800D01*
X348250Y313689D02*
X363800D01*
X348250Y313329D02*
X363800D01*
X348250Y312969D02*
X363800D01*
X348250Y312609D02*
X363800D01*
X348250Y312249D02*
X363800D01*
X348250Y311889D02*
X363800D01*
X348250Y311529D02*
X363800D01*
X348250Y311169D02*
X363800D01*
X348250Y310809D02*
X363800D01*
X348250Y310449D02*
X363800D01*
X348250Y310089D02*
X363800D01*
X348250Y309729D02*
X363800D01*
X348250Y309369D02*
X363800D01*
X348250Y309009D02*
X363800D01*
X348250Y321249D02*
X363666D01*
X348250Y319809D02*
X363646D01*
X348250Y318009D02*
X363639D01*
X348250Y323049D02*
X363620D01*
X348250Y321609D02*
X363531D01*
X348250Y319449D02*
X363519D01*
X348250Y318369D02*
X363515D01*
X348250Y322689D02*
X363505D01*
X348250Y321969D02*
X363462D01*
X348250Y319089D02*
X363458D01*
X348250Y318729D02*
X363457D01*
X348250Y322329D02*
X363454D01*
X327439Y291879D02*
X428700D01*
X327683Y291519D02*
X428700D01*
X327848Y291159D02*
X428700D01*
X327950Y290799D02*
X428700D01*
X327996Y290439D02*
X428700D01*
X328000Y290079D02*
X428700D01*
X328000Y289719D02*
X428700D01*
X328000Y289359D02*
X428700D01*
X328000Y288999D02*
X428700D01*
X328000Y288639D02*
X428700D01*
X328000Y288279D02*
X428700D01*
X328000Y287919D02*
X428700D01*
X328000Y287559D02*
X428700D01*
X328000Y287199D02*
X428700D01*
X328000Y286839D02*
X428700D01*
X328000Y286479D02*
X428700D01*
X328000Y286119D02*
X428700D01*
X328000Y285759D02*
X428700D01*
X328000Y285399D02*
X428700D01*
X328000Y285039D02*
X428700D01*
X328000Y284679D02*
X428700D01*
X328000Y284319D02*
X428700D01*
X328000Y283959D02*
X428700D01*
X328000Y283599D02*
X428700D01*
X328000Y283239D02*
X428700D01*
X328000Y282879D02*
X428700D01*
X328000Y282519D02*
X428700D01*
X328000Y282159D02*
X428700D01*
X328000Y281799D02*
X428700D01*
X328000Y281439D02*
X428700D01*
X328000Y281079D02*
X428700D01*
X328000Y280719D02*
X428700D01*
X328000Y280359D02*
X428700D01*
X328000Y279999D02*
X428700D01*
X328000Y279639D02*
X428700D01*
X328000Y279279D02*
X428700D01*
X328000Y278919D02*
X428700D01*
X328000Y278559D02*
X428700D01*
X328000Y278199D02*
X428700D01*
X328000Y277839D02*
X428700D01*
X328000Y277479D02*
X428700D01*
X328000Y277119D02*
X428700D01*
X328000Y276759D02*
X428700D01*
X328000Y276399D02*
X428700D01*
X328000Y276039D02*
X428700D01*
X328000Y275679D02*
X428700D01*
X328000Y275319D02*
X428700D01*
X328000Y274959D02*
X428700D01*
X328000Y274599D02*
X428700D01*
X328000Y274239D02*
X428700D01*
X328000Y273879D02*
X428700D01*
X328000Y273519D02*
X428700D01*
X328000Y273159D02*
X428700D01*
X328000Y272799D02*
X428700D01*
X328000Y272439D02*
X428700D01*
X328000Y272079D02*
X428700D01*
X328000Y271719D02*
X428700D01*
X328000Y271359D02*
X428700D01*
X328000Y270999D02*
X428700D01*
X328000Y270639D02*
X428700D01*
X328000Y270279D02*
X428700D01*
X328000Y269919D02*
X428700D01*
X328000Y269559D02*
X428700D01*
X328000Y269199D02*
X428700D01*
X328000Y268839D02*
X428700D01*
X328000Y268479D02*
X428700D01*
X328000Y268119D02*
X428700D01*
X328000Y267759D02*
X428700D01*
X328000Y267399D02*
X428700D01*
X328000Y267039D02*
X428700D01*
X328000Y266679D02*
X428700D01*
X328000Y266319D02*
X428700D01*
X328000Y265959D02*
X428700D01*
X328000Y265599D02*
X428700D01*
X328000Y265239D02*
X428700D01*
X328000Y264879D02*
X428700D01*
X328000Y264519D02*
X428700D01*
X328000Y264159D02*
X428700D01*
X328000Y263799D02*
X428700D01*
X328000Y263439D02*
X428700D01*
X328000Y263079D02*
X428700D01*
X328000Y262719D02*
X428700D01*
X328000Y262359D02*
X428700D01*
X328000Y261999D02*
X428700D01*
X328000Y261639D02*
X428700D01*
X328000Y261279D02*
X428700D01*
X328000Y260919D02*
X428700D01*
X328000Y260559D02*
X428700D01*
X328000Y260199D02*
X428700D01*
X328000Y259839D02*
X428700D01*
X328000Y259479D02*
X428700D01*
X328000Y259119D02*
X428700D01*
X328000Y258759D02*
X428700D01*
X328000Y258399D02*
X428700D01*
X328000Y258039D02*
X428700D01*
X327994Y257679D02*
X428700D01*
X327943Y257319D02*
X428700D01*
X327836Y256959D02*
X428700D01*
X327664Y256599D02*
X428700D01*
X327411Y256239D02*
X428700D01*
X327350Y255879D02*
X428700D01*
X327350Y255519D02*
X428700D01*
X327350Y255159D02*
X428700D01*
X327350Y254799D02*
X428700D01*
X327350Y254439D02*
X428700D01*
X327350Y254079D02*
X428700D01*
X327350Y253719D02*
X428700D01*
X327350Y253359D02*
X428700D01*
X327350Y252999D02*
X428700D01*
X327350Y252639D02*
X428700D01*
X327350Y252279D02*
X428700D01*
X327350Y251919D02*
X428700D01*
X327350Y251559D02*
X428700D01*
X327350Y251199D02*
X428700D01*
X327350Y250839D02*
X428700D01*
X327350Y250479D02*
X428700D01*
X327350Y250119D02*
X428700D01*
X327350Y249759D02*
X428700D01*
X327350Y249399D02*
X428700D01*
X327350Y249039D02*
X428700D01*
X327350Y248679D02*
X428700D01*
X327350Y248319D02*
X428700D01*
X327350Y247959D02*
X428700D01*
X327490Y292239D02*
X428566D01*
X196450Y281069D02*
X318700D01*
X196450Y280709D02*
X318700D01*
X196450Y280349D02*
X318700D01*
X196450Y279989D02*
X318700D01*
X196450Y279629D02*
X318700D01*
X196450Y279269D02*
X318700D01*
X196450Y278909D02*
X318700D01*
X196450Y278549D02*
X318700D01*
X196450Y278189D02*
X318700D01*
X196450Y277829D02*
X318700D01*
X196450Y277469D02*
X318700D01*
X196450Y277109D02*
X318700D01*
X196450Y276749D02*
X318700D01*
X196450Y276389D02*
X318700D01*
X196450Y276029D02*
X318700D01*
X196450Y275669D02*
X318700D01*
X196450Y275309D02*
X318700D01*
X196450Y274949D02*
X318700D01*
X196450Y274589D02*
X318700D01*
X196450Y274229D02*
X318700D01*
X196450Y273869D02*
X318700D01*
X196450Y273509D02*
X318700D01*
X196450Y273149D02*
X318700D01*
X196450Y272789D02*
X318700D01*
X196450Y272429D02*
X318700D01*
X196450Y272069D02*
X318700D01*
X196450Y271709D02*
X318700D01*
X196450Y271349D02*
X318700D01*
X196450Y270989D02*
X318700D01*
X196450Y270629D02*
X318700D01*
X196450Y270269D02*
X318700D01*
X196450Y269909D02*
X318700D01*
X196450Y269549D02*
X318700D01*
X196450Y269189D02*
X318700D01*
X196450Y268829D02*
X318700D01*
X196450Y268469D02*
X318700D01*
X196450Y268109D02*
X318700D01*
X196450Y267749D02*
X318700D01*
X196450Y267389D02*
X318700D01*
X196450Y267029D02*
X318700D01*
X196450Y266669D02*
X318700D01*
X196450Y266309D02*
X318700D01*
X196450Y265949D02*
X318700D01*
X196450Y265589D02*
X318700D01*
X196450Y265229D02*
X318700D01*
X196450Y264869D02*
X318700D01*
X196450Y264509D02*
X318700D01*
X196450Y264149D02*
X318700D01*
X196450Y263789D02*
X318700D01*
X196450Y263429D02*
X318700D01*
X196450Y263069D02*
X318700D01*
X196450Y262709D02*
X318700D01*
X196450Y262349D02*
X318700D01*
X196450Y261989D02*
X318700D01*
X196450Y261629D02*
X318700D01*
X196450Y261269D02*
X318700D01*
X196450Y260909D02*
X318700D01*
X196450Y260549D02*
X318566D01*
X196450Y260189D02*
X318206D01*
X196450Y259829D02*
X317846D01*
X196450Y259469D02*
X317486D01*
X196450Y259109D02*
X317126D01*
X196450Y258749D02*
X316766D01*
X196450Y258389D02*
X316406D01*
X196450Y258029D02*
X316046D01*
X196450Y257669D02*
X315686D01*
X196450Y257309D02*
X315326D01*
X235500Y309579D02*
X329150D01*
X235500Y309219D02*
X329150D01*
X235500Y308859D02*
X329150D01*
X235500Y308499D02*
X329150D01*
X235500Y308139D02*
X329150D01*
X235500Y307779D02*
X329150D01*
X235500Y307419D02*
X329150D01*
X235500Y307059D02*
X329150D01*
X235500Y306699D02*
X329150D01*
X235500Y306339D02*
X329150D01*
X235500Y305979D02*
X329150D01*
X235500Y305619D02*
X329150D01*
X235500Y305259D02*
X329150D01*
X235500Y304899D02*
X329150D01*
X235500Y304539D02*
X329150D01*
X235500Y304179D02*
X329150D01*
X235500Y303819D02*
X329150D01*
X235500Y303459D02*
X329150D01*
X235500Y303099D02*
X329150D01*
X235500Y302739D02*
X329150D01*
X235500Y302379D02*
X329150D01*
X235500Y302019D02*
X329150D01*
X235500Y301659D02*
X329150D01*
X235500Y301299D02*
X329150D01*
X235500Y300939D02*
X329150D01*
X235500Y300579D02*
X329150D01*
X235500Y300219D02*
X329150D01*
X235500Y299859D02*
X329150D01*
X235500Y299499D02*
X329150D01*
X235500Y299139D02*
X329150D01*
X235500Y298779D02*
X329150D01*
X235500Y298419D02*
X329150D01*
X235500Y298059D02*
X329150D01*
X290972Y349539D02*
X297250D01*
X290612Y349179D02*
X297250D01*
X290252Y348819D02*
X297250D01*
X289892Y348459D02*
X297250D01*
X289532Y348099D02*
X297250D01*
X289172Y347739D02*
X297250D01*
X288812Y347379D02*
X297250D01*
X288452Y347019D02*
X297250D01*
X288092Y346659D02*
X297250D01*
X287732Y346299D02*
X297250D01*
X287372Y345939D02*
X297250D01*
X287012Y345579D02*
X297250D01*
X286652Y345219D02*
X297250D01*
X286292Y344859D02*
X297250D01*
X285932Y344499D02*
X297250D01*
X285572Y344139D02*
X297250D01*
X285212Y343779D02*
X297250D01*
X284852Y343419D02*
X297250D01*
X284492Y343059D02*
X297250D01*
X284132Y342699D02*
X297250D01*
X283772Y342339D02*
X297250D01*
X283412Y341979D02*
X297250D01*
X283052Y341619D02*
X297250D01*
X282692Y341259D02*
X297250D01*
X282332Y340899D02*
X297250D01*
X281972Y340539D02*
X297250D01*
X281612Y340179D02*
X297250D01*
X281252Y339819D02*
X297250D01*
X280892Y339459D02*
X297250D01*
X280532Y339099D02*
X297250D01*
X280172Y338739D02*
X297250D01*
X279812Y338379D02*
X297250D01*
X279452Y338019D02*
X297250D01*
X279092Y337659D02*
X297250D01*
X278732Y337299D02*
X297250D01*
X278372Y336939D02*
X297250D01*
X236073Y336579D02*
X297250D01*
X235055Y336219D02*
X297250D01*
X229450Y335859D02*
X297250D01*
X229450Y335499D02*
X297250D01*
X229450Y335139D02*
X297250D01*
X229450Y334779D02*
X297250D01*
X229450Y334419D02*
X297250D01*
X229450Y334059D02*
X297250D01*
X229450Y333699D02*
X297250D01*
X229450Y333339D02*
X297250D01*
X200176Y332979D02*
X297250D01*
X199802Y332619D02*
X297250D01*
X199442Y332259D02*
X297250D01*
X199082Y331899D02*
X297250D01*
X198722Y331539D02*
X297250D01*
X198362Y331179D02*
X297250D01*
X198002Y330819D02*
X297250D01*
X197642Y330459D02*
X297250D01*
X197550Y330099D02*
X297250D01*
X197550Y329739D02*
X297250D01*
X197550Y329379D02*
X297250D01*
X197550Y329019D02*
X297250D01*
X197550Y328659D02*
X297250D01*
X197550Y328299D02*
X297250D01*
X197550Y327939D02*
X297250D01*
X197550Y327579D02*
X297250D01*
X197550Y327219D02*
X297250D01*
X197550Y326859D02*
X297250D01*
X197550Y326499D02*
X297250D01*
X197550Y326139D02*
X297250D01*
X197550Y325779D02*
X297250D01*
X197550Y325419D02*
X297250D01*
X197550Y325059D02*
X297250D01*
X197550Y324699D02*
X297250D01*
X197550Y324339D02*
X297250D01*
X197550Y323979D02*
X297250D01*
X197550Y323619D02*
X297250D01*
X197550Y323259D02*
X297250D01*
X197550Y322899D02*
X297250D01*
X197550Y322539D02*
X297250D01*
X197550Y322179D02*
X297250D01*
X197550Y321819D02*
X297250D01*
X197550Y321459D02*
X297250D01*
X296976Y321099D02*
X297087D01*
X222726D02*
X296824D01*
X223858Y320739D02*
X295692D01*
X224279Y320379D02*
X295271D01*
X224544Y320019D02*
X295006D01*
X205508Y309579D02*
X240600D01*
X205868Y309219D02*
X240600D01*
X206228Y308859D02*
X240600D01*
X206588Y308499D02*
X240600D01*
X206948Y308139D02*
X240600D01*
X207308Y307779D02*
X240600D01*
X207668Y307419D02*
X240600D01*
X208028Y307059D02*
X240600D01*
X208388Y306699D02*
X240600D01*
X208748Y306339D02*
X240600D01*
X209108Y305979D02*
X240600D01*
X209468Y305619D02*
X240600D01*
X209828Y305259D02*
X240600D01*
X210188Y304899D02*
X240600D01*
X210548Y304539D02*
X240600D01*
X210908Y304179D02*
X240600D01*
X211268Y303819D02*
X240600D01*
X211628Y303459D02*
X240600D01*
X211988Y303099D02*
X240600D01*
X212348Y302739D02*
X240600D01*
X212708Y302379D02*
X240600D01*
X213068Y302019D02*
X240600D01*
X213428Y301659D02*
X240600D01*
X213788Y301299D02*
X240600D01*
X214148Y300939D02*
X240600D01*
X214508Y300579D02*
X240600D01*
X214868Y300219D02*
X240600D01*
X215228Y299859D02*
X240600D01*
X215588Y299499D02*
X240600D01*
X215948Y299139D02*
X240600D01*
X216308Y298779D02*
X240600D01*
X216668Y298419D02*
X240600D01*
X217028Y298059D02*
X240600D01*
X197550Y321099D02*
X222574D01*
X197550Y320739D02*
X221442D01*
X197550Y320379D02*
X221021D01*
X197550Y320019D02*
X220756D01*
X197550Y319659D02*
X220504D01*
X197550Y319299D02*
X220250D01*
X197550Y318939D02*
X220250D01*
X197550Y318579D02*
X220250D01*
X197550Y318219D02*
X220250D01*
X197550Y317859D02*
X220250D01*
X197550Y317499D02*
X220250D01*
X197915Y317139D02*
X220250D01*
X198308Y316779D02*
X220250D01*
X198668Y316419D02*
X220250D01*
X199028Y316059D02*
X220250D01*
X199388Y315699D02*
X220250D01*
X199748Y315339D02*
X220250D01*
X200108Y314979D02*
X220250D01*
X200468Y314619D02*
X220250D01*
X200828Y314259D02*
X220250D01*
X201188Y313899D02*
X220250D01*
X201548Y313539D02*
X220250D01*
X201908Y313179D02*
X220250D01*
X202268Y312819D02*
X220250D01*
X202628Y312459D02*
X220250D01*
X202988Y312099D02*
X220250D01*
X203348Y311739D02*
X220250D01*
X203708Y311379D02*
X220250D01*
X204068Y311019D02*
X220250D01*
X204428Y310659D02*
X220250D01*
X204788Y310299D02*
X220250D01*
X205148Y309939D02*
X220250D01*
X200850Y363049D02*
X208150D01*
X200850Y362689D02*
X208150D01*
X200850Y362329D02*
X208150D01*
X200850Y361969D02*
X208150D01*
X200850Y361609D02*
X208150D01*
X200850Y361249D02*
X208150D01*
X200850Y360889D02*
X208150D01*
X200850Y360529D02*
X208150D01*
X200850Y360169D02*
X208150D01*
X200850Y359809D02*
X208150D01*
X200850Y359449D02*
X208150D01*
X200850Y359089D02*
X208150D01*
X200850Y358729D02*
X208150D01*
X200850Y358369D02*
X208150D01*
X200850Y358009D02*
X208150D01*
X200850Y357649D02*
X208150D01*
X200850Y357289D02*
X208150D01*
X200850Y356929D02*
X208150D01*
X200850Y356569D02*
X208150D01*
X200850Y356209D02*
X208150D01*
X200850Y355849D02*
X208150D01*
X200850Y355489D02*
X208150D01*
X200850Y355129D02*
X208150D01*
X200850Y351889D02*
X208150D01*
X200850Y351529D02*
X208150D01*
X200850Y351169D02*
X208150D01*
X200850Y350809D02*
X208150D01*
X200850Y350449D02*
X208150D01*
X200850Y350089D02*
X208150D01*
X200850Y349729D02*
X208150D01*
X200850Y349369D02*
X208150D01*
X200850Y349009D02*
X208150D01*
X200850Y348649D02*
X208150D01*
X200850Y348289D02*
X208150D01*
X200850Y347929D02*
X208150D01*
X200850Y347569D02*
X208150D01*
X200850Y347209D02*
X208150D01*
X200850Y346849D02*
X208150D01*
X200850Y346489D02*
X208150D01*
X200850Y346129D02*
X208150D01*
X200850Y345769D02*
X208150D01*
X200850Y345409D02*
X208150D01*
X200850Y345049D02*
X208150D01*
X200850Y344689D02*
X208150D01*
X200850Y344329D02*
X208150D01*
X200850Y343969D02*
X208150D01*
X200850Y343609D02*
X208150D01*
X200850Y343249D02*
X208150D01*
X200850Y342889D02*
X208150D01*
X200850Y342529D02*
X208150D01*
X200850Y342169D02*
X208150D01*
X200850Y341809D02*
X208150D01*
X200850Y341449D02*
X208150D01*
X200850Y341089D02*
X208150D01*
X200850Y340729D02*
X208150D01*
X200850Y340369D02*
X208150D01*
X200850Y340009D02*
X208150D01*
X200850Y339649D02*
X208150D01*
X200850Y339289D02*
X208150D01*
X200850Y338929D02*
X208150D01*
X200850Y338569D02*
X208150D01*
X200850Y338209D02*
X208150D01*
X200850Y337849D02*
X208150D01*
X200850Y337489D02*
X208150D01*
X200850Y337129D02*
X208150D01*
X200850Y336769D02*
X208150D01*
X200850Y336409D02*
X208150D01*
X200850Y336049D02*
X208150D01*
X200850Y335689D02*
X208150D01*
X200850Y335329D02*
X208150D01*
X200850Y334969D02*
X208150D01*
X200850Y334609D02*
X208150D01*
X200850Y334249D02*
X208150D01*
X200850Y333889D02*
X208150D01*
X200850Y333529D02*
X208150D01*
X200850Y333169D02*
X208150D01*
X200850Y332809D02*
X208150D01*
X200850Y332449D02*
X208150D01*
X200850Y332089D02*
X208150D01*
X200850Y331729D02*
X208150D01*
X200850Y331369D02*
X208150D01*
X200850Y331009D02*
X208150D01*
X200850Y352249D02*
X208127D01*
X200850Y354769D02*
X208085D01*
X200850Y352609D02*
X207966D01*
X200850Y354409D02*
X207937D01*
X200850Y352969D02*
X207862D01*
X200850Y354049D02*
X207846D01*
X200850Y353329D02*
X207809D01*
X200850Y353689D02*
X207803D01*
X327900Y479949D02*
X390750D01*
X327900Y479589D02*
X390750D01*
X327900Y479229D02*
X390750D01*
X327900Y478869D02*
X390750D01*
X327900Y478509D02*
X390750D01*
X327900Y478149D02*
X390750D01*
X327900Y477789D02*
X390750D01*
X327900Y477429D02*
X390750D01*
X327900Y477069D02*
X390750D01*
X327900Y476709D02*
X390750D01*
X327900Y476349D02*
X390750D01*
X327900Y475989D02*
X390750D01*
X327900Y475629D02*
X390750D01*
X327900Y475269D02*
X390750D01*
X327900Y474909D02*
X390750D01*
X327900Y474549D02*
X390750D01*
X327900Y474189D02*
X390750D01*
X327900Y473829D02*
X390750D01*
X327900Y473469D02*
X390750D01*
X327900Y473109D02*
X390750D01*
X327900Y472749D02*
X390750D01*
X327900Y472389D02*
X390750D01*
X327900Y472029D02*
X390750D01*
X327900Y471669D02*
X390750D01*
X327900Y471309D02*
X390750D01*
X327900Y470949D02*
X390750D01*
X327900Y470589D02*
X390750D01*
X327900Y470229D02*
X390750D01*
X327900Y469869D02*
X390750D01*
X327900Y469509D02*
X390750D01*
X327900Y469149D02*
X390750D01*
X327900Y468789D02*
X390750D01*
X327900Y468429D02*
X390750D01*
X327900Y468069D02*
X390750D01*
X327900Y467709D02*
X390750D01*
X327900Y467349D02*
X390750D01*
X327932Y480309D02*
X390718D01*
X327900Y466989D02*
X366056D01*
X327900Y466629D02*
X365696D01*
X327900Y466269D02*
X365336D01*
X327900Y465909D02*
X364976D01*
X327900Y465549D02*
X364616D01*
X327900Y465189D02*
X364256D01*
X327900Y464829D02*
X363896D01*
X327900Y464469D02*
X363536D01*
X327900Y464109D02*
X363176D01*
X327900Y463749D02*
X362816D01*
X327900Y463389D02*
X362456D01*
X327900Y463029D02*
X362096D01*
X327900Y462669D02*
X361736D01*
X327900Y462309D02*
X361376D01*
X426900Y311699D02*
X491501D01*
X426900Y311339D02*
X491501D01*
X426900Y310979D02*
X491501D01*
X426900Y310619D02*
X491501D01*
X426900Y310259D02*
X491501D01*
X426900Y309899D02*
X491501D01*
X426900Y309539D02*
X491501D01*
X426900Y309179D02*
X491501D01*
X426900Y308819D02*
X491501D01*
X426900Y308459D02*
X491501D01*
X426900Y308099D02*
X491501D01*
X426900Y307739D02*
X491501D01*
X426900Y307379D02*
X491501D01*
X426900Y307019D02*
X491501D01*
X426900Y306659D02*
X491501D01*
X426900Y306299D02*
X491501D01*
X426900Y305939D02*
X491501D01*
X426900Y305579D02*
X491501D01*
X426900Y305219D02*
X491501D01*
X426900Y304859D02*
X491501D01*
X426900Y304499D02*
X491501D01*
X426900Y304139D02*
X491501D01*
X426900Y303779D02*
X491501D01*
X426900Y303419D02*
X491501D01*
X426900Y303059D02*
X491501D01*
X426900Y302699D02*
X491501D01*
X426900Y302339D02*
X491501D01*
X426900Y301979D02*
X491501D01*
X426900Y301619D02*
X491501D01*
X426900Y301259D02*
X491501D01*
X426900Y300899D02*
X491501D01*
X426900Y300539D02*
X491501D01*
X426900Y300179D02*
X491501D01*
X426900Y299819D02*
X491501D01*
X426900Y299459D02*
X491501D01*
X426900Y299099D02*
X491501D01*
X426900Y298739D02*
X491501D01*
X426900Y298379D02*
X491501D01*
X426900Y298019D02*
X491501D01*
X430944Y297659D02*
X491501D01*
X459350Y297299D02*
X491501D01*
X459350Y296939D02*
X491501D01*
X459350Y296579D02*
X491501D01*
X459350Y296219D02*
X491501D01*
X459350Y295859D02*
X491501D01*
X459350Y295499D02*
X491501D01*
X459350Y295139D02*
X491501D01*
X459350Y294779D02*
X491501D01*
X459350Y294419D02*
X491501D01*
X459350Y294059D02*
X491501D01*
X459350Y293699D02*
X491501D01*
X459350Y293339D02*
X491501D01*
X459350Y292979D02*
X491501D01*
X459350Y292619D02*
X491501D01*
X459350Y292259D02*
X491501D01*
X459350Y291899D02*
X491501D01*
X459350Y291539D02*
X491501D01*
X459350Y291179D02*
X491501D01*
X459350Y290819D02*
X491501D01*
X459350Y290459D02*
X491501D01*
X459350Y290099D02*
X491501D01*
X459350Y289739D02*
X491501D01*
X459350Y289379D02*
X491501D01*
X459350Y289019D02*
X491501D01*
X459350Y288659D02*
X491501D01*
X459350Y288299D02*
X491501D01*
X459350Y287939D02*
X491501D01*
X459350Y287579D02*
X491501D01*
X459350Y287219D02*
X491501D01*
X459350Y286859D02*
X491501D01*
X459350Y286499D02*
X491501D01*
X459350Y286139D02*
X491501D01*
X459350Y285779D02*
X491501D01*
X459350Y285419D02*
X491501D01*
X459350Y285059D02*
X491501D01*
X459350Y284699D02*
X491501D01*
X459350Y284339D02*
X491501D01*
X459350Y283979D02*
X491501D01*
X459350Y283619D02*
X491501D01*
X459350Y283259D02*
X491501D01*
X459350Y282899D02*
X491501D01*
X459350Y282539D02*
X491501D01*
X459350Y282179D02*
X491501D01*
X459350Y281819D02*
X491501D01*
X459350Y281459D02*
X491501D01*
X459350Y281099D02*
X491501D01*
X459350Y280739D02*
X491501D01*
X459350Y280379D02*
X491501D01*
X459350Y280019D02*
X491501D01*
X459350Y279659D02*
X491501D01*
X459350Y279299D02*
X491501D01*
X459350Y278939D02*
X491501D01*
X459350Y278579D02*
X491501D01*
X459350Y278219D02*
X491501D01*
X459350Y277859D02*
X491501D01*
X459350Y277499D02*
X491501D01*
X459350Y277139D02*
X491501D01*
X459350Y276779D02*
X491501D01*
X459350Y276419D02*
X491501D01*
X459350Y276059D02*
X491501D01*
X459350Y275699D02*
X491501D01*
X459350Y275339D02*
X491501D01*
X459350Y274979D02*
X491501D01*
X459350Y274619D02*
X491501D01*
X459350Y274259D02*
X491501D01*
X459350Y273899D02*
X491501D01*
X459350Y273539D02*
X491501D01*
X459350Y273179D02*
X491501D01*
X459350Y272819D02*
X491501D01*
X459350Y272459D02*
X491501D01*
X459350Y272099D02*
X491501D01*
X459350Y271739D02*
X491501D01*
X459350Y271379D02*
X491501D01*
X459350Y271019D02*
X491501D01*
X459350Y270659D02*
X491501D01*
X459350Y270299D02*
X491501D01*
X459350Y269939D02*
X491501D01*
X459350Y269579D02*
X491501D01*
X459350Y269219D02*
X491501D01*
X459350Y268859D02*
X491501D01*
X459350Y268499D02*
X491501D01*
X459350Y268139D02*
X491501D01*
X459350Y267779D02*
X491501D01*
X459350Y267419D02*
X491501D01*
X459350Y267059D02*
X491501D01*
X459350Y266699D02*
X491501D01*
X459350Y266339D02*
X491501D01*
X459350Y265979D02*
X491501D01*
X459350Y265619D02*
X491501D01*
X459350Y265259D02*
X491501D01*
X459350Y264899D02*
X491501D01*
X459350Y264539D02*
X491501D01*
X459350Y264179D02*
X491501D01*
X459350Y263819D02*
X491501D01*
X459350Y263459D02*
X491501D01*
X459350Y263099D02*
X491501D01*
X459350Y262739D02*
X491501D01*
X459350Y262379D02*
X491501D01*
X459350Y262019D02*
X491501D01*
X459350Y261659D02*
X491501D01*
X459350Y261299D02*
X491501D01*
X459350Y260939D02*
X491501D01*
X459350Y260579D02*
X491501D01*
X459350Y260219D02*
X491501D01*
X459350Y259859D02*
X491501D01*
X459350Y259499D02*
X491501D01*
X459350Y259139D02*
X491501D01*
X459350Y258779D02*
X491501D01*
X459350Y258419D02*
X491501D01*
X459350Y258059D02*
X491501D01*
X459350Y257699D02*
X491501D01*
X459350Y257339D02*
X491501D01*
X459350Y256979D02*
X491501D01*
X459350Y256619D02*
X491501D01*
X459350Y256259D02*
X491501D01*
X459350Y255899D02*
X491501D01*
X459350Y255539D02*
X491501D01*
X459350Y255179D02*
X491501D01*
X459350Y254819D02*
X491501D01*
X459350Y254459D02*
X491501D01*
X459350Y254099D02*
X491501D01*
X459350Y253739D02*
X491501D01*
X459350Y253379D02*
X491501D01*
X459350Y253019D02*
X491501D01*
X459350Y252659D02*
X491501D01*
X459350Y252299D02*
X491501D01*
X459350Y251939D02*
X491501D01*
X459350Y251579D02*
X491501D01*
X459350Y251219D02*
X491501D01*
X459350Y250859D02*
X491501D01*
X459350Y250499D02*
X491501D01*
X459350Y250139D02*
X491501D01*
X459350Y249779D02*
X491501D01*
X459350Y249419D02*
X491501D01*
X459350Y249059D02*
X491501D01*
X459350Y248699D02*
X491501D01*
X459350Y248339D02*
X491501D01*
X459350Y247979D02*
X491501D01*
X459350Y247619D02*
X491501D01*
X459350Y247259D02*
X491501D01*
X459350Y246899D02*
X491501D01*
X459350Y246539D02*
X491501D01*
X459350Y246179D02*
X491501D01*
X459350Y245819D02*
X491501D01*
X459350Y245459D02*
X491501D01*
X459350Y245099D02*
X491501D01*
X459350Y244739D02*
X491501D01*
X459350Y244379D02*
X491501D01*
X459350Y244019D02*
X491501D01*
X459350Y243659D02*
X491501D01*
X459350Y243299D02*
X491501D01*
X459350Y242939D02*
X491501D01*
X459350Y242579D02*
X491501D01*
X459350Y242219D02*
X491501D01*
X459350Y241859D02*
X491501D01*
X459350Y241499D02*
X491501D01*
X459350Y241139D02*
X491501D01*
X459350Y240779D02*
X491501D01*
X459350Y240419D02*
X491501D01*
X459350Y240059D02*
X491501D01*
X459350Y239699D02*
X491501D01*
X459350Y239339D02*
X491501D01*
X459350Y238979D02*
X491501D01*
X459350Y238619D02*
X491501D01*
X459350Y238259D02*
X491501D01*
X459350Y237899D02*
X491501D01*
X459350Y237539D02*
X491501D01*
X459350Y237179D02*
X491501D01*
X459350Y236819D02*
X491501D01*
X459350Y236459D02*
X491501D01*
X459350Y236099D02*
X491501D01*
X459350Y235739D02*
X491501D01*
X459350Y235379D02*
X491501D01*
X459350Y235019D02*
X491501D01*
X459350Y234659D02*
X491501D01*
X459350Y234299D02*
X491501D01*
X459350Y233939D02*
X491501D01*
X459350Y233579D02*
X491501D01*
X459350Y233219D02*
X491501D01*
X459350Y232859D02*
X491501D01*
X459350Y232499D02*
X491501D01*
X459350Y232139D02*
X491501D01*
X459350Y231779D02*
X491501D01*
X459350Y231419D02*
X491501D01*
X459350Y231059D02*
X491501D01*
X459350Y230699D02*
X491501D01*
X459350Y230339D02*
X491501D01*
X459350Y229979D02*
X491501D01*
X459350Y229619D02*
X491501D01*
X459350Y229259D02*
X491501D01*
X459350Y228899D02*
X491501D01*
X459350Y228539D02*
X491501D01*
X459350Y228179D02*
X491501D01*
X459350Y227819D02*
X491501D01*
X459350Y227459D02*
X491501D01*
X459350Y227099D02*
X491501D01*
X459350Y226739D02*
X491501D01*
X459350Y226379D02*
X491501D01*
X459350Y226019D02*
X491501D01*
X459350Y225659D02*
X491501D01*
X459350Y225299D02*
X491501D01*
X459350Y224939D02*
X491501D01*
X459350Y224579D02*
X491501D01*
X459350Y224219D02*
X491501D01*
X459350Y223859D02*
X491501D01*
X459350Y223499D02*
X491501D01*
X459350Y223139D02*
X491501D01*
X459350Y222779D02*
X491501D01*
X459350Y222419D02*
X491501D01*
X459350Y222059D02*
X491501D01*
X459350Y221699D02*
X491501D01*
X459350Y221339D02*
X491501D01*
X459350Y220979D02*
X491501D01*
X459350Y220619D02*
X491501D01*
X459350Y220259D02*
X491501D01*
X459350Y219899D02*
X491501D01*
X459350Y219539D02*
X491501D01*
X459350Y219179D02*
X491501D01*
X459350Y218819D02*
X491501D01*
X459350Y218459D02*
X491501D01*
X459350Y218099D02*
X491501D01*
X459350Y217739D02*
X491501D01*
X459350Y217379D02*
X491501D01*
X459350Y217019D02*
X491501D01*
X459350Y216659D02*
X491501D01*
X459350Y216299D02*
X491501D01*
X459350Y215939D02*
X491501D01*
X459350Y215579D02*
X491501D01*
X459350Y215219D02*
X491501D01*
X459350Y214859D02*
X491501D01*
X459350Y214499D02*
X491501D01*
X459350Y214139D02*
X491501D01*
X459350Y213779D02*
X491501D01*
X459350Y213419D02*
X491501D01*
X459350Y213059D02*
X491501D01*
X459350Y212699D02*
X491501D01*
X459350Y212339D02*
X491501D01*
X459350Y211979D02*
X491501D01*
X459350Y211619D02*
X491501D01*
X459350Y211259D02*
X491501D01*
X459350Y210899D02*
X491501D01*
X459350Y210539D02*
X491501D01*
X459350Y210179D02*
X491501D01*
X459350Y209819D02*
X491501D01*
X459350Y209459D02*
X491501D01*
X459350Y209099D02*
X491501D01*
X459350Y208739D02*
X491501D01*
X459350Y208379D02*
X491501D01*
X459350Y208019D02*
X491501D01*
X459350Y207659D02*
X491501D01*
X459350Y207299D02*
X491501D01*
X459350Y206939D02*
X491501D01*
X459350Y206579D02*
X491501D01*
X459350Y206219D02*
X491501D01*
X459350Y205859D02*
X491501D01*
X459350Y205499D02*
X491501D01*
X459350Y205139D02*
X491501D01*
X459350Y204779D02*
X491501D01*
X459350Y204419D02*
X491501D01*
X459350Y204059D02*
X491501D01*
X459350Y203699D02*
X491501D01*
X459350Y203339D02*
X491501D01*
X459350Y202979D02*
X491501D01*
X459350Y202619D02*
X491501D01*
X459350Y202259D02*
X491501D01*
X459350Y201899D02*
X491501D01*
X459350Y201539D02*
X491501D01*
X459350Y201179D02*
X491501D01*
X459350Y200819D02*
X491501D01*
X459350Y200459D02*
X491501D01*
X459350Y200099D02*
X491501D01*
X459350Y199739D02*
X491501D01*
X459350Y199379D02*
X491501D01*
X459350Y199019D02*
X491501D01*
X459350Y198659D02*
X491501D01*
X459350Y198299D02*
X491501D01*
X459350Y197939D02*
X491501D01*
X459350Y197579D02*
X491501D01*
X459350Y197219D02*
X491501D01*
X459350Y196859D02*
X491501D01*
X459350Y196499D02*
X491501D01*
X459350Y196139D02*
X491501D01*
X459350Y195779D02*
X491501D01*
X459350Y195419D02*
X491501D01*
X459350Y195059D02*
X491501D01*
X459350Y194699D02*
X491501D01*
X459350Y194339D02*
X491501D01*
X459350Y193979D02*
X491501D01*
X459350Y193619D02*
X491501D01*
X459350Y193259D02*
X491501D01*
X459350Y192899D02*
X491501D01*
X459350Y192539D02*
X491501D01*
X459350Y192179D02*
X491501D01*
X459350Y191819D02*
X491501D01*
X459350Y191459D02*
X491501D01*
X459350Y191099D02*
X491501D01*
X459350Y190739D02*
X491501D01*
X459350Y190379D02*
X491501D01*
X459350Y190019D02*
X491501D01*
X459350Y189659D02*
X491501D01*
X459350Y189299D02*
X491501D01*
X459350Y188939D02*
X491501D01*
X459350Y188579D02*
X491501D01*
X459350Y188219D02*
X491501D01*
X459350Y187859D02*
X491501D01*
X459350Y187499D02*
X491501D01*
X459350Y187139D02*
X491501D01*
X459350Y186779D02*
X491501D01*
X459350Y186419D02*
X491501D01*
X459350Y186059D02*
X491501D01*
X459350Y185699D02*
X491501D01*
X459350Y185339D02*
X491501D01*
X459350Y184979D02*
X491501D01*
X459350Y184619D02*
X491501D01*
X459350Y184259D02*
X491501D01*
X459350Y183899D02*
X491501D01*
X459350Y183539D02*
X491501D01*
X459350Y183179D02*
X491501D01*
X459350Y182819D02*
X491501D01*
X459350Y182459D02*
X491501D01*
X459350Y182099D02*
X491501D01*
X459350Y181739D02*
X491501D01*
X459350Y181379D02*
X491501D01*
X459350Y181019D02*
X491501D01*
X459350Y180659D02*
X491501D01*
X459350Y180299D02*
X491501D01*
X459350Y179939D02*
X491501D01*
X459350Y179579D02*
X491501D01*
X459350Y179219D02*
X491501D01*
X459350Y178859D02*
X491501D01*
X459350Y178499D02*
X491501D01*
X459350Y178139D02*
X491501D01*
X459350Y177779D02*
X491501D01*
X459350Y177419D02*
X491501D01*
X459350Y177059D02*
X491501D01*
X459350Y176699D02*
X491501D01*
X459350Y176339D02*
X491501D01*
X459350Y175979D02*
X491501D01*
X459350Y175619D02*
X491501D01*
X459350Y175259D02*
X491501D01*
X459350Y174899D02*
X491501D01*
X459350Y174539D02*
X491501D01*
X459350Y174179D02*
X491501D01*
X459350Y173819D02*
X491501D01*
X459350Y173459D02*
X491501D01*
X459350Y173099D02*
X491501D01*
X459350Y172739D02*
X491501D01*
X459350Y172379D02*
X491501D01*
X459350Y172019D02*
X491501D01*
X459350Y171659D02*
X491501D01*
X459350Y171299D02*
X491501D01*
X459350Y170939D02*
X491501D01*
X459350Y170579D02*
X491501D01*
X459350Y170219D02*
X491501D01*
X459350Y169859D02*
X491501D01*
X426978Y312059D02*
X491422D01*
X100000Y111811D02*
G03X111811Y100000I11811J0D01*
G01X481890*
G03X493701Y111811I-0J11811*
G01Y481890*
G03X481890Y493701I-11811J-0*
G01X111811*
G03X100000Y481890I0J-11811*
G01Y111811*
X183071Y139370D02*
G03X183071I-4331J0D01*
G01X419291D02*
G03X419291I-4330J0D01*
G01X418898Y454331D02*
G03X418898I-3937J0D01*
G01X183071D02*
G03X183071I-4331J0D01*
G54D49*
G01X369500Y111000D02*
X363450Y117050D01*
Y126400*
X369500Y111000D02*
X410750D01*
X430550Y130800*
X365650Y104950D02*
X364000Y106600D01*
Y112100*
X365650Y104950D02*
X415700D01*
X437150Y126400*
X366750Y107700D02*
X412950D01*
X433850Y128600*
X357313Y130250D02*
X358413Y131350D01*
Y134650*
X357313Y130250D02*
X316700D01*
X313950Y133000*
Y198450*
X430550Y130800D02*
Y229800D01*
X426150Y234200*
X178100*
X171500Y240800*
X437150Y126400D02*
Y234200D01*
X430550Y240800*
X185800*
X433850Y128600D02*
Y232550D01*
X428900Y237500*
X182500*
X179200Y240800*
X155550Y219350D02*
Y219658D01*
X152800Y222408*
X138500Y254000D02*
X136850D01*
X135380Y255470*
Y260335*
X134650Y251250D02*
X130262Y255638D01*
Y260335*
X128600Y250700D02*
X127703Y251597D01*
Y260355*
X124442Y254000D02*
X125144D01*
X161050Y281500D02*
X169850Y290300D01*
X309000*
X176450Y281500D02*
X181950Y287000D01*
X309550*
X312850Y290300*
X316700*
X183050Y281500D02*
Y282050D01*
X184700Y283700*
X310650*
X312850Y285900*
X183050Y298000D02*
X168200D01*
X161600Y304600*
X227600Y312300D02*
X298000D01*
X299650Y313950*
Y388750*
X371150Y315050D02*
X437150D01*
X440450Y318350*
Y401863*
X179310Y326744D02*
Y327817D01*
X180300Y328250*
X183050Y353550D02*
Y356155D01*
X123563Y366750D02*
Y370513D01*
X123650Y370600*
X147387Y366750D02*
X146200D01*
Y370600*
X299650Y388750D02*
X298550Y389850D01*
Y396913*
X283613Y410750D02*
X283150Y411213D01*
Y418450*
X455300Y406350D02*
X453100Y408550D01*
X449250*
X455300Y406350D02*
X466850D01*
X473450Y412950*
X456990Y409650D02*
X453690Y412950D01*
X449250*
X456990Y409650D02*
X465200D01*
X470150Y414600*
X440450Y401863D02*
X439350Y402963D01*
X459150Y412950D02*
X455300Y416800D01*
X449250*
X459150Y412950D02*
X464100D01*
X466850Y415700*
X473450Y412950D02*
Y456400D01*
X460800Y469050*
X470150Y414600D02*
Y454750D01*
X459150Y465750*
X466850Y415700D02*
Y453100D01*
X457500Y462450*
X178100Y442650D02*
X181400Y445950D01*
X197350*
X207800Y456400*
X364825*
X369775Y461350*
X407175*
X411575Y465750*
X459150*
X185800Y449250D02*
X195700D01*
X206150Y459700*
X363450*
X368400Y464650*
X406350*
X410750Y469050*
X460800*
X185800Y442650D02*
X199000D01*
X209450Y453100*
X366200*
X371150Y458050*
X408000*
X412400Y462450*
X457500*
G54D53*
X355200Y134100D02*
X358413D01*
Y134650*
X350250Y161137D02*
Y162700D01*
X464650Y151700D02*
X455300D01*
X442100Y164900*
Y235850*
X433300Y244650*
X134650*
X128600Y250700*
X350800Y195150D02*
X345879D01*
X341450Y199579*
Y202213*
X340350Y203313*
X138500Y254000D02*
X316150D01*
X321650Y259500*
Y285900*
X317250Y249600D02*
X325500Y257850D01*
Y290300*
X317250Y249600D02*
X136300D01*
X134650Y251250*
X225950Y336500D02*
X228150Y338700D01*
X234750*
X235300Y339250*
X367387Y340900D02*
X369037Y342550D01*
X373900*
X375550Y344200*
X426063Y418450D02*
Y423487D01*
X423950Y425600*
X421200*
X325500Y483350D02*
X416250D01*
G54D55*
X172292Y332650D03*
X166308D03*
X172292Y321100D03*
X166308D03*
X172292Y355750D03*
X166308D03*
X172292Y338700D03*
X166308D03*
X124442Y254000D03*
X118458D03*
G54D59*
X122584Y283965D03*
X132820Y283964D03*
X135374D03*
X137938D03*
X140497D03*
X143056D03*
X145615D03*
X125144Y260355D03*
X122584Y260335D03*
G54D60*
X125144Y283964D03*
X127703D03*
X130262D03*
X145616Y260335D03*
X143057D03*
X140498D03*
X137939D03*
X135380D03*
X132821D03*
X130262D03*
X127703Y260355D03*
G54D72*
X169300Y114850D03*
Y119250D03*
X214400Y104400D03*
X208350D03*
X202300D03*
X214400Y110450D03*
X208350D03*
X202300D03*
X214400Y117050D03*
X208350D03*
X202300D03*
X222100Y104400D03*
X228150D03*
X234200D03*
X222100Y110450D03*
X228150D03*
X234200D03*
X222100Y117050D03*
X228150D03*
X234200D03*
X241900Y104400D03*
X247950D03*
X254000D03*
X241900Y110450D03*
X247950D03*
X254000D03*
X241900Y116500D03*
X247950D03*
X254000D03*
X261150Y104400D03*
X267200D03*
X273250D03*
X261150Y110450D03*
X267200D03*
X273250D03*
X261150Y116500D03*
X267200D03*
X273250D03*
X169300Y125850D03*
Y129700D03*
X187450Y137400D03*
X191300Y134650D03*
Y140150D03*
X195150Y137400D03*
X214400Y123100D03*
X208350D03*
X202300D03*
X214400Y129700D03*
X208350D03*
X202300D03*
X214400Y136300D03*
X202300D03*
X208350D03*
X222100Y123100D03*
X228150D03*
X234200D03*
X222100Y129700D03*
X228150D03*
X234200D03*
X241900Y123100D03*
X247950D03*
X254000D03*
X241900Y129700D03*
X247950D03*
X254000D03*
X261150D03*
X267200D03*
X273250D03*
X349150Y141250D03*
X369500Y137950D03*
X372800Y134650D03*
Y141800D03*
X366200D03*
Y134650D03*
X190750Y155550D03*
X196800D03*
X187450Y143450D03*
X195150D03*
X214400Y142350D03*
X208350D03*
X202300D03*
X214400Y148950D03*
X208350D03*
X202300D03*
X202850Y155550D03*
X208900D03*
X214950D03*
X306250Y161050D03*
X324950Y161600D03*
X334300D03*
X354100Y146200D03*
X464650Y151700D03*
X190750Y181400D03*
X196800D03*
X190750Y174800D03*
X196800D03*
X190750Y168200D03*
X196800D03*
X190750Y162150D03*
X196800D03*
X202850Y181400D03*
X208900D03*
X214950D03*
X202850Y174800D03*
X208900D03*
X214950D03*
X202850Y168200D03*
X208900D03*
X214950D03*
X202850Y162150D03*
X208900D03*
X214950D03*
X263900Y180300D03*
Y173700D03*
Y167650D03*
X269950D03*
Y173700D03*
Y180300D03*
X276000Y167650D03*
Y173700D03*
Y180300D03*
X282050Y167650D03*
Y173700D03*
Y180300D03*
X288100Y167650D03*
Y173700D03*
Y180300D03*
X294150Y167650D03*
Y173700D03*
Y180300D03*
X300200Y167650D03*
Y173700D03*
Y180300D03*
X306250Y167650D03*
Y173700D03*
Y180300D03*
X324950Y175350D03*
Y168200D03*
X334300Y175350D03*
Y168200D03*
X329900Y178650D03*
Y172050D03*
Y164900D03*
X366200Y167650D03*
X377750Y177000D03*
X371700D03*
X377750Y170950D03*
X371700D03*
X377750Y165450D03*
X371700D03*
X383800Y177000D03*
X389850D03*
X395900D03*
X383800Y170950D03*
X389850D03*
X395900D03*
X383800Y165450D03*
X389850D03*
X395900D03*
X415150Y177000D03*
Y170950D03*
X408550Y165450D03*
Y170950D03*
Y177000D03*
X402500D03*
Y170950D03*
Y165450D03*
X415150D03*
X421200Y177000D03*
Y170950D03*
Y165450D03*
X427250D03*
Y170950D03*
Y177000D03*
X190750Y198450D03*
X196800D03*
X190750Y192400D03*
X196800D03*
X190750Y186900D03*
X196800D03*
X202850Y198450D03*
X208900D03*
X214950D03*
X202850Y192400D03*
X208900D03*
X214950D03*
X202850Y186900D03*
X208900D03*
X214950D03*
X263900D03*
X269950D03*
X276000D03*
X282050D03*
X288100D03*
X294150D03*
X300200D03*
X306250D03*
X324950Y194600D03*
Y188000D03*
Y181950D03*
X334300Y194600D03*
Y188000D03*
Y181950D03*
X329900Y191300D03*
Y184700D03*
X340350Y191300D03*
X345300Y188000D03*
X340350Y184700D03*
X377750Y183050D03*
X371700D03*
X383800D03*
X389850D03*
X395900D03*
X415150D03*
X408550D03*
X402500D03*
X418450Y187450D03*
X421200Y183050D03*
X427250D03*
X424500Y189650D03*
X471800Y183050D03*
Y195150D03*
Y200100D03*
Y189100D03*
X489400Y195150D03*
X480600D03*
X489400Y189100D03*
X480600D03*
Y200100D03*
X489400D03*
Y183050D03*
X480600D03*
X190750Y216050D03*
X196800D03*
X190750Y210550D03*
X196800D03*
X190750Y204500D03*
X196800D03*
X202850Y216050D03*
X208900D03*
X214950D03*
X202850Y210550D03*
X208900D03*
X214950D03*
X202850Y204500D03*
X208900D03*
X214950D03*
X268850Y221000D03*
X274900D03*
X262800D03*
X280950D03*
X287000D03*
X293050D03*
X300200D03*
X306250D03*
X312300D03*
X318350D03*
X357400Y216050D03*
X362350Y210550D03*
X412950Y221000D03*
X426700D03*
X420100D03*
X471800Y205050D03*
Y212200D03*
Y217150D03*
X489400Y205050D03*
X480600D03*
X489400Y212200D03*
X480600D03*
Y217150D03*
X489400D03*
X110450Y227600D03*
X104400D03*
X116500D03*
X107700Y232000D03*
X113750D03*
X110450Y236950D03*
X104400D03*
X116500D03*
X123100Y232550D03*
X135200Y222650D03*
X129150Y232550D03*
X123100Y227600D03*
X129150Y222650D03*
Y227600D03*
X135200Y232550D03*
Y227600D03*
X123100Y222650D03*
X141250Y232550D03*
Y227600D03*
X271600Y225400D03*
X277650D03*
X265550D03*
X274900Y230350D03*
X268850D03*
X262800D03*
X283700Y225400D03*
X289750D03*
X295800D03*
X293050Y230350D03*
X287000D03*
X280950D03*
X318350D03*
X312300D03*
X306250D03*
X300200D03*
X303500Y226500D03*
X309550D03*
X315600D03*
X330450Y230350D03*
X324400D03*
X336500Y223200D03*
X330450D03*
X324400D03*
X335950Y230350D03*
X340900Y227050D03*
X412950Y224850D03*
Y229250D03*
X420100D03*
Y224850D03*
X426700D03*
X471800Y222100D03*
X463000D03*
X471800Y229800D03*
X463000D03*
Y234750D03*
X471800D03*
Y239700D03*
X463000D03*
X489400Y222100D03*
X480600D03*
X489400Y229800D03*
X480600D03*
Y234750D03*
X489400D03*
Y239700D03*
X480600D03*
X116500Y246850D03*
X104400D03*
X110450D03*
X113750Y241900D03*
X107700D03*
X394800Y256200D03*
X388200D03*
X381600D03*
X394800Y250700D03*
X388200D03*
X381600D03*
X412950Y256200D03*
X406900D03*
X400850D03*
X412950Y250700D03*
X406900D03*
X400850D03*
X425600Y256200D03*
X419550D03*
X425600Y250700D03*
X419550D03*
X471800Y247950D03*
X463000D03*
Y252900D03*
X471800D03*
Y257850D03*
X463000D03*
X489400Y247950D03*
X480600D03*
Y252900D03*
X489400D03*
Y257850D03*
X480600D03*
X203400Y262250D03*
X206700Y265550D03*
X199550D03*
X206700Y271600D03*
X199550D03*
X206700Y278200D03*
X199550D03*
X252900Y279850D03*
X245750D03*
X239150D03*
X252900Y274900D03*
X245750D03*
X239150D03*
X252900Y264450D03*
X245750D03*
X239150D03*
X252900Y269950D03*
X245750D03*
X239150D03*
X266650Y279850D03*
X260050D03*
X266650Y274900D03*
X260050D03*
X266650Y264450D03*
X260050D03*
X266650Y269950D03*
X260050D03*
X273800Y279850D03*
Y274900D03*
Y269950D03*
Y264450D03*
X280400D03*
X287550D03*
X294700D03*
X280400Y269950D03*
X287550D03*
X294700D03*
X280400Y274900D03*
X287550D03*
X294700D03*
X280400Y279850D03*
X287550D03*
X294700D03*
X310100Y264450D03*
X316700D03*
X310100Y269950D03*
X316700D03*
X310100Y274900D03*
X316700D03*
X310100Y279850D03*
X316700D03*
X301300Y264450D03*
Y269950D03*
Y274900D03*
Y279850D03*
X329900Y280400D03*
X336500D03*
X329900Y274900D03*
X336500D03*
X329900Y269400D03*
X336500D03*
X329900Y264450D03*
X336500D03*
X349150D03*
Y269400D03*
Y274900D03*
Y280400D03*
X343100D03*
Y274900D03*
Y269400D03*
Y264450D03*
X394800Y279850D03*
X388200D03*
X381600D03*
X394800Y274350D03*
X388200D03*
X381600D03*
X394800Y268300D03*
X388200D03*
X381600D03*
X394800Y262250D03*
X388200D03*
X381600D03*
X412950Y279850D03*
X406900D03*
X400850D03*
X412950Y274350D03*
X406900D03*
X400850D03*
X412950Y268300D03*
X406900D03*
X400850D03*
X412950Y262250D03*
X406900D03*
X400850D03*
X425600Y279850D03*
X419550D03*
X425600Y274350D03*
X419550D03*
X425600Y268300D03*
X419550D03*
X425600Y262250D03*
X419550D03*
X471800Y265550D03*
X463000D03*
Y270500D03*
X471800D03*
Y275450D03*
X463000D03*
X489400Y265550D03*
X480600D03*
Y270500D03*
X489400D03*
Y275450D03*
X480600D03*
X202300Y294150D03*
X205050Y299100D03*
X199550D03*
X238600D03*
X252350D03*
X245200D03*
X266100D03*
X259500D03*
X273250D03*
X294150D03*
X287550D03*
X280400D03*
X300750D03*
X321650Y285900D03*
X325500Y290300D03*
X333200D03*
Y284800D03*
X329900Y300200D03*
X336500D03*
X339800Y290300D03*
Y284800D03*
X349150Y300200D03*
X346400Y284800D03*
Y290300D03*
X343100Y300200D03*
X394800Y299650D03*
X388200D03*
X381600D03*
X394800Y290850D03*
X388200D03*
X381600D03*
X394800Y285350D03*
X388200D03*
X381600D03*
X412950Y299650D03*
X406900D03*
X400850D03*
X412950Y290850D03*
X406900D03*
X400850D03*
X412950Y285350D03*
X406900D03*
X400850D03*
X434400Y299650D03*
X419550D03*
X425600D03*
Y290850D03*
X419550D03*
X425600Y285350D03*
X419550D03*
X450900Y299650D03*
X442650D03*
X463000Y282600D03*
Y287550D03*
Y292500D03*
X471800Y282600D03*
Y287550D03*
Y292500D03*
X475650Y299650D03*
X467400D03*
X459150D03*
X480600Y282600D03*
Y287550D03*
Y292500D03*
X489400Y282600D03*
Y287550D03*
Y292500D03*
X483900Y299650D03*
X199550Y305150D03*
X205050Y314500D03*
X199550Y321650D03*
X205050D03*
X238600Y321100D03*
X231450D03*
X238600Y308450D03*
X245200Y321100D03*
X252350D03*
X255650Y303500D03*
X252350Y308450D03*
X245200D03*
X241900Y303500D03*
X248500D03*
X266100Y321100D03*
X259500D03*
X262800Y303500D03*
X266100Y308450D03*
X259500D03*
X273250D03*
X269400Y303500D03*
X276550D03*
X279850Y308450D03*
X287000D03*
X290300Y303500D03*
X293600Y308450D03*
X283150Y303500D03*
X296900D03*
X300750Y308450D03*
X304050Y303500D03*
X329900Y305700D03*
X336500D03*
X329900Y311750D03*
X336500D03*
X329900Y317800D03*
X336500D03*
X349150Y305700D03*
Y311750D03*
Y317800D03*
X343100Y305700D03*
Y311750D03*
Y317800D03*
X381600Y304600D03*
X388200D03*
X394800D03*
Y309550D03*
X388200D03*
X381600D03*
X406900D03*
Y304600D03*
X400850D03*
Y309550D03*
X412950Y304600D03*
Y309550D03*
X419550Y304600D03*
Y309550D03*
X425600Y304600D03*
Y309550D03*
X434400Y304600D03*
Y309550D03*
X450900Y304600D03*
Y309550D03*
X442650Y304600D03*
Y309550D03*
X475650Y304600D03*
Y309550D03*
X467400Y304600D03*
Y309550D03*
X459150Y304600D03*
Y309550D03*
X483900Y304600D03*
Y309550D03*
X199550Y328250D03*
X205050D03*
X231450Y332100D03*
X238600Y327150D03*
X231450D03*
X238050Y332100D03*
X245200Y327150D03*
X252350D03*
X245200Y332100D03*
X252350D03*
X259500Y327150D03*
X266100D03*
X259500Y335950D03*
X266100D03*
X262800Y332100D03*
X273250Y335950D03*
Y330450D03*
Y324400D03*
X287000Y335950D03*
X280400D03*
X287000Y330450D03*
X280400D03*
X287000Y324400D03*
X280400D03*
X294150D03*
Y330450D03*
Y335950D03*
X333200Y340350D03*
X329900Y329900D03*
X336500D03*
Y335950D03*
X329900D03*
X336500Y323850D03*
X329900D03*
X339800Y340350D03*
X349150Y323850D03*
Y329900D03*
Y335950D03*
X343100Y323850D03*
Y329900D03*
Y335950D03*
X346400Y340350D03*
X377750Y333750D03*
X374450Y338700D03*
Y329350D03*
Y324400D03*
X397000Y333750D03*
X390950D03*
X384350D03*
X393700Y338700D03*
X387650D03*
X381050D03*
Y329350D03*
X387650D03*
X393700D03*
Y324400D03*
X387650D03*
X381050D03*
X415700Y333750D03*
X409100D03*
X403050D03*
X412400Y338700D03*
X405800D03*
X399750D03*
Y329350D03*
X412400D03*
X405800D03*
X412400Y324400D03*
X405800D03*
X399750D03*
X432750D03*
Y329350D03*
Y338700D03*
X426700Y324400D03*
Y329350D03*
X430000Y333750D03*
X426700Y338700D03*
X419550Y324400D03*
Y329350D03*
X422850Y333750D03*
X419550Y338700D03*
X215500Y357400D03*
X210550Y353550D03*
X256200D03*
X294150Y348050D03*
Y342550D03*
X287000D03*
X330450Y359050D03*
Y353000D03*
Y346950D03*
X337050Y359050D03*
Y353000D03*
Y346950D03*
X353550Y357950D03*
X399200Y359600D03*
X416800Y345850D03*
X409650D03*
X403050D03*
X430000D03*
X423950D03*
X244100Y370050D03*
X250700D03*
X257300Y376100D03*
X250700D03*
X244100D03*
X271050D03*
X264450D03*
X337050Y371150D03*
Y377200D03*
X330450Y371150D03*
Y377200D03*
Y365100D03*
X337050D03*
X357950Y362350D03*
X257300Y382150D03*
X250700D03*
X244100D03*
X257300Y388200D03*
X250700D03*
X244100D03*
X257300Y394250D03*
X250700D03*
X244100D03*
X257300Y400300D03*
X250700D03*
X244100D03*
X271050Y382150D03*
X264450D03*
X271050Y388200D03*
X264450D03*
X271050Y394250D03*
X264450D03*
X271050Y400300D03*
X264450D03*
X288650Y387100D03*
X284250Y396450D03*
X337050Y383800D03*
Y389850D03*
Y395900D03*
X330450Y383800D03*
Y389850D03*
Y395900D03*
X431100Y393700D03*
X155000Y409650D03*
X153350Y416800D03*
X147300Y409100D03*
X147850Y416800D03*
X234200Y417350D03*
X257300Y406350D03*
X250700D03*
X244100D03*
X254000Y411850D03*
X247400D03*
X240800D03*
X254000Y417350D03*
X247400D03*
X240800D03*
X271050Y406350D03*
X264450D03*
X260600Y411850D03*
X264450Y420650D03*
X260600Y417350D03*
X298000Y405800D03*
X294700Y409100D03*
X291400Y412950D03*
Y405800D03*
X298000Y412950D03*
X334300Y419000D03*
X337050Y401950D03*
Y408000D03*
Y414050D03*
X330450Y401950D03*
Y408000D03*
Y414050D03*
X340900Y419000D03*
X346950D03*
X343100Y414050D03*
X436600Y416250D03*
X433300Y412950D03*
Y420100D03*
X426700Y402500D03*
X439900Y412950D03*
Y420100D03*
X127500Y434400D03*
Y438800D03*
X147850Y434400D03*
Y438800D03*
X234200Y423950D03*
X247400Y429450D03*
X254000Y434400D03*
Y429450D03*
Y423950D03*
X247400D03*
X240800D03*
X260600Y434400D03*
Y429450D03*
Y423950D03*
X334300Y438800D03*
X330450Y433850D03*
X337050D03*
X334300Y428900D03*
X330450Y423950D03*
X337050D03*
X340900Y438800D03*
X346950D03*
X343100Y433850D03*
X340900Y428900D03*
X346950D03*
X343100Y423950D03*
X330450Y443200D03*
X337050D03*
X343100D03*
X113750Y469050D03*
Y476200D03*
X150050Y469050D03*
Y476200D03*
X330450Y464100D03*
X336500D03*
Y469600D03*
X330450D03*
X336500Y475100D03*
X330450D03*
X342000Y464100D03*
X347500D03*
X342000Y469600D03*
X347500D03*
X342000Y475100D03*
X347500D03*
X353550Y472350D03*
Y478400D03*
X359600Y472350D03*
X365100D03*
X370600D03*
X359600Y478400D03*
X365100D03*
X370600D03*
X377750D03*
Y472350D03*
X383800Y478400D03*
Y472350D03*
X113750Y482800D03*
X150050D03*
X325500Y483350D03*
X336500Y488300D03*
X330450D03*
X342000D03*
X347500D03*
X353550D03*
X359600D03*
X365100D03*
X370600D03*
X377750D03*
X383800D03*
X389300D03*
X394800D03*
X416250Y483350D03*
G54D82*
X346950Y137400D02*
X341450Y142900D01*
Y176450*
X346950Y137400D02*
X351900D01*
X354100Y139600*
X349150Y141250D02*
X345300Y145100D01*
Y174800*
X357400Y143450D02*
X361250D01*
X366750Y148950*
Y153263*
X358500Y151057D02*
X360706Y153263D01*
X366750*
X350250D02*
X355200Y158213D01*
Y161143*
X358500Y164443*
X366750Y161137D02*
X362200D01*
X358894Y164443*
X358500*
X366750Y161137D02*
X366200D01*
Y167650*
X379950Y149500D02*
X379863Y149587D01*
X373900*
X341450Y176450D02*
X357400Y192400D01*
Y203313*
X345300Y174800D02*
X362350Y191850D01*
Y210550*
X348600Y200557D02*
Y201669D01*
X350106*
X352730Y203313*
X357400*
Y211187D02*
X351452D01*
X348600Y214039*
X343202*
X357400Y211187D02*
Y216050D01*
X348600Y213943D02*
Y214039D01*
X343202*
X340350Y211187D02*
X343202Y214039D01*
X217613Y335950D02*
Y340070D01*
X215969Y342694*
Y344200*
X214857*
X277650Y340350D02*
X292500Y355200D01*
Y392050*
X277650Y340350D02*
X242853D01*
X230753Y352450*
X225487*
X359513Y340900D02*
Y345020D01*
X357869Y347644*
Y349150*
X356757*
X214761Y344200D02*
X217613Y347052D01*
Y352450*
X214857Y344200D02*
X214761D01*
X217613Y352450D02*
X216513Y353550D01*
X210550*
X228243Y344200D02*
X227131D01*
Y345706*
X225487Y348330*
Y352450*
X276000Y344200D02*
X288650Y356850D01*
Y387100*
X276000Y344200D02*
X244650D01*
X231450Y357400*
X215500*
X259407Y361250D02*
X259311D01*
Y367198*
X262163Y352450D02*
Y357120D01*
X260519Y359744*
Y361250*
X259407*
X262163Y352450D02*
Y353116D01*
X256200Y353550*
X270037Y352450D02*
Y358494D01*
X272793Y361250*
X270037Y352450D02*
X276000D01*
X283150Y359600*
Y387650*
X288650Y393150*
Y396450*
X356661Y349150D02*
X359513Y352002D01*
Y357400*
X356757Y349150D02*
X356661D01*
X370143D02*
X367387Y351906D01*
Y357400*
X359513D02*
Y357950D01*
X353550*
X399200Y359600D02*
X405163D01*
Y360150*
Y364270*
X403519Y366894*
Y368400*
X402407*
X413037Y360150D02*
Y364270D01*
X414681Y366894*
Y368400*
X415793*
X413037Y360150D02*
X420650D01*
X424500Y364000*
Y394250*
X431100Y400850*
Y404150*
X426150Y354650D02*
X431100Y359600D01*
Y393700*
X426150Y354650D02*
X381050D01*
X373350Y362350*
X357950*
X428350Y350800D02*
X434950Y357400D01*
Y398100*
X428350Y350800D02*
X379400D01*
X372800Y357400*
X367387*
X259311Y367198D02*
X262163Y370050D01*
X402311Y373798D02*
X405163Y376650D01*
X402407Y368400D02*
X402311D01*
Y373798*
G54D124*
X348600Y200557D03*
Y213943D03*
X358500Y151057D03*
Y164443D03*
G54D127*
X228243Y344200D03*
X214857D03*
X272793Y361250D03*
X259407D03*
X370143Y349150D03*
X356757D03*
X415793Y368400D03*
X402407D03*
G54D143*
X106050Y300750D03*
G54D144*
Y290750D03*
Y280750D03*
Y270750D03*
G54D145*
X169300Y125850D02*
Y126487D01*
Y129700*
X318350Y134100D02*
Y202850D01*
X317250Y203950*
X317800Y133550D02*
X318350Y134100D01*
X320000Y134650D02*
Y203400D01*
X320550Y203950*
X321100Y133550D02*
X320000Y134650D01*
X456950Y181950D02*
X455819Y180819D01*
X452031*
X449800Y183050*
Y276550*
X430550Y295800*
X216600*
X196800Y315600*
X187890*
X186790Y316700*
Y320955*
X456950Y178650D02*
X456400Y179200D01*
X450900*
X448150Y181950*
Y275450*
X429450Y294150*
X216050*
X196250Y313950*
X156100Y236950D02*
Y228392D01*
X158850*
X152800D02*
X156100D01*
X158850Y222408D02*
X161908D01*
X162150Y222650*
X122584Y260335D02*
Y266453D01*
X116579Y272458*
X116500*
X124442Y254000D02*
Y254948D01*
X125144Y255650*
Y260355*
X116500Y278442D02*
Y284558D01*
X142900Y281500D02*
Y283809D01*
X142900D02*
X143056Y283964D01*
X142900Y281500D02*
X140497D01*
Y283964*
X145650Y281500D02*
Y283929D01*
X145650D02*
X145615Y283964D01*
X145650Y281500D02*
X143056D01*
Y283964*
X133000Y301300D02*
X131610Y302690D01*
Y312108*
X137938Y283964D02*
Y297988D01*
X141453Y301503*
Y312108*
X135374Y283964D02*
X135547Y284137D01*
X135547D02*
Y312108D01*
X132820Y283964D02*
Y297080D01*
X115950Y313950*
X130262Y283964D02*
Y295788D01*
X113750Y312300*
X127703Y283964D02*
Y294497D01*
X111550Y310650*
X125144Y283964D02*
Y293206D01*
X109350Y309000*
X122584Y283965D02*
X120232D01*
X120232D02*
X119640Y284558D01*
X116500*
X143056Y283964D02*
Y288256D01*
X143450Y288650*
X109350Y309000D02*
Y329090D01*
X115400Y335140*
X122358*
X111550Y310650D02*
Y327671D01*
X117050Y333171*
X122358*
X113750Y312300D02*
Y326484D01*
X116500Y329234*
X122358*
X115950Y313950D02*
Y325500D01*
X117716Y327266*
X122358*
X119800Y315050D02*
Y317250D01*
X119973Y317423*
X122358*
X137516Y312108D02*
Y319566D01*
X141250Y323300*
Y326600*
X139484Y312108D02*
Y317800D01*
X143450Y321766*
Y329350*
X154642Y321360D02*
X147590D01*
X145650Y323300*
Y335400*
X183050Y318350D02*
Y320955D01*
X179310Y309144D02*
X179934D01*
Y310650*
X180300*
X186790Y309144D02*
Y312850D01*
X187890Y313950*
X196250*
X222650Y315600D02*
X223200Y316150D01*
X296350*
X296900Y318900D02*
X295800Y317800D01*
X223750*
X222650Y318900*
X296900Y315600D02*
X296350Y316150D01*
X365650Y318900D02*
X366200D01*
X366750Y319450*
X436050*
X436600Y322200D02*
X435500Y321100D01*
X366750*
X365650Y322200*
X436600Y318900D02*
X436050Y319450D01*
X138500Y335950D02*
Y338700D01*
X139484Y339684*
Y344392*
X131350Y328800D02*
X128947Y331203D01*
X122358*
X147850Y324400D02*
Y331550D01*
X148400Y332100*
X143450Y329350D02*
X142900Y329900D01*
X154642Y323329D02*
X148921D01*
X147850Y324400*
X194600Y333200D02*
X196800Y335400D01*
Y360700*
X194600Y333200D02*
X187890D01*
X186790Y334300*
Y338555*
X183050Y335950D02*
Y338555D01*
X186790Y326744D02*
Y330450D01*
X187890Y331550*
X195150*
X198450Y334850*
Y361250*
X225487Y335950D02*
Y336037D01*
X225950Y336500*
X137516Y344392D02*
Y356734D01*
X136300Y357950*
Y364000*
X135547Y344392D02*
Y355953D01*
X134650Y356850*
Y363537*
X131437Y366750*
X129642Y344392D02*
Y350308D01*
X128600Y351350*
X151700Y359292D02*
Y360700D01*
X146200Y359292D02*
Y360700D01*
X191300Y350800D02*
X192400Y351900D01*
Y359050*
X191300Y350800D02*
X188000D01*
X186790Y352010*
Y356155*
X192400Y359050D02*
X188000Y363450D01*
Y419000*
X194050Y359600D02*
X189400Y364250D01*
Y417900*
X198450Y361250D02*
X194050Y365650D01*
Y415150*
X196800Y360700D02*
X192400Y365100D01*
Y416250*
X179310Y344344D02*
X179750D01*
Y345850*
X186790Y344344D02*
Y348050D01*
X187890Y349150*
X191850*
X194050Y351350*
Y359600*
X136300Y369963D02*
Y379950D01*
X137950Y381600*
X143450*
X134650Y369963D02*
Y379950D01*
X133000Y381600*
X124750*
X136300Y364000D02*
X138245Y365945D01*
X138245D02*
X139513D01*
X139513D02*
Y366750D01*
X131437D02*
X134650Y369963D01*
X139513Y366750D02*
X136300Y369963D01*
X298000Y396450D02*
X298550D01*
Y396913*
X298000Y396450D02*
X298463Y396913D01*
X298550*
X188000Y419000D02*
X203950Y434950D01*
X234750*
X243550Y443750*
Y448150*
X189400Y417900D02*
X204800Y433300D01*
X235630*
X246300Y443970*
Y448700*
X194050Y415150D02*
X207800Y428900D01*
X239700*
X258400Y447600*
X384900*
X387069Y449769*
Y453619*
X388200Y454750*
X192400Y416250D02*
X206700Y430550D01*
X238600*
X257300Y449250*
X383800*
X385450Y450900*
Y454200*
X439350Y402963D02*
Y403050D01*
X243550Y448150D02*
X243000Y448700D01*
X385450Y454200D02*
X384900Y454750D01*
G54D149*
X127673Y344392D03*
X129642D03*
X131610D03*
X133579D03*
X135547D03*
X137516D03*
X139484D03*
X141453D03*
X143421D03*
X145390D03*
X147358D03*
X149327D03*
Y312108D03*
X147358D03*
X145390D03*
X143421D03*
X141453D03*
X139484D03*
X137516D03*
X135547D03*
X133579D03*
X131610D03*
X129642D03*
X127673D03*
G54D150*
X154642Y339077D03*
Y337108D03*
Y335140D03*
Y333171D03*
Y331203D03*
Y329234D03*
Y327266D03*
Y325297D03*
Y323329D03*
Y321360D03*
Y319392D03*
Y317423D03*
X122358D03*
Y319392D03*
Y321360D03*
Y323329D03*
Y325297D03*
Y327266D03*
Y329234D03*
Y331203D03*
Y333171D03*
Y335140D03*
Y337108D03*
Y339077D03*
G54D193*
X179310Y356155D03*
X186790D03*
Y344344D03*
X179310D03*
Y338555D03*
X186790D03*
Y326744D03*
X179310D03*
Y320955D03*
X186790D03*
Y309144D03*
X179310D03*
G54D194*
X183050Y356155D03*
Y338555D03*
Y320955D03*
G74*
X0Y0D02*
M02*
