M48
;FILE_FORMAT=2:4
INCH,LZ
FMAT,2
ICI,OFF
;TYPE=PLATED
T1C.012
T2C.017
T3C.03543
T4C.04724
%
M72
G90
G93X0Y0
T1C.012F0S0
X0111Y01451
X01044Y01451
X0111Y015005
X01044Y015005
X0111Y015555
X01044Y015555
X0111Y01605
X01044Y01605
X01044Y0166
X0111Y0166
X01044Y01715
X0111Y01715
X012475Y018085
X01132Y01814
X012365Y018195
X01165Y0254
X01187Y02573
X01165Y026115
X011705Y02683
X012035Y027545
X01253Y027545
X011705Y02914
X012255Y02914
X012585Y031395
X01198Y031505
X011045Y03343
X01286Y03365
X012365Y03409
X01143Y03464
X01286Y035135
X011045Y03706
X01165Y03706
X012365Y03706
X010495Y037445
X012475Y03816
X01055Y038985
X0111Y03926
X01176Y03926
X012475Y03926
X013245Y03926
X015335Y03926
X014675Y03926
X013905Y03926
X014345Y03816
X01319Y037115
X01396Y037115
X01462Y03706
X015335Y03706
X01517Y03607
X01462Y03607
X01308Y035905
X014015Y035355
X01429Y035025
X014785Y033815
X014125Y033815
X014565Y03354
X01385Y03321
X01484Y03321
X01429Y03299
X013135Y03288
X014125Y03266
X014895Y03189
X01308Y031835
X015335Y03156
X0133Y03013
X01539Y0298
X01407Y02914
X014345Y028865
X013905Y027545
X014455Y027545
X013025Y027545
X013465Y027545
X01539Y02683
X014235Y02683
X013025Y026555
X01528Y02573
X014125Y02089
X015665Y013465
X016215Y013795
X015885Y014015
X016325Y014235
X016325Y01473
X016875Y01473
X01561Y015225
X016875Y015225
X01627Y015225
X01561Y01572
X016875Y01572
X01627Y01572
X01561Y01627
X016875Y01627
X01627Y01627
X01561Y016875
X016875Y016875
X01627Y016875
X016875Y017425
X01561Y017425
X01627Y017425
X015995Y021165
X015555Y021935
X016215Y022265
X01561Y023695
X01792Y02408
X01715Y02408
X016655Y02573
X017645Y02672
X016105Y02672
X01671Y027215
X015445Y027325
X017645Y02815
X015445Y02815
X016105Y02815
X016985Y028425
X017535Y02859
X016105Y028755
X0155Y02892
X01616Y03046
X01737Y033265
X01605Y037115
X01649Y037555
X01649Y038875
X016105Y03926
X01781Y044265
X01858Y044925
X01858Y044265
X01836Y041735
X01814Y041405
X01836Y04102
X018305Y035355
X017975Y034585
X018305Y033595
X01803Y032825
X022265Y03189
X018305Y031835
X022265Y03156
X02276Y03123
X01803Y031065
X018305Y0298
X018305Y02815
X018305Y02672
X01858Y02408
X02353Y033925
X0243Y04487
X02463Y04487
X02485Y046465
X025345Y046465
X026115Y046465
X02661Y046465
X02661Y04685
X026115Y04685
X02485Y04685
X025345Y04685
X02485Y04729
X025345Y04729
X02661Y04729
X026115Y04729
X03156Y0441
X03156Y04344
X030295Y04322
X028755Y04289
X03156Y04278
X029305Y042175
X03156Y04212
X028315Y041845
X03156Y04146
X02826Y04102
X03156Y0408
X0298Y039645
X028865Y039645
X02925Y039205
X02969Y03189
X02969Y03156
X0309Y02903
X03167Y02903
X031285Y02859
X032055Y020395
X031725Y020395
X031395Y019845
X03178Y013355
X03211Y013355
X036675Y01077
X0364Y01121
X037665Y011485
X03706Y011485
X036345Y01264
X03552Y01341
X03541Y01396
X03574Y014345
X037115Y01506
X035025Y01627
X03508Y019515
X037115Y031505
X036565Y03189
X036565Y03222
X037555Y03442
X040195Y047895
X03959Y04784
X039095Y04784
X040195Y047455
X039095Y047345
X03959Y047345
X040195Y047015
X03959Y04685
X039095Y04685
X03882Y045475
X03849Y045475
X037995Y01495
X03882Y014125
X03816Y014015
X03915Y012805
X040085Y011485
X038875Y011485
X03948Y011485
X03827Y011485
X04366Y03189
X04366Y03222
X043495Y03981
X04399Y04036
X04311Y040415
X044925Y040855
X044925Y041295
X044925Y04168
X04245Y04179
X04212Y04256
X043495Y04289
X04311Y043605
X04465Y043935
X040635Y047015
X040635Y047455
X040635Y047895
X0463Y044925
X0463Y044265
X0463Y043605
X0463Y042945
X0463Y042285
X0463Y041625
X045695Y018195
X045695Y017865
X04729Y017645
X04652Y017645
X04773Y017645
X046905Y017645
X04652Y01715
X046905Y01715
X04729Y01715
X04773Y01715
X0474Y016325
X04696Y016325
X04652Y016325
X047785Y016325
X0474Y01594
X04652Y01594
X04696Y01594
X047785Y01594
T2C.017F0S0
X012915Y022265
X01231Y022265
X01165Y02276
X01231Y02276
X011045Y02276
X012915Y02276
X01044Y02276
X01077Y0232
X011375Y0232
X012915Y023255
X01231Y023255
X01165Y023695
X011045Y023695
X01044Y023695
X011375Y02419
X01077Y02419
X011045Y024685
X01165Y024685
X01044Y024685
X01275Y04344
X01275Y04388
X011375Y046905
X011375Y04762
X011375Y04828
X015005Y04828
X015005Y04762
X015005Y046905
X014785Y04388
X014785Y04344
X015335Y04168
X014785Y04168
X0155Y040965
X01473Y04091
X014125Y023255
X01352Y023255
X01352Y02276
X014125Y02276
X01352Y022265
X01693Y01297
X01693Y012585
X01693Y011925
X01693Y011485
X02023Y01044
X02023Y011045
X02023Y011705
X02023Y01231
X02023Y01297
X01913Y013465
X02023Y01363
X018745Y01374
X019515Y01374
X01913Y014015
X02023Y014235
X018745Y014345
X019515Y014345
X02023Y014895
X020285Y015555
X01968Y015555
X019075Y015555
X019075Y016215
X01968Y016215
X020285Y016215
X020285Y01682
X01968Y01682
X019075Y01682
X020285Y01748
X019075Y01748
X01968Y01748
X01968Y01814
X019075Y01814
X020285Y01814
X01968Y01869
X020285Y01869
X019075Y01869
X019075Y01924
X01968Y01924
X020285Y01924
X019075Y019845
X020285Y019845
X01968Y019845
X01968Y02045
X020285Y02045
X019075Y02045
X019075Y021055
X01968Y021055
X020285Y021055
X019075Y021605
X020285Y021605
X01968Y021605
X02034Y026225
X019955Y026555
X019955Y02716
X019955Y02782
X02023Y029415
X019955Y02991
X019955Y030515
X019955Y032165
X019955Y032825
X02155Y03574
X021055Y035355
X020505Y032825
X020505Y032165
X020505Y03145
X020505Y02991
X02067Y02782
X02067Y02716
X02067Y026555
X02089Y021605
X021495Y021605
X02089Y021055
X021495Y021055
X02089Y02045
X021495Y02045
X021495Y019845
X02089Y019845
X02089Y01924
X021495Y01924
X02089Y01869
X021495Y01869
X02089Y01814
X021495Y01814
X021495Y01748
X02089Y01748
X021495Y01682
X02089Y01682
X021495Y016215
X02089Y016215
X02089Y015555
X021495Y015555
X020835Y014895
X02144Y014895
X020835Y014235
X02144Y014235
X020835Y01363
X02144Y01363
X02221Y01297
X02144Y01297
X022815Y01297
X020835Y01297
X020835Y01231
X02144Y01231
X022815Y01231
X02221Y01231
X02221Y011705
X02144Y011705
X020835Y011705
X022815Y011705
X02144Y011045
X020835Y011045
X022815Y011045
X02221Y011045
X02221Y01044
X02144Y01044
X020835Y01044
X022815Y01044
X02342Y01044
X02419Y01044
X024795Y01044
X0254Y01044
X024795Y011045
X0254Y011045
X02342Y011045
X02419Y011045
X024795Y01165
X0254Y01165
X02419Y01165
X02342Y011705
X02342Y01231
X02419Y01231
X024795Y01231
X0254Y01231
X02342Y01297
X024795Y01297
X02419Y01297
X0254Y01297
X023915Y026445
X02529Y026445
X024575Y026445
X023915Y026995
X02529Y026995
X024575Y026995
X024575Y02749
X02529Y02749
X023915Y02749
X024575Y027985
X023915Y027985
X02529Y027985
X025235Y02991
X02452Y02991
X02386Y02991
X02419Y03035
X02485Y03035
X02386Y030845
X025235Y030845
X02452Y030845
X023145Y03211
X025235Y03211
X02386Y03211
X02452Y03211
X023145Y032715
X02452Y032715
X025235Y032715
X02386Y032715
X02452Y03321
X023805Y03321
X023145Y03321
X025235Y03321
X02441Y037005
X02507Y037005
X02507Y03761
X02441Y03761
X02507Y038215
X02441Y038215
X02507Y03882
X02441Y03882
X02441Y039425
X02507Y039425
X02507Y04003
X02441Y04003
X02507Y040635
X02441Y040635
X02408Y041185
X0254Y041185
X02474Y041185
X02408Y041735
X02474Y041735
X0254Y041735
X02342Y041735
X0254Y042395
X02474Y042395
X02408Y042395
X02342Y042395
X0254Y042945
X02474Y042945
X0254Y04344
X02606Y04344
X02606Y042945
X02606Y042395
X026445Y042065
X02606Y041735
X02606Y041185
X02573Y040635
X027105Y040635
X026445Y040635
X02573Y04003
X027105Y04003
X026445Y04003
X02573Y039425
X027105Y039425
X026445Y039425
X02573Y03882
X027105Y03882
X026445Y03882
X02573Y038215
X027105Y038215
X026445Y038215
X02573Y03761
X027105Y03761
X026445Y03761
X02562Y035355
X02595Y033595
X02661Y033595
X027325Y033595
X02628Y03321
X027325Y033045
X02595Y032715
X02661Y032715
X027325Y03244
X02661Y03211
X02595Y03211
X02661Y030845
X02595Y030845
X027325Y030845
X025565Y03035
X02628Y03035
X02694Y03035
X027655Y03035
X02595Y02991
X027325Y02991
X02661Y02991
X02738Y027985
X026005Y027985
X026665Y027985
X02738Y02749
X026665Y02749
X026005Y02749
X02738Y026995
X026005Y026995
X026665Y026995
X026665Y026445
X026005Y026445
X02738Y026445
X02749Y023035
X026885Y023035
X02628Y023035
X02716Y02254
X027765Y02254
X026555Y02254
X02749Y0221
X02628Y0221
X026885Y0221
X026995Y01869
X02639Y01869
X0276Y01869
X02639Y01803
X0276Y01803
X026995Y01803
X0276Y01737
X026995Y01737
X02639Y01737
X0276Y016765
X02639Y016765
X026995Y016765
X02672Y01297
X027325Y01297
X026115Y01297
X027325Y01165
X026115Y01165
X02672Y01165
X026115Y011045
X02672Y011045
X027325Y011045
X02672Y01044
X027325Y01044
X026115Y01044
X02881Y016765
X03002Y016765
X029415Y016765
X028205Y016765
X029415Y01737
X03002Y01737
X02881Y01737
X028205Y01737
X029415Y01803
X03002Y01803
X02881Y01803
X028205Y01803
X028205Y01869
X02881Y01869
X029415Y01869
X03002Y01869
X028095Y0221
X0287Y0221
X029305Y0221
X03002Y0221
X02837Y02254
X028975Y02254
X02958Y02254
X03035Y02265
X029305Y023035
X0287Y023035
X028095Y023035
X03002Y023035
X028755Y026445
X02947Y026445
X03013Y026445
X02804Y026445
X02947Y026995
X02804Y026995
X028755Y026995
X03013Y026995
X02947Y02749
X02804Y02749
X03013Y02749
X028755Y02749
X028755Y027985
X02947Y027985
X03013Y027985
X02804Y027985
X029415Y02991
X028755Y02991
X02804Y02991
X030075Y02991
X02903Y03035
X030405Y03035
X028315Y03035
X02969Y03035
X030075Y030845
X02936Y030845
X027985Y030845
X0287Y030845
X0287Y03244
X029415Y03244
X02804Y03244
X0287Y033045
X02804Y033045
X029415Y033045
X0287Y033595
X02804Y033595
X029415Y033595
X029415Y034255
X0287Y034255
X029415Y034805
X028865Y03871
X028425Y039645
X0298Y04058
X02914Y04058
X02947Y04091
X02914Y041295
X0298Y041295
X03255Y048335
X03255Y02903
X032165Y02859
X03101Y027985
X03167Y027985
X03167Y02749
X03101Y02749
X03167Y026995
X03101Y026995
X03167Y026445
X03101Y026445
X031835Y023035
X03123Y023035
X030625Y023035
X03244Y023035
X030955Y02265
X03156Y02265
X03244Y02232
X030625Y0221
X03123Y0221
X031835Y0221
X032495Y01946
X032495Y0188
X030625Y01869
X032495Y018195
X030625Y01803
X032495Y017535
X030625Y01737
X032495Y01682
X030625Y016765
X032495Y01616
X030625Y016105
X034915Y014125
X03541Y01462
X03343Y01616
X03299Y01649
X03343Y01682
X03299Y017205
X03343Y017535
X03299Y017865
X03343Y018195
X03299Y01847
X034035Y01847
X03343Y0188
X03453Y0188
X03299Y01913
X034035Y01913
X03343Y01946
X03365Y02232
X033045Y02232
X03409Y022705
X033045Y023035
X033595Y023035
X034915Y026445
X03431Y026445
X03365Y026445
X03299Y026445
X034915Y02694
X03299Y02694
X03365Y02694
X03431Y02694
X03431Y02749
X034915Y02749
X03299Y02749
X03365Y02749
X03431Y02804
X034915Y02804
X03299Y02804
X03365Y02804
X03332Y02848
X03398Y02848
X03464Y02848
X03398Y02903
X03332Y02903
X03464Y02903
X03365Y03002
X03299Y03002
X03431Y03002
X034915Y03002
X03299Y03057
X03365Y03057
X03431Y03057
X034915Y03057
X034915Y031175
X03365Y031175
X03431Y031175
X03299Y031175
X03431Y03178
X034915Y03178
X03299Y03178
X03365Y03178
X03365Y032385
X03299Y032385
X03431Y032385
X034915Y032385
X03365Y03299
X034915Y03299
X03299Y03299
X03431Y03299
X03365Y033595
X034915Y033595
X03431Y033595
X03299Y033595
X03464Y034035
X03398Y034035
X03332Y034035
X033045Y034695
X033705Y034695
X033705Y0353
X033045Y0353
X035355Y035795
X033705Y035905
X033045Y035905
X033705Y03651
X033045Y03651
X033705Y037115
X033045Y037115
X033045Y03772
X033705Y03772
X033705Y03838
X033045Y03838
X033045Y038985
X033705Y038985
X033045Y03959
X033705Y03959
X033045Y040195
X033705Y040195
X033045Y0408
X033705Y0408
X03431Y041405
X033705Y041405
X033045Y041405
X034695Y0419
X03409Y0419
X03343Y0419
X033045Y042395
X033705Y042395
X03431Y042395
X03409Y04289
X034695Y04289
X03343Y04289
X03431Y043385
X033045Y043385
X033705Y043385
X034695Y04388
X03409Y04388
X03343Y04388
X033705Y04432
X03431Y04432
X033045Y04432
X03365Y04641
X0342Y04641
X03475Y04641
X033045Y04641
X03365Y04696
X033045Y04696
X0342Y04696
X03475Y04696
X035355Y047235
X0342Y04751
X03475Y04751
X033045Y04751
X03365Y04751
X035355Y04784
X03365Y04883
X033045Y04883
X0342Y04883
X03475Y04883
X035355Y04883
X03596Y04883
X03651Y04883
X03706Y04883
X037775Y04883
X03596Y04784
X03651Y04784
X03706Y04784
X037775Y04784
X03596Y047235
X03651Y047235
X03706Y047235
X037775Y047235
X035795Y036235
X037445Y03387
X037775Y033375
X037445Y032935
X037445Y03244
X03574Y021605
X036235Y021055
X03717Y018305
X037775Y018305
X037775Y0177
X03717Y0177
X037775Y017095
X03717Y017095
X03662Y016765
X037775Y016545
X03717Y016545
X03662Y01418
X03728Y01418
X03695Y013795
X03728Y013465
X03662Y013465
X04025Y016545
X03838Y016545
X038985Y016545
X03959Y016545
X03838Y017095
X038985Y017095
X04025Y017095
X03959Y017095
X03838Y0177
X038985Y0177
X03959Y0177
X04025Y0177
X03838Y018305
X038985Y018305
X03959Y018305
X04025Y018305
X040085Y02507
X03948Y02507
X03882Y02507
X03816Y02507
X03948Y02562
X03882Y02562
X03816Y02562
X040085Y02562
X03816Y026225
X03948Y026225
X03882Y026225
X040085Y026225
X03948Y02683
X03882Y02683
X03816Y02683
X040085Y02683
X03948Y027435
X03882Y027435
X03816Y027435
X040085Y027435
X03948Y027985
X03882Y027985
X040085Y027985
X03816Y027985
X03948Y028535
X03882Y028535
X03816Y028535
X040085Y028535
X03948Y029085
X03882Y029085
X03816Y029085
X040085Y029085
X03948Y029965
X03882Y029965
X03816Y029965
X040085Y029965
X040085Y03046
X03816Y03046
X03882Y03046
X03948Y03046
X040085Y030955
X03948Y030955
X03882Y030955
X03816Y030955
X038765Y03244
X039975Y03244
X038105Y03244
X03937Y03244
X039975Y032935
X038105Y032935
X03937Y032935
X038765Y032935
X0397Y033375
X040305Y033375
X039095Y033375
X038435Y033375
X039975Y03387
X038105Y03387
X038765Y03387
X03937Y03387
X040305Y034585
X03992Y03596
X03838Y047235
X03838Y04784
X03838Y04883
X03893Y04883
X03948Y04883
X041625Y048335
X04267Y04025
X04168Y034585
X040965Y034585
X042395Y034585
X04267Y03387
X041955Y03387
X04058Y03387
X04124Y03387
X042285Y033375
X04157Y033375
X04091Y033375
X04124Y032935
X04058Y032935
X04267Y032935
X041955Y032935
X04267Y03244
X04124Y03244
X041955Y03244
X04058Y03244
X041295Y030955
X041955Y030955
X04256Y030955
X04069Y030955
X041295Y03046
X041955Y03046
X04256Y03046
X04069Y03046
X041295Y029965
X04069Y029965
X041955Y029965
X04256Y029965
X041295Y029085
X04069Y029085
X04256Y029085
X041955Y029085
X041295Y028535
X04069Y028535
X04256Y028535
X041955Y028535
X041955Y027985
X04069Y027985
X041295Y027985
X04256Y027985
X04069Y027435
X041955Y027435
X041295Y027435
X04256Y027435
X04256Y02683
X041955Y02683
X041295Y02683
X04069Y02683
X04256Y026225
X041955Y026225
X041295Y026225
X04069Y026225
X04256Y02562
X041295Y02562
X041955Y02562
X04069Y02562
X041955Y02507
X041295Y02507
X04069Y02507
X04256Y02507
X041295Y022925
X04201Y022925
X041295Y022485
X04201Y022485
X04267Y022485
X04267Y0221
X04201Y0221
X041295Y0221
X04245Y018965
X041845Y018745
X040855Y018305
X04212Y018305
X041515Y018305
X042725Y018305
X042725Y0177
X040855Y0177
X04212Y0177
X041515Y0177
X041515Y017095
X040855Y017095
X042725Y017095
X04212Y017095
X042725Y016545
X040855Y016545
X041515Y016545
X04212Y016545
X04344Y029965
X04509Y029965
X044265Y029965
X04344Y03046
X04509Y03046
X044265Y03046
X04344Y030955
X04509Y030955
X044265Y030955
X043275Y03244
X043275Y032935
X043Y033375
X043275Y03387
X043Y034585
X04311Y03937
X04333Y041295
X04399Y041295
X04366Y041625
X04333Y04201
X04399Y04201
X045915Y030955
X047565Y030955
X04674Y030955
X045915Y03046
X047565Y03046
X04674Y03046
X047565Y029965
X04674Y029965
X045915Y029965
X0463Y02925
X04718Y02925
X0463Y028755
X04718Y028755
X04718Y02826
X0463Y02826
X04718Y027545
X0463Y027545
X0463Y02705
X04718Y02705
X04718Y026555
X0463Y026555
X0463Y025785
X04718Y025785
X0463Y02529
X04718Y02529
X04718Y024795
X0463Y024795
X04718Y02397
X0463Y02397
X0463Y023475
X04718Y023475
X04718Y02298
X0463Y02298
X04718Y02221
X0463Y02221
X04718Y021715
X04718Y02122
X04718Y020505
X04718Y02001
X04718Y019515
X04718Y01891
X04718Y018305
X046465Y01517
X04894Y018305
X04806Y018305
X04894Y01891
X04806Y01891
X04894Y019515
X04806Y019515
X04806Y02001
X04894Y02001
X04894Y020505
X04806Y020505
X04894Y02122
X04806Y02122
X04806Y021715
X04894Y021715
X04894Y02221
X04806Y02221
X04806Y02298
X04894Y02298
X04894Y023475
X04806Y023475
X04806Y02397
X04894Y02397
X04806Y024795
X04894Y024795
X04806Y02529
X04894Y02529
X04806Y025785
X04894Y025785
X04894Y026555
X04806Y026555
X04894Y02705
X04806Y02705
X04894Y027545
X04806Y027545
X04894Y02826
X04806Y02826
X04806Y028755
X04894Y028755
X04806Y02925
X04894Y02925
X04839Y029965
X04839Y03046
X04839Y030955
T3C.03543F0S0
X010605Y027075
X010605Y028075
X010605Y029075
X010605Y030075
T4C.04724F0S0
X02861Y01231
X02661Y01231
M30
