*
*
G04 PADS VX.2.4 Build Number: 11282995 generated Gerber (RS-274-X) file*
G04 PC Version=2.1*
*
%IN "SE_13.pcb"*%
*
%MOIN*%
*
%FSLAX35Y35*%
*
*
*
*
G04 PC Standard Apertures*
*
*
G04 Thermal Relief Aperture macro.*
%AMTER*
1,1,$1,0,0*
1,0,$1-$2,0,0*
21,0,$3,$4,0,0,45*
21,0,$3,$4,0,0,135*
%
*
*
G04 Annular Aperture macro.*
%AMANN*
1,1,$1,0,0*
1,0,$2,0,0*
%
*
*
G04 Odd Aperture macro.*
%AMODD*
1,1,$1,0,0*
1,0,$1-0.005,0,0*
%
*
*
G04 PC Custom Aperture Macros*
*
*
*
*
*
*
G04 PC Aperture Table*
*
%ADD010C,0.001*%
%ADD024C,0.01*%
%ADD028C,0.004*%
%ADD050C,0.00591*%
%ADD051C,0.00787*%
%ADD114C,0.005*%
%ADD115C,0.00591*%
%ADD191C,0.02362*%
%ADD192C,0.00984*%
*
*
*
*
G04 PC Circuitry*
G04 Layer Name SE_13.pcb - circuitry*
%LPD*%
*
*
G04 PC Custom Flashes*
G04 Layer Name SE_13.pcb - flashes*
%LPD*%
*
*
G04 PC Circuitry*
G04 Layer Name SE_13.pcb - circuitry*
%LPD*%
*
G54D10*
G54D24*
G01X177050Y356249D02*
G75*
G03X177050I-500J0D01*
G01X189152Y353793D02*
Y346706D01*
X181475D02*
X184625D01*
X176948Y353793D02*
Y346706D01*
X177050Y338649D02*
G03X177050I-500J0D01*
G01X189152Y336193D02*
Y329106D01*
X181475D02*
X184625D01*
X176948Y336193D02*
Y329106D01*
X177050Y321049D02*
G03X177050I-500J0D01*
G01X189152Y318593D02*
Y311506D01*
X181475D02*
X184625D01*
X176948Y318593D02*
Y311506D01*
X223550Y344200D02*
X219550Y345800D01*
Y342600*
X223550Y344200*
X227455Y348137D02*
X215645D01*
X227455Y340263D02*
X215645D01*
X223550Y342200D02*
Y346200D01*
X224550Y344200D02*
X218550D01*
X268100Y361250D02*
X264100Y362850D01*
Y359650*
X268100Y361250*
X272005Y365187D02*
X260195D01*
X272005Y357313D02*
X260195D01*
X268100Y359250D02*
Y363250D01*
X269100Y361250D02*
X263100D01*
X365450Y349150D02*
X361450Y350750D01*
Y347550*
X365450Y349150*
X369355Y353087D02*
X357545D01*
X369355Y345213D02*
X357545D01*
X365450Y347150D02*
Y351150D01*
X366450Y349150D02*
X360450D01*
X411100Y368400D02*
X407100Y370000D01*
Y366800*
X411100Y368400*
X415005Y372337D02*
X403195D01*
X415005Y364463D02*
X403195D01*
X411100Y366400D02*
Y370400D01*
X412100Y368400D02*
X406100D01*
X348600Y205250D02*
X350200Y209250D01*
X347000*
X348600Y205250*
X352537Y201345D02*
Y213155D01*
X344663Y201345D02*
Y213155D01*
X346600Y205250D02*
X350600D01*
X348600Y204250D02*
Y210250D01*
X358500Y155750D02*
X360100Y159750D01*
X356900*
X358500Y155750*
X362437Y151845D02*
Y163655D01*
X354563Y151845D02*
Y163655D01*
X356500Y155750D02*
X360500D01*
X358500Y154750D02*
Y160750D01*
X119746Y284945D02*
G03X119746I-1000J0D01*
G01X121108Y280437D02*
X121106D01*
X121108Y274512*
X121109Y269788D02*
G03Y274512I-224J2362D01*
G01X121108Y269788D02*
Y263863D01*
X147094Y280437D02*
X147092D01*
Y263863*
G54D28*
X100000Y111811D02*
G03X111811Y100000I11811J0D01*
G01X481890*
G03X493701Y111811I-0J11811*
G01Y481890*
G03X481890Y493701I-11811J-0*
G01X111811*
G03X100000Y481890I0J-11811*
G01Y111811*
X183071Y139370D02*
G03X183071I-4331J0D01*
G01X419291D02*
G03X419291I-4330J0D01*
G01X418898Y454331D02*
G03X418898I-3937J0D01*
G01X183071D02*
G03X183071I-4331J0D01*
G54D50*
G01X129665Y369900D02*
X134587D01*
Y363600*
X129665*
X125335Y369900D02*
X120413D01*
Y363600*
X125335*
X147885Y412550D02*
X142963D01*
Y418850*
X147885*
X152215Y412550D02*
X157137D01*
Y418850*
X152215*
X151000Y430585D02*
Y425663D01*
X144700*
Y430585*
X151000Y434915D02*
Y439837D01*
X144700*
Y434915*
X130650Y430585D02*
Y425663D01*
X124350*
Y430585*
X130650Y434915D02*
Y439837D01*
X124350*
Y434915*
X119256Y261578D02*
Y257602D01*
X113744*
Y261578*
X119256Y265122D02*
Y269098D01*
X113744*
Y265122*
X166150Y124715D02*
Y129637D01*
X172450*
Y124715*
X166150Y120385D02*
Y115463D01*
X172450*
Y120385*
X167528Y329894D02*
X163552D01*
Y335406*
X167528*
X171072Y329894D02*
X175048D01*
Y335406*
X171072*
X148956Y354528D02*
Y350552D01*
X143444*
Y354528*
X148956Y358072D02*
Y362048D01*
X143444*
Y358072*
X154456Y354528D02*
Y350552D01*
X148944*
Y354528*
X154456Y358072D02*
Y362048D01*
X148944*
Y358072*
X343500Y214337D02*
Y200163D01*
X337200*
Y214337*
X343500*
X356363Y344050D02*
X370537D01*
Y337750*
X356363*
Y344050*
X370750Y147815D02*
Y152737D01*
X377050*
Y147815*
X370750Y143485D02*
Y138563D01*
X377050*
Y143485*
X353400Y164287D02*
Y150113D01*
X347100*
Y164287*
X353400*
X228637Y349300D02*
X214463D01*
Y355600*
X228637*
Y349300*
X214463Y339100D02*
X228637D01*
Y332800*
X214463*
Y339100*
X273187Y349300D02*
X259013D01*
Y355600*
X273187*
Y349300*
Y366900D02*
X259013D01*
Y373200*
X273187*
Y366900*
X285385Y407600D02*
X280463D01*
Y413900*
X285385*
X289715Y407600D02*
X294637D01*
Y413900*
X289715*
X301700Y398685D02*
Y393763D01*
X295400*
Y398685*
X301700Y403015D02*
Y407937D01*
X295400*
Y403015*
X370537Y354250D02*
X356363D01*
Y360550*
X370537*
Y354250*
X416187Y357000D02*
X402013D01*
Y363300*
X416187*
Y357000*
Y373500D02*
X402013D01*
Y379800*
X416187*
Y373500*
X427835Y415300D02*
X422913D01*
Y421600*
X427835*
X432165Y415300D02*
X437087D01*
Y421600*
X432165*
X442500Y404735D02*
Y399813D01*
X436200*
Y404735*
X442500Y409065D02*
Y413987D01*
X436200*
Y409065*
X354250Y200163D02*
Y214337D01*
X360550*
Y200163*
X354250*
X363600Y150113D02*
Y164287D01*
X369900*
Y150113*
X363600*
X360185Y131500D02*
X355263D01*
Y137800*
X360185*
X364515Y131500D02*
X369437D01*
Y137800*
X364515*
X119678Y251244D02*
X115702D01*
Y256756*
X119678*
X123222Y251244D02*
X127198D01*
Y256756*
X123222*
X141285Y363600D02*
X136363D01*
Y369900*
X141285*
X145615Y363600D02*
X150537D01*
Y369900*
X145615*
X120865Y184550D02*
X125787D01*
Y178250*
X120865*
X116535Y184550D02*
X111613D01*
Y178250*
X116535*
X155556Y223628D02*
Y219652D01*
X150044*
Y223628*
X155556Y227172D02*
Y231148D01*
X150044*
Y227172*
G54D51*
X148933Y338683D02*
Y317817D01*
X128067*
Y338683*
X148933*
G54D114*
X130041Y375492D02*
X130155Y375773D01*
X130382Y376055*
X130609Y376195*
X131064*
X131291Y376055*
X131518Y375773*
X131632Y375492*
X131745Y375070*
Y374367*
X131632Y373945*
X131518Y373664*
X131291Y373383*
X131064Y373242*
X130609*
X130382Y373383*
X130155Y373664*
X130041Y373945*
X129018Y375633D02*
X128791Y375773D01*
X128450Y376195*
Y373242*
X126745Y376195D02*
X127086Y376055D01*
X127314Y375633*
X127427Y374930*
Y374508*
X127314Y373805*
X127086Y373383*
X126745Y373242*
X126518*
X126177Y373383*
X125950Y373805*
X125836Y374508*
Y374930*
X125950Y375633*
X126177Y376055*
X126518Y376195*
X126745*
X123336D02*
X124473D01*
X124586Y374930*
X124473Y375070*
X124132Y375211*
X123791*
X123450Y375070*
X123223Y374789*
X123109Y374367*
X123223Y374086*
X123336Y373664*
X123564Y373383*
X123905Y373242*
X124245*
X124586Y373383*
X124700Y373523*
X124814Y373805*
X152034Y410142D02*
X152148Y410423D01*
X152375Y410705*
X152602Y410845*
X153057*
X153284Y410705*
X153511Y410423*
X153625Y410142*
X153739Y409720*
Y409017*
X153625Y408595*
X153511Y408314*
X153284Y408033*
X153057Y407892*
X152602*
X152375Y408033*
X152148Y408314*
X152034Y408595*
X151011Y410283D02*
X150784Y410423D01*
X150443Y410845*
Y407892*
X149193Y410845D02*
X147943D01*
X148625Y409720*
X148284*
X148057Y409580*
X147943Y409439*
X147830Y409017*
Y408736*
X147943Y408314*
X148170Y408033*
X148511Y407892*
X148852*
X149193Y408033*
X149307Y408173*
X149420Y408455*
X146693Y410142D02*
Y410283D01*
X146580Y410564*
X146466Y410705*
X146239Y410845*
X145784*
X145557Y410705*
X145443Y410564*
X145330Y410283*
Y410002*
X145443Y409720*
X145670Y409298*
X146807Y407892*
X145216*
X154942Y428673D02*
X155223Y428559D01*
X155505Y428332*
X155645Y428105*
Y427650*
X155505Y427423*
X155223Y427195*
X154942Y427082*
X154520Y426968*
X153817*
X153395Y427082*
X153114Y427195*
X152833Y427423*
X152692Y427650*
Y428105*
X152833Y428332*
X153114Y428559*
X153395Y428673*
X155083Y429695D02*
X155223Y429923D01*
X155645Y430264*
X152692*
X155645Y431514D02*
Y432764D01*
X154520Y432082*
Y432423*
X154380Y432650*
X154239Y432764*
X153817Y432877*
X153536*
X153114Y432764*
X152833Y432536*
X152692Y432195*
Y431855*
X152833Y431514*
X152973Y431400*
X153255Y431286*
X154661Y435377D02*
X154239Y435264D01*
X153958Y435036*
X153817Y434695*
Y434582*
X153958Y434241*
X154239Y434014*
X154661Y433900*
X154802*
X155223Y434014*
X155505Y434241*
X155645Y434582*
Y434695*
X155505Y435036*
X155223Y435264*
X154661Y435377*
X153958*
X153255Y435264*
X152833Y435036*
X152692Y434695*
Y434468*
X152833Y434127*
X153114Y434014*
X121942Y428616D02*
X122223Y428502D01*
X122505Y428275*
X122645Y428048*
Y427593*
X122505Y427366*
X122223Y427139*
X121942Y427025*
X121520Y426911*
X120817*
X120395Y427025*
X120114Y427139*
X119833Y427366*
X119692Y427593*
Y428048*
X119833Y428275*
X120114Y428502*
X120395Y428616*
X122083Y429639D02*
X122223Y429866D01*
X122645Y430207*
X119692*
X122645Y431457D02*
Y432707D01*
X121520Y432025*
Y432366*
X121380Y432593*
X121239Y432707*
X120817Y432820*
X120536*
X120114Y432707*
X119833Y432480*
X119692Y432139*
Y431798*
X119833Y431457*
X119973Y431343*
X120255Y431230*
X122645Y434411D02*
X122505Y434070D01*
X122223Y433957*
X121942*
X121661Y434070*
X121520Y434298*
X121380Y434752*
X121239Y435093*
X120958Y435320*
X120677Y435434*
X120255*
X119973Y435320*
X119833Y435207*
X119692Y434866*
Y434411*
X119833Y434070*
X119973Y433957*
X120255Y433843*
X120677*
X120958Y433957*
X121239Y434184*
X121380Y434525*
X121520Y434980*
X121661Y435207*
X121942Y435320*
X122223*
X122505Y435207*
X122645Y434866*
Y434411*
X110942Y260316D02*
X111223Y260202D01*
X111505Y259975*
X111645Y259748*
Y259293*
X111505Y259066*
X111223Y258839*
X110942Y258725*
X110520Y258611*
X109817*
X109395Y258725*
X109114Y258839*
X108833Y259066*
X108692Y259293*
Y259748*
X108833Y259975*
X109114Y260202*
X109395Y260316*
X111083Y261339D02*
X111223Y261566D01*
X111645Y261907*
X108692*
X111645Y263157D02*
Y264407D01*
X110520Y263725*
Y264066*
X110380Y264293*
X110239Y264407*
X109817Y264520*
X109536*
X109114Y264407*
X108833Y264180*
X108692Y263839*
Y263498*
X108833Y263157*
X108973Y263043*
X109255Y262930*
X111645Y267134D02*
X108692Y265998D01*
X111645Y265543D02*
Y267134D01*
X117695Y294720D02*
X114742D01*
X117695D02*
Y295743D01*
X117555Y296084*
X117414Y296198*
X117133Y296311*
X116852*
X116570Y296198*
X116430Y296084*
X116289Y295743*
Y294720*
Y295516D02*
X114742Y296311D01*
X116711Y298811D02*
X116289Y298698D01*
X116008Y298470*
X115867Y298130*
Y298016*
X116008Y297675*
X116289Y297448*
X116711Y297334*
X116852*
X117273Y297448*
X117555Y297675*
X117695Y298016*
Y298130*
X117555Y298470*
X117273Y298698*
X116711Y298811*
X116008*
X115305Y298698*
X114883Y298470*
X114742Y298130*
Y297902*
X114883Y297561*
X115164Y297448*
X116992Y299948D02*
X117133D01*
X117414Y300061*
X117555Y300175*
X117695Y300402*
Y300857*
X117555Y301084*
X117414Y301198*
X117133Y301311*
X116852*
X116570Y301198*
X116148Y300970*
X114742Y299834*
Y301425*
X115305Y268280D02*
X118258D01*
X115305D02*
Y267257D01*
X115445Y266916*
X115586Y266802*
X115867Y266689*
X116148*
X116430Y266802*
X116570Y266916*
X116711Y267257*
Y268280*
Y267484D02*
X118258Y266689D01*
X116289Y264189D02*
X116711Y264302D01*
X116992Y264530*
X117133Y264870*
Y264984*
X116992Y265325*
X116711Y265552*
X116289Y265666*
X116148*
X115727Y265552*
X115445Y265325*
X115305Y264984*
Y264870*
X115445Y264530*
X115727Y264302*
X116289Y264189*
X116992*
X117695Y264302*
X118117Y264530*
X118258Y264870*
Y265098*
X118117Y265439*
X117836Y265552*
X115305Y262939D02*
Y261689D01*
X116430Y262370*
Y262030*
X116570Y261802*
X116711Y261689*
X117133Y261575*
X117414*
X117836Y261689*
X118117Y261916*
X118258Y262257*
Y262598*
X118117Y262939*
X117977Y263052*
X117695Y263166*
X185427Y116405D02*
Y119358D01*
Y116405D02*
X186450D01*
X186791Y116545*
X186905Y116686*
X187018Y116967*
Y117248*
X186905Y117530*
X186791Y117670*
X186450Y117811*
X185427*
X186223D02*
X187018Y119358D01*
X189405Y116827D02*
X189291Y116545D01*
X188950Y116405*
X188723*
X188382Y116545*
X188155Y116967*
X188041Y117670*
Y118373*
X188155Y118936*
X188382Y119217*
X188723Y119358*
X188836*
X189177Y119217*
X189405Y118936*
X189518Y118514*
Y118373*
X189405Y117952*
X189177Y117670*
X188836Y117530*
X188723*
X188382Y117670*
X188155Y117952*
X188041Y118373*
X169792Y106832D02*
X170073Y106718D01*
X170355Y106491*
X170495Y106264*
Y105809*
X170355Y105582*
X170073Y105355*
X169792Y105241*
X169370Y105127*
X168667*
X168245Y105241*
X167964Y105355*
X167683Y105582*
X167542Y105809*
Y106264*
X167683Y106491*
X167964Y106718*
X168245Y106832*
X170495Y108082D02*
Y109332D01*
X169370Y108650*
Y108991*
X169230Y109218*
X169089Y109332*
X168667Y109445*
X168386*
X167964Y109332*
X167683Y109105*
X167542Y108764*
Y108423*
X167683Y108082*
X167823Y107968*
X168105Y107855*
X170495Y110695D02*
Y111945D01*
X169370Y111264*
Y111605*
X169230Y111832*
X169089Y111945*
X168667Y112059*
X168386*
X167964Y111945*
X167683Y111718*
X167542Y111377*
Y111036*
X167683Y110695*
X167823Y110582*
X168105Y110468*
X177492Y106282D02*
X177773Y106168D01*
X178055Y105941*
X178195Y105714*
Y105259*
X178055Y105032*
X177773Y104805*
X177492Y104691*
X177070Y104577*
X176367*
X175945Y104691*
X175664Y104805*
X175383Y105032*
X175242Y105259*
Y105714*
X175383Y105941*
X175664Y106168*
X175945Y106282*
X178195Y107532D02*
Y108782D01*
X177070Y108100*
Y108441*
X176930Y108668*
X176789Y108782*
X176367Y108895*
X176086*
X175664Y108782*
X175383Y108555*
X175242Y108214*
Y107873*
X175383Y107532*
X175523Y107418*
X175805Y107305*
X178195Y111395D02*
Y110259D01*
X176930Y110145*
X177070Y110259*
X177211Y110600*
Y110941*
X177070Y111282*
X176789Y111509*
X176367Y111623*
X176086Y111509*
X175664Y111395*
X175383Y111168*
X175242Y110827*
Y110486*
X175383Y110145*
X175523Y110032*
X175805Y109918*
X186292Y106282D02*
X186573Y106168D01*
X186855Y105941*
X186995Y105714*
Y105259*
X186855Y105032*
X186573Y104805*
X186292Y104691*
X185870Y104577*
X185167*
X184745Y104691*
X184464Y104805*
X184183Y105032*
X184042Y105259*
Y105714*
X184183Y105941*
X184464Y106168*
X184745Y106282*
X186995Y107532D02*
Y108782D01*
X185870Y108100*
Y108441*
X185730Y108668*
X185589Y108782*
X185167Y108895*
X184886*
X184464Y108782*
X184183Y108555*
X184042Y108214*
Y107873*
X184183Y107532*
X184323Y107418*
X184605Y107305*
X186995Y111055D02*
X185027Y109918D01*
Y111623*
X186995Y111055D02*
X184042D01*
X171891Y328192D02*
X172005Y328473D01*
X172232Y328755*
X172459Y328895*
X172914*
X173141Y328755*
X173368Y328473*
X173482Y328192*
X173595Y327770*
Y327067*
X173482Y326645*
X173368Y326364*
X173141Y326083*
X172914Y325942*
X172459*
X172232Y326083*
X172005Y326364*
X171891Y326645*
X170868Y328333D02*
X170641Y328473D01*
X170300Y328895*
Y325942*
X169164Y328192D02*
Y328333D01*
X169050Y328614*
X168936Y328755*
X168709Y328895*
X168255*
X168027Y328755*
X167914Y328614*
X167800Y328333*
Y328052*
X167914Y327770*
X168141Y327348*
X169277Y325942*
X167686*
X165527Y328895D02*
X166664Y326927D01*
X164959*
X165527Y328895D02*
Y325942D01*
X172686Y316245D02*
Y313292D01*
Y316245D02*
X171664D01*
X171323Y316105*
X171209Y315964*
X171095Y315683*
Y315402*
X171209Y315120*
X171323Y314980*
X171664Y314839*
X172686*
X171891D02*
X171095Y313292D01*
X168595Y315261D02*
X168709Y314839D01*
X168936Y314558*
X169277Y314417*
X169391*
X169732Y314558*
X169959Y314839*
X170073Y315261*
Y315402*
X169959Y315823*
X169732Y316105*
X169391Y316245*
X169277*
X168936Y316105*
X168709Y315823*
X168595Y315261*
Y314558*
X168709Y313855*
X168936Y313433*
X169277Y313292*
X169505*
X169845Y313433*
X169959Y313714*
X166436Y316245D02*
X167573Y314277D01*
X165868*
X166436Y316245D02*
Y313292D01*
X341545Y216525D02*
X338592D01*
X341545D02*
Y217548D01*
X341405Y217889*
X341264Y218002*
X340983Y218116*
X340702*
X340420Y218002*
X340280Y217889*
X340139Y217548*
Y216525*
Y217320D02*
X338592Y218116D01*
X340983Y219139D02*
X341123Y219366D01*
X341545Y219707*
X338592*
X341545Y221411D02*
X341405Y221070D01*
X340983Y220843*
X340280Y220730*
X339858*
X339155Y220843*
X338733Y221070*
X338592Y221411*
Y221639*
X338733Y221980*
X339155Y222207*
X339858Y222320*
X340280*
X340983Y222207*
X341405Y221980*
X341545Y221639*
Y221411*
X378830Y341545D02*
Y338592D01*
Y341545D02*
X377807D01*
X377466Y341405*
X377352Y341264*
X377239Y340983*
Y340702*
X377352Y340420*
X377466Y340280*
X377807Y340139*
X378830*
X378034D02*
X377239Y338592D01*
X376102Y340842D02*
Y340983D01*
X375989Y341264*
X375875Y341405*
X375648Y341545*
X375193*
X374966Y341405*
X374852Y341264*
X374739Y340983*
Y340702*
X374852Y340420*
X375080Y339998*
X376216Y338592*
X374625*
X372125Y340561D02*
X372239Y340139D01*
X372466Y339858*
X372807Y339717*
X372920*
X373261Y339858*
X373489Y340139*
X373602Y340561*
Y340702*
X373489Y341123*
X373261Y341405*
X372920Y341545*
X372807*
X372466Y341405*
X372239Y341123*
X372125Y340561*
Y339858*
X372239Y339155*
X372466Y338733*
X372807Y338592*
X373034*
X373375Y338733*
X373489Y339014*
X380442Y143911D02*
X380723Y143798D01*
X381005Y143570*
X381145Y143343*
Y142889*
X381005Y142661*
X380723Y142434*
X380442Y142320*
X380020Y142207*
X379317*
X378895Y142320*
X378614Y142434*
X378333Y142661*
X378192Y142889*
Y143343*
X378333Y143570*
X378614Y143798*
X378895Y143911*
X380442Y145048D02*
X380583D01*
X380864Y145161*
X381005Y145275*
X381145Y145502*
Y145957*
X381005Y146184*
X380864Y146298*
X380583Y146411*
X380302*
X380020Y146298*
X379598Y146070*
X378192Y144934*
Y146525*
X380442Y147661D02*
X380583D01*
X380864Y147775*
X381005Y147889*
X381145Y148116*
Y148570*
X381005Y148798*
X380864Y148911*
X380583Y149025*
X380302*
X380020Y148911*
X379598Y148684*
X378192Y147548*
Y149139*
X351445Y142236D02*
X348492D01*
X351445D02*
Y143259D01*
X351305Y143600*
X351164Y143714*
X350883Y143827*
X350602*
X350320Y143714*
X350180Y143600*
X350039Y143259*
Y142236*
Y143032D02*
X348492Y143827D01*
X350883Y144850D02*
X351023Y145077D01*
X351445Y145418*
X348492*
X350883Y146441D02*
X351023Y146668D01*
X351445Y147009*
X348492*
X237643Y353095D02*
Y350142D01*
Y353095D02*
X236620D01*
X236280Y352955*
X236166Y352814*
X236052Y352533*
Y352252*
X236166Y351970*
X236280Y351830*
X236620Y351689*
X237643*
X236848D02*
X236052Y350142D01*
X233552Y353095D02*
X234689D01*
X234802Y351830*
X234689Y351970*
X234348Y352111*
X234007*
X233666Y351970*
X233439Y351689*
X233325Y351267*
X233439Y350986*
X233552Y350564*
X233780Y350283*
X234120Y350142*
X234461*
X234802Y350283*
X234916Y350423*
X235030Y350705*
X231620Y353095D02*
X231961Y352955D01*
X232189Y352533*
X232302Y351830*
Y351408*
X232189Y350705*
X231961Y350283*
X231620Y350142*
X231393*
X231052Y350283*
X230825Y350705*
X230711Y351408*
Y351830*
X230825Y352533*
X231052Y352955*
X231393Y353095*
X231620*
X238143Y337695D02*
Y334742D01*
Y337695D02*
X237120D01*
X236780Y337555*
X236666Y337414*
X236552Y337133*
Y336852*
X236666Y336570*
X236780Y336430*
X237120Y336289*
X238143*
X237348D02*
X236552Y334742D01*
X234052Y337695D02*
X235189D01*
X235302Y336430*
X235189Y336570*
X234848Y336711*
X234507*
X234166Y336570*
X233939Y336289*
X233825Y335867*
X233939Y335586*
X234052Y335164*
X234280Y334883*
X234620Y334742*
X234961*
X235302Y334883*
X235416Y335023*
X235530Y335305*
X232689Y336992D02*
Y337133D01*
X232575Y337414*
X232461Y337555*
X232234Y337695*
X231780*
X231552Y337555*
X231439Y337414*
X231325Y337133*
Y336852*
X231439Y336570*
X231666Y336148*
X232802Y334742*
X231211*
X237682Y345395D02*
Y342442D01*
Y345395D02*
X236886D01*
X236545Y345255*
X236318Y344973*
X236205Y344692*
X236091Y344270*
Y343567*
X236205Y343145*
X236318Y342864*
X236545Y342583*
X236886Y342442*
X237682*
X235068Y344833D02*
X234841Y344973D01*
X234500Y345395*
Y342442*
X232341Y345395D02*
X233477Y343427D01*
X231773*
X232341Y345395D02*
Y342442D01*
X274989Y467342D02*
X275102Y467623D01*
X275330Y467905*
X275557Y468045*
X276011*
X276239Y467905*
X276466Y467623*
X276580Y467342*
X276693Y466920*
Y466217*
X276580Y465795*
X276466Y465514*
X276239Y465233*
X276011Y465092*
X275557*
X275330Y465233*
X275102Y465514*
X274989Y465795*
X272489Y467061D02*
X272602Y466639D01*
X272830Y466358*
X273170Y466217*
X273284*
X273625Y466358*
X273852Y466639*
X273966Y467061*
Y467202*
X273852Y467623*
X273625Y467905*
X273284Y468045*
X273170*
X272830Y467905*
X272602Y467623*
X272489Y467061*
Y466358*
X272602Y465655*
X272830Y465233*
X273170Y465092*
X273398*
X273739Y465233*
X273852Y465514*
X269989Y468045D02*
X271125D01*
X271239Y466780*
X271125Y466920*
X270784Y467061*
X270443*
X270102Y466920*
X269875Y466639*
X269761Y466217*
X269875Y465936*
X269989Y465514*
X270216Y465233*
X270557Y465092*
X270898*
X271239Y465233*
X271352Y465373*
X271466Y465655*
X256382Y353645D02*
Y350692D01*
Y353645D02*
X255359D01*
X255018Y353505*
X254905Y353364*
X254791Y353083*
Y352802*
X254905Y352520*
X255018Y352380*
X255359Y352239*
X256382*
X255586D02*
X254791Y350692D01*
X252291Y353645D02*
X253427D01*
X253541Y352380*
X253427Y352520*
X253086Y352661*
X252745*
X252405Y352520*
X252177Y352239*
X252064Y351817*
X252177Y351536*
X252291Y351114*
X252518Y350833*
X252859Y350692*
X253200*
X253541Y350833*
X253655Y350973*
X253768Y351255*
X251041Y353083D02*
X250814Y353223D01*
X250473Y353645*
Y350692*
X256382Y371245D02*
Y368292D01*
Y371245D02*
X255359D01*
X255018Y371105*
X254905Y370964*
X254791Y370683*
Y370402*
X254905Y370120*
X255018Y369980*
X255359Y369839*
X256382*
X255586D02*
X254791Y368292D01*
X252291Y371245D02*
X253427D01*
X253541Y369980*
X253427Y370120*
X253086Y370261*
X252745*
X252405Y370120*
X252177Y369839*
X252064Y369417*
X252177Y369136*
X252291Y368714*
X252518Y368433*
X252859Y368292*
X253200*
X253541Y368433*
X253655Y368573*
X253768Y368855*
X250814Y371245D02*
X249564D01*
X250245Y370120*
X249905*
X249677Y369980*
X249564Y369839*
X249450Y369417*
Y369136*
X249564Y368714*
X249791Y368433*
X250132Y368292*
X250473*
X250814Y368433*
X250927Y368573*
X251041Y368855*
X256382Y362445D02*
Y359492D01*
Y362445D02*
X255586D01*
X255245Y362305*
X255018Y362023*
X254905Y361742*
X254791Y361320*
Y360617*
X254905Y360195*
X255018Y359914*
X255245Y359633*
X255586Y359492*
X256382*
X253768Y361883D02*
X253541Y362023D01*
X253200Y362445*
Y359492*
X250700Y362445D02*
X251836D01*
X251950Y361180*
X251836Y361320*
X251495Y361461*
X251155*
X250814Y361320*
X250586Y361039*
X250473Y360617*
X250586Y360336*
X250700Y359914*
X250927Y359633*
X251268Y359492*
X251609*
X251950Y359633*
X252064Y359773*
X252177Y360055*
X288682Y417842D02*
X288795Y418123D01*
X289023Y418405*
X289250Y418545*
X289705*
X289932Y418405*
X290159Y418123*
X290273Y417842*
X290386Y417420*
Y416717*
X290273Y416295*
X290159Y416014*
X289932Y415733*
X289705Y415592*
X289250*
X289023Y415733*
X288795Y416014*
X288682Y416295*
X286182Y417561D02*
X286295Y417139D01*
X286523Y416858*
X286864Y416717*
X286977*
X287318Y416858*
X287545Y417139*
X287659Y417561*
Y417702*
X287545Y418123*
X287318Y418405*
X286977Y418545*
X286864*
X286523Y418405*
X286295Y418123*
X286182Y417561*
Y416858*
X286295Y416155*
X286523Y415733*
X286864Y415592*
X287091*
X287432Y415733*
X287545Y416014*
X284477Y418545D02*
X284818Y418405D01*
X285045Y417983*
X285159Y417280*
Y416858*
X285045Y416155*
X284818Y415733*
X284477Y415592*
X284250*
X283909Y415733*
X283682Y416155*
X283568Y416858*
Y417280*
X283682Y417983*
X283909Y418405*
X284250Y418545*
X284477*
X300539Y391192D02*
X300652Y391473D01*
X300880Y391755*
X301107Y391895*
X301561*
X301789Y391755*
X302016Y391473*
X302130Y391192*
X302243Y390770*
Y390067*
X302130Y389645*
X302016Y389364*
X301789Y389083*
X301561Y388942*
X301107*
X300880Y389083*
X300652Y389364*
X300539Y389645*
X298039Y390911D02*
X298152Y390489D01*
X298380Y390208*
X298720Y390067*
X298834*
X299175Y390208*
X299402Y390489*
X299516Y390911*
Y391052*
X299402Y391473*
X299175Y391755*
X298834Y391895*
X298720*
X298380Y391755*
X298152Y391473*
X298039Y390911*
Y390208*
X298152Y389505*
X298380Y389083*
X298720Y388942*
X298948*
X299289Y389083*
X299402Y389364*
X295880Y391895D02*
X297016Y389927D01*
X295311*
X295880Y391895D02*
Y388942D01*
X377818Y358595D02*
Y355642D01*
Y358595D02*
X376795D01*
X376455Y358455*
X376341Y358314*
X376227Y358033*
Y357752*
X376341Y357470*
X376455Y357330*
X376795Y357189*
X377818*
X377023D02*
X376227Y355642D01*
X375205Y358033D02*
X374977Y358173D01*
X374636Y358595*
Y355642*
X372136Y357611D02*
X372250Y357189D01*
X372477Y356908*
X372818Y356767*
X372932*
X373273Y356908*
X373500Y357189*
X373614Y357611*
Y357752*
X373500Y358173*
X373273Y358455*
X372932Y358595*
X372818*
X372477Y358455*
X372250Y358173*
X372136Y357611*
Y356908*
X372250Y356205*
X372477Y355783*
X372818Y355642*
X373045*
X373386Y355783*
X373500Y356064*
X379525Y350895D02*
Y347942D01*
Y350895D02*
X378730D01*
X378389Y350755*
X378161Y350473*
X378048Y350192*
X377934Y349770*
Y349067*
X378048Y348645*
X378161Y348364*
X378389Y348083*
X378730Y347942*
X379525*
X376911Y350333D02*
X376684Y350473D01*
X376343Y350895*
Y347942*
X374639Y350895D02*
X374980Y350755D01*
X375207Y350333*
X375320Y349630*
Y349208*
X375207Y348505*
X374980Y348083*
X374639Y347942*
X374411*
X374070Y348083*
X373843Y348505*
X373730Y349208*
Y349630*
X373843Y350333*
X374070Y350755*
X374411Y350895*
X374639*
X415845Y473942D02*
X415959Y474223D01*
X416186Y474505*
X416414Y474645*
X416868*
X417095Y474505*
X417323Y474223*
X417436Y473942*
X417550Y473520*
Y472817*
X417436Y472395*
X417323Y472114*
X417095Y471833*
X416868Y471692*
X416414*
X416186Y471833*
X415959Y472114*
X415845Y472395*
X413345Y474645D02*
X414482D01*
X414595Y473380*
X414482Y473520*
X414141Y473661*
X413800*
X413459Y473520*
X413232Y473239*
X413118Y472817*
X413232Y472536*
X413345Y472114*
X413573Y471833*
X413914Y471692*
X414255*
X414595Y471833*
X414709Y471973*
X414823Y472255*
X411527Y474645D02*
X411868Y474505D01*
X411982Y474223*
Y473942*
X411868Y473661*
X411641Y473520*
X411186Y473380*
X410845Y473239*
X410618Y472958*
X410505Y472677*
Y472255*
X410618Y471973*
X410732Y471833*
X411073Y471692*
X411527*
X411868Y471833*
X411982Y471973*
X412095Y472255*
Y472677*
X411982Y472958*
X411755Y473239*
X411414Y473380*
X410959Y473520*
X410732Y473661*
X410618Y473942*
Y474223*
X410732Y474505*
X411073Y474645*
X411527*
X400464Y360795D02*
Y357842D01*
Y360795D02*
X399441D01*
X399100Y360655*
X398986Y360514*
X398873Y360233*
Y359952*
X398986Y359670*
X399100Y359530*
X399441Y359389*
X400464*
X399668D02*
X398873Y357842D01*
X397736Y360092D02*
Y360233D01*
X397623Y360514*
X397509Y360655*
X397282Y360795*
X396827*
X396600Y360655*
X396486Y360514*
X396373Y360233*
Y359952*
X396486Y359670*
X396714Y359248*
X397850Y357842*
X396259*
X394555Y360795D02*
X394895Y360655D01*
X395123Y360233*
X395236Y359530*
Y359108*
X395123Y358405*
X394895Y357983*
X394555Y357842*
X394327*
X393986Y357983*
X393759Y358405*
X393645Y359108*
Y359530*
X393759Y360233*
X393986Y360655*
X394327Y360795*
X394555*
X400464Y377295D02*
Y374342D01*
Y377295D02*
X399441D01*
X399100Y377155*
X398986Y377014*
X398873Y376733*
Y376452*
X398986Y376170*
X399100Y376030*
X399441Y375889*
X400464*
X399668D02*
X398873Y374342D01*
X397623Y377295D02*
X396373D01*
X397055Y376170*
X396714*
X396486Y376030*
X396373Y375889*
X396259Y375467*
Y375186*
X396373Y374764*
X396600Y374483*
X396941Y374342*
X397282*
X397623Y374483*
X397736Y374623*
X397850Y374905*
X394555Y377295D02*
X394895Y377155D01*
X395123Y376733*
X395236Y376030*
Y375608*
X395123Y374905*
X394895Y374483*
X394555Y374342*
X394327*
X393986Y374483*
X393759Y374905*
X393645Y375608*
Y376030*
X393759Y376733*
X393986Y377155*
X394327Y377295*
X394555*
X398264Y369045D02*
Y366092D01*
Y369045D02*
X397468D01*
X397127Y368905*
X396900Y368623*
X396786Y368342*
X396673Y367920*
Y367217*
X396786Y366795*
X396900Y366514*
X397127Y366233*
X397468Y366092*
X398264*
X395650Y368483D02*
X395423Y368623D01*
X395082Y369045*
Y366092*
X394059Y368483D02*
X393832Y368623D01*
X393491Y369045*
Y366092*
X431245Y425542D02*
X431359Y425823D01*
X431586Y426105*
X431814Y426245*
X432268*
X432495Y426105*
X432723Y425823*
X432836Y425542*
X432950Y425120*
Y424417*
X432836Y423995*
X432723Y423714*
X432495Y423433*
X432268Y423292*
X431814*
X431586Y423433*
X431359Y423714*
X431245Y423995*
X428745Y426245D02*
X429882D01*
X429995Y424980*
X429882Y425120*
X429541Y425261*
X429200*
X428859Y425120*
X428632Y424839*
X428518Y424417*
X428632Y424136*
X428745Y423714*
X428973Y423433*
X429314Y423292*
X429655*
X429995Y423433*
X430109Y423573*
X430223Y423855*
X427268Y426245D02*
X426018D01*
X426700Y425120*
X426359*
X426132Y424980*
X426018Y424839*
X425905Y424417*
Y424136*
X426018Y423714*
X426245Y423433*
X426586Y423292*
X426927*
X427268Y423433*
X427382Y423573*
X427495Y423855*
X442495Y397242D02*
X442609Y397523D01*
X442836Y397805*
X443064Y397945*
X443518*
X443745Y397805*
X443973Y397523*
X444086Y397242*
X444200Y396820*
Y396117*
X444086Y395695*
X443973Y395414*
X443745Y395133*
X443518Y394992*
X443064*
X442836Y395133*
X442609Y395414*
X442495Y395695*
X439995Y397945D02*
X441132D01*
X441245Y396680*
X441132Y396820*
X440791Y396961*
X440450*
X440109Y396820*
X439882Y396539*
X439768Y396117*
X439882Y395836*
X439995Y395414*
X440223Y395133*
X440564Y394992*
X440905*
X441245Y395133*
X441359Y395273*
X441473Y395555*
X437155Y397945D02*
X438291Y394992D01*
X438745Y397945D02*
X437155D01*
X349795Y218920D02*
X346842D01*
X349795D02*
Y219716D01*
X349655Y220057*
X349373Y220284*
X349092Y220398*
X348670Y220511*
X347967*
X347545Y220398*
X347264Y220284*
X346983Y220057*
X346842Y219716*
Y218920*
X349795Y223011D02*
Y221875D01*
X348530Y221761*
X348670Y221875*
X348811Y222216*
Y222557*
X348670Y222898*
X348389Y223125*
X347967Y223239*
X347686Y223125*
X347264Y223011*
X346983Y222784*
X346842Y222443*
Y222102*
X346983Y221761*
X347123Y221648*
X347405Y221534*
X359695Y143020D02*
X356742D01*
X359695D02*
Y143816D01*
X359555Y144157*
X359273Y144384*
X358992Y144498*
X358570Y144611*
X357867*
X357445Y144498*
X357164Y144384*
X356883Y144157*
X356742Y143816*
Y143020*
X359273Y146998D02*
X359555Y146884D01*
X359695Y146543*
Y146316*
X359555Y145975*
X359133Y145748*
X358430Y145634*
X357727*
X357164Y145748*
X356883Y145975*
X356742Y146316*
Y146430*
X356883Y146770*
X357164Y146998*
X357586Y147111*
X357727*
X358148Y146998*
X358430Y146770*
X358570Y146430*
Y146316*
X358430Y145975*
X358148Y145748*
X357727Y145634*
X358595Y218920D02*
X355642D01*
X358595D02*
Y219943D01*
X358455Y220284*
X358314Y220398*
X358033Y220511*
X357752*
X357470Y220398*
X357330Y220284*
X357189Y219943*
Y218920*
Y219716D02*
X355642Y220511D01*
X357892Y221648D02*
X358033D01*
X358314Y221761*
X358455Y221875*
X358595Y222102*
Y222557*
X358455Y222784*
X358314Y222898*
X358033Y223011*
X357752*
X357470Y222898*
X357048Y222670*
X355642Y221534*
Y223125*
X367945Y142470D02*
X364992D01*
X367945D02*
Y143493D01*
X367805Y143834*
X367664Y143948*
X367383Y144061*
X367102*
X366820Y143948*
X366680Y143834*
X366539Y143493*
Y142470*
Y143266D02*
X364992Y144061D01*
X367945Y145311D02*
Y146561D01*
X366820Y145880*
Y146220*
X366680Y146448*
X366539Y146561*
X366117Y146675*
X365836*
X365414Y146561*
X365133Y146334*
X364992Y145993*
Y145652*
X365133Y145311*
X365273Y145198*
X365555Y145084*
X363595Y129092D02*
X363709Y129373D01*
X363936Y129655*
X364164Y129795*
X364618*
X364845Y129655*
X365073Y129373*
X365186Y129092*
X365300Y128670*
Y127967*
X365186Y127545*
X365073Y127264*
X364845Y126983*
X364618Y126842*
X364164*
X363936Y126983*
X363709Y127264*
X363595Y127545*
X362459Y129092D02*
Y129233D01*
X362345Y129514*
X362232Y129655*
X362005Y129795*
X361550*
X361323Y129655*
X361209Y129514*
X361095Y129233*
Y128952*
X361209Y128670*
X361436Y128248*
X362573Y126842*
X360982*
X358482Y129795D02*
X359618D01*
X359732Y128530*
X359618Y128670*
X359277Y128811*
X358936*
X358595Y128670*
X358368Y128389*
X358255Y127967*
X358368Y127686*
X358482Y127264*
X358709Y126983*
X359050Y126842*
X359391*
X359732Y126983*
X359845Y127123*
X359959Y127405*
X474282Y155742D02*
X474395Y156023D01*
X474623Y156305*
X474850Y156445*
X475305*
X475532Y156305*
X475759Y156023*
X475873Y155742*
X475986Y155320*
Y154617*
X475873Y154195*
X475759Y153914*
X475532Y153633*
X475305Y153492*
X474850*
X474623Y153633*
X474395Y153914*
X474282Y154195*
X473145Y155742D02*
Y155883D01*
X473032Y156164*
X472918Y156305*
X472691Y156445*
X472236*
X472009Y156305*
X471895Y156164*
X471782Y155883*
Y155602*
X471895Y155320*
X472123Y154898*
X473259Y153492*
X471668*
X469282Y156023D02*
X469395Y156305D01*
X469736Y156445*
X469964*
X470305Y156305*
X470532Y155883*
X470645Y155180*
Y154477*
X470532Y153914*
X470305Y153633*
X469964Y153492*
X469850*
X469509Y153633*
X469282Y153914*
X469168Y154336*
Y154477*
X469282Y154898*
X469509Y155180*
X469850Y155320*
X469964*
X470305Y155180*
X470532Y154898*
X470645Y154477*
X135477Y254492D02*
X135591Y254773D01*
X135818Y255055*
X136045Y255195*
X136500*
X136727Y255055*
X136955Y254773*
X137068Y254492*
X137182Y254070*
Y253367*
X137068Y252945*
X136955Y252664*
X136727Y252383*
X136500Y252242*
X136045*
X135818Y252383*
X135591Y252664*
X135477Y252945*
X134455Y254633D02*
X134227Y254773D01*
X133886Y255195*
Y252242*
X132636Y255195D02*
X131386D01*
X132068Y254070*
X131727*
X131500Y253930*
X131386Y253789*
X131273Y253367*
Y253086*
X131386Y252664*
X131614Y252383*
X131955Y252242*
X132295*
X132636Y252383*
X132750Y252523*
X132864Y252805*
X128886Y254773D02*
X129000Y255055D01*
X129341Y255195*
X129568*
X129909Y255055*
X130136Y254633*
X130250Y253930*
Y253227*
X130136Y252664*
X129909Y252383*
X129568Y252242*
X129455*
X129114Y252383*
X128886Y252664*
X128773Y253086*
Y253227*
X128886Y253648*
X129114Y253930*
X129455Y254070*
X129568*
X129909Y253930*
X130136Y253648*
X130250Y253227*
X166645Y222014D02*
X163692D01*
X166645D02*
Y223036D01*
X166505Y223377*
X166364Y223491*
X166083Y223605*
X165802*
X165520Y223491*
X165380Y223377*
X165239Y223036*
Y222014*
Y222809D02*
X163692Y223605D01*
X166645Y226218D02*
X163692Y225082D01*
X166645Y224627D02*
Y226218D01*
X165942Y227355D02*
X166083D01*
X166364Y227468*
X166505Y227582*
X166645Y227809*
Y228264*
X166505Y228491*
X166364Y228605*
X166083Y228718*
X165802*
X165520Y228605*
X165098Y228377*
X163692Y227241*
Y228832*
X145927Y375492D02*
X146041Y375773D01*
X146268Y376055*
X146495Y376195*
X146950*
X147177Y376055*
X147405Y375773*
X147518Y375492*
X147632Y375070*
Y374367*
X147518Y373945*
X147405Y373664*
X147177Y373383*
X146950Y373242*
X146495*
X146268Y373383*
X146041Y373664*
X145927Y373945*
X144905Y375633D02*
X144677Y375773D01*
X144336Y376195*
Y373242*
X142632Y376195D02*
X142973Y376055D01*
X143200Y375633*
X143314Y374930*
Y374508*
X143200Y373805*
X142973Y373383*
X142632Y373242*
X142405*
X142064Y373383*
X141836Y373805*
X141723Y374508*
Y374930*
X141836Y375633*
X142064Y376055*
X142405Y376195*
X142632*
X139336Y375773D02*
X139450Y376055D01*
X139791Y376195*
X140018*
X140359Y376055*
X140586Y375633*
X140700Y374930*
Y374227*
X140586Y373664*
X140359Y373383*
X140018Y373242*
X139905*
X139564Y373383*
X139336Y373664*
X139223Y374086*
Y374227*
X139336Y374648*
X139564Y374930*
X139905Y375070*
X140018*
X140359Y374930*
X140586Y374648*
X140700Y374227*
X159186Y311595D02*
Y309486D01*
X159073Y309064*
X158845Y308783*
X158505Y308642*
X158277*
X157936Y308783*
X157709Y309064*
X157595Y309486*
Y311595*
X156459Y310892D02*
Y311033D01*
X156345Y311314*
X156232Y311455*
X156005Y311595*
X155550*
X155323Y311455*
X155209Y311314*
X155095Y311033*
Y310752*
X155209Y310470*
X155436Y310048*
X156573Y308642*
X154982*
X153845Y310892D02*
Y311033D01*
X153732Y311314*
X153618Y311455*
X153391Y311595*
X152936*
X152709Y311455*
X152595Y311314*
X152482Y311033*
Y310752*
X152595Y310470*
X152823Y310048*
X153959Y308642*
X152368*
X121716Y189042D02*
X121830Y189323D01*
X122057Y189605*
X122284Y189745*
X122739*
X122966Y189605*
X123193Y189323*
X123307Y189042*
X123420Y188620*
Y187917*
X123307Y187495*
X123193Y187214*
X122966Y186933*
X122739Y186792*
X122284*
X122057Y186933*
X121830Y187214*
X121716Y187495*
X120693Y189183D02*
X120466Y189323D01*
X120125Y189745*
Y186792*
X119102Y189183D02*
X118875Y189323D01*
X118534Y189745*
Y186792*
X116034Y188761D02*
X116148Y188339D01*
X116375Y188058*
X116716Y187917*
X116830*
X117170Y188058*
X117398Y188339*
X117511Y188761*
Y188902*
X117398Y189323*
X117170Y189605*
X116830Y189745*
X116716*
X116375Y189605*
X116148Y189323*
X116034Y188761*
Y188058*
X116148Y187355*
X116375Y186933*
X116716Y186792*
X116943*
X117284Y186933*
X117398Y187214*
X147242Y222366D02*
X147523Y222252D01*
X147805Y222025*
X147945Y221798*
Y221343*
X147805Y221116*
X147523Y220889*
X147242Y220775*
X146820Y220661*
X146117*
X145695Y220775*
X145414Y220889*
X145133Y221116*
X144992Y221343*
Y221798*
X145133Y222025*
X145414Y222252*
X145695Y222366*
X147383Y223389D02*
X147523Y223616D01*
X147945Y223957*
X144992*
X147945Y225661D02*
X147805Y225320D01*
X147383Y225093*
X146680Y224980*
X146258*
X145555Y225093*
X145133Y225320*
X144992Y225661*
Y225889*
X145133Y226230*
X145555Y226457*
X146258Y226570*
X146680*
X147383Y226457*
X147805Y226230*
X147945Y225889*
Y225661*
Y228161D02*
X147805Y227820D01*
X147523Y227707*
X147242*
X146961Y227820*
X146820Y228048*
X146680Y228502*
X146539Y228843*
X146258Y229070*
X145977Y229184*
X145555*
X145273Y229070*
X145133Y228957*
X144992Y228616*
Y228161*
X145133Y227820*
X145273Y227707*
X145555Y227593*
X145977*
X146258Y227707*
X146539Y227934*
X146680Y228275*
X146820Y228730*
X146961Y228957*
X147242Y229070*
X147523*
X147805Y228957*
X147945Y228616*
Y228161*
G54D115*
X119256Y293298D02*
X113744D01*
Y281802*
X119256*
Y293298*
X113744Y269702D02*
X119256D01*
Y281198*
X113744*
Y269702*
X197107Y113269D02*
X191201D01*
Y121931*
X197107*
X204193Y113269D02*
X210099D01*
Y121931*
X204193*
X181331Y118457D02*
Y112551D01*
X172669*
Y118457*
X181331Y125543D02*
Y131449D01*
X172669*
Y125543*
X190131Y118457D02*
Y112551D01*
X181469*
Y118457*
X190131Y125543D02*
Y131449D01*
X181469*
Y125543*
X175048Y318344D02*
Y323856D01*
X163552*
Y318344*
X175048*
Y352994D02*
Y358506D01*
X163552*
Y352994*
X175048*
Y335944D02*
Y341456D01*
X163552*
Y335944*
X175048*
X260843Y470081D02*
X266749D01*
Y461419*
X260843*
X253757Y470081D02*
X247851D01*
Y461419*
X253757*
X402193Y476681D02*
X408099D01*
Y468019*
X402193*
X395107Y476681D02*
X389201D01*
Y468019*
X395107*
X476681Y164657D02*
Y158751D01*
X468019*
Y164657*
X476681Y171743D02*
Y177649D01*
X468019*
Y171743*
X156094Y219652D02*
X161606D01*
Y231148*
X156094*
Y219652*
G54D191*
X133185Y334746D02*
G03X133185I-1181J0D01*
G54D192*
G01X125409Y344392D02*
G03X125409I-492J0D01*
G74*
G01X0Y0D02*
M02*
