*
*
G04 PADS VX.2.4 Build Number: 11282995 generated Gerber (RS-274-X) file*
G04 PC Version=2.1*
*
%IN "SE_13.pcb"*%
*
%MOIN*%
*
%FSLAX35Y35*%
*
*
*
*
G04 PC Standard Apertures*
*
*
G04 Thermal Relief Aperture macro.*
%AMTER*
1,1,$1,0,0*
1,0,$1-$2,0,0*
21,0,$3,$4,0,0,45*
21,0,$3,$4,0,0,135*
%
*
*
G04 Annular Aperture macro.*
%AMANN*
1,1,$1,0,0*
1,0,$2,0,0*
%
*
*
G04 Odd Aperture macro.*
%AMODD*
1,1,$1,0,0*
1,0,$1-0.005,0,0*
%
*
*
G04 PC Custom Aperture Macros*
*
*
*
*
*
*
G04 PC Aperture Table*
*
%ADD010C,0.001*%
%ADD028C,0.004*%
%ADD043R,0.04937X0.04937*%
%ADD044C,0.10843*%
%ADD047R,0.07299X0.05724*%
%ADD102R,0.0415X0.03992*%
%ADD106R,0.03992X0.0415*%
%ADD109R,0.05724X0.07299*%
%ADD177R,0.02574X0.0688*%
%ADD178R,0.02575X0.0688*%
%ADD179R,0.05724X0.06512*%
%ADD180R,0.06512X0.05724*%
%ADD184O,0.02181X0.09268*%
%ADD185O,0.09268X0.02181*%
%ADD187R,0.06906X0.06906*%
%ADD188C,0.06906*%
%ADD196R,0.03165X0.04937*%
%ADD197R,0.03165X0.04937*%
*
*
*
*
G04 PC Circuitry*
G04 Layer Name SE_13.pcb - circuitry*
%LPD*%
*
*
G04 PC Custom Flashes*
G04 Layer Name SE_13.pcb - flashes*
%LPD*%
*
*
G04 PC Circuitry*
G04 Layer Name SE_13.pcb - circuitry*
%LPD*%
*
G54D10*
G54D28*
G01X100000Y111811D02*
G75*
G03X111811Y100000I11811J0D01*
G01X481890*
G03X493701Y111811I-0J11811*
G01Y481890*
G03X481890Y493701I-11811J-0*
G01X111811*
G03X100000Y481890I0J-11811*
G01Y111811*
X183071Y139370D02*
G03X183071I-4331J0D01*
G01X419291D02*
G03X419291I-4330J0D01*
G01X418898Y454331D02*
G03X418898I-3937J0D01*
G01X183071D02*
G03X183071I-4331J0D01*
G54D43*
G01X123563Y366750D03*
X131437D03*
X153987Y415700D03*
X146113D03*
X147850Y436687D03*
Y428813D03*
X127500Y436687D03*
Y428813D03*
X169300Y118613D03*
Y126487D03*
X340350Y211187D03*
Y203313D03*
X359513Y340900D03*
X367387D03*
X373900Y141713D03*
Y149587D03*
X350250Y161137D03*
Y153263D03*
X225487Y352450D03*
X217613D03*
Y335950D03*
X225487D03*
X270037Y352450D03*
X262163D03*
X270037Y370050D03*
X262163D03*
X291487Y410750D03*
X283613D03*
X298550Y404787D03*
Y396913D03*
X367387Y357400D03*
X359513D03*
X413037Y360150D03*
X405163D03*
X413037Y376650D03*
X405163D03*
X433937Y418450D03*
X426063D03*
X439350Y410837D03*
Y402963D03*
X357400Y203313D03*
Y211187D03*
X366750Y153263D03*
Y161137D03*
X366287Y134650D03*
X358413D03*
X147387Y366750D03*
X139513D03*
X114763Y181400D03*
X122637D03*
G54D44*
X266100Y123100D03*
X286100D03*
G54D47*
X177000Y116094D03*
Y127906D03*
X185800Y116094D03*
Y127906D03*
X472350Y162294D03*
Y174106D03*
G54D102*
X116500Y266342D03*
Y260358D03*
Y290542D03*
Y284558D03*
Y272458D03*
Y278442D03*
X146200Y359292D03*
Y353308D03*
X151700Y359292D03*
Y353308D03*
X158850Y222408D03*
Y228392D03*
X152800D03*
Y222408D03*
G54D106*
X172292Y332650D03*
X166308D03*
X172292Y321100D03*
X166308D03*
X172292Y355750D03*
X166308D03*
X172292Y338700D03*
X166308D03*
X124442Y254000D03*
X118458D03*
G54D109*
X194744Y117600D03*
X206556D03*
X263206Y465750D03*
X251394D03*
X404556Y472350D03*
X392744D03*
G54D177*
X122584Y283965D03*
X132820Y283964D03*
X135374D03*
X137938D03*
X140497D03*
X143056D03*
X145615D03*
X125144Y260355D03*
X122584Y260335D03*
G54D178*
X125144Y283964D03*
X127703D03*
X130262D03*
X145616Y260335D03*
X143057D03*
X140498D03*
X137939D03*
X135380D03*
X132821D03*
X130262D03*
X127703Y260355D03*
G54D179*
X228243Y344200D03*
X214857D03*
X272793Y361250D03*
X259407D03*
X370143Y349150D03*
X356757D03*
X415793Y368400D03*
X402407D03*
G54D180*
X348600Y200557D03*
Y213943D03*
X358500Y151057D03*
Y164443D03*
G54D184*
X127673Y344392D03*
X129642D03*
X131610D03*
X133579D03*
X135547D03*
X137516D03*
X139484D03*
X141453D03*
X143421D03*
X145390D03*
X147358D03*
X149327D03*
Y312108D03*
X147358D03*
X145390D03*
X143421D03*
X141453D03*
X139484D03*
X137516D03*
X135547D03*
X133579D03*
X131610D03*
X129642D03*
X127673D03*
G54D185*
X154642Y339077D03*
Y337108D03*
Y335140D03*
Y333171D03*
Y331203D03*
Y329234D03*
Y327266D03*
Y325297D03*
Y323329D03*
Y321360D03*
Y319392D03*
Y317423D03*
X122358D03*
Y319392D03*
Y321360D03*
Y323329D03*
Y325297D03*
Y327266D03*
Y329234D03*
Y331203D03*
Y333171D03*
Y335140D03*
Y337108D03*
Y339077D03*
G54D187*
X106050Y300750D03*
G54D188*
Y290750D03*
Y280750D03*
Y270750D03*
G54D196*
X179310Y356155D03*
X186790D03*
Y344344D03*
X179310D03*
Y338555D03*
X186790D03*
Y326744D03*
X179310D03*
Y320955D03*
X186790D03*
Y309144D03*
X179310D03*
G54D197*
X183050Y356155D03*
Y338555D03*
Y320955D03*
G74*
X0Y0D02*
M02*
