*
*
G04 PADS VX.2.4 Build Number: 11282995 generated Gerber (RS-274-X) file*
G04 PC Version=2.1*
*
%IN "SE_13.pcb"*%
*
%MOIN*%
*
%FSLAX35Y35*%
*
*
*
*
G04 PC Standard Apertures*
*
*
G04 Thermal Relief Aperture macro.*
%AMTER*
1,1,$1,0,0*
1,0,$1-$2,0,0*
21,0,$3,$4,0,0,45*
21,0,$3,$4,0,0,135*
%
*
*
G04 Annular Aperture macro.*
%AMANN*
1,1,$1,0,0*
1,0,$2,0,0*
%
*
*
G04 Odd Aperture macro.*
%AMODD*
1,1,$1,0,0*
1,0,$1-0.005,0,0*
%
*
*
G04 PC Custom Aperture Macros*
*
*
*
*
*
*
G04 PC Aperture Table*
*
%ADD010C,0.001*%
%ADD024C,0.01*%
%ADD028C,0.004*%
%ADD031C,0.10243*%
%ADD034R,0.05124X0.06699*%
%ADD035R,0.06306X0.12998*%
%ADD036R,0.06699X0.05124*%
%ADD037R,0.04337X0.04337*%
%ADD039R,0.0355X0.03392*%
%ADD084O,0.214X0.074*%
%ADD085R,0.03392X0.0355*%
%ADD086O,0.074X0.214*%
%ADD088R,0.12998X0.06306*%
%ADD093R,0.05124X0.05124*%
%ADD096R,0.024X0.054*%
%ADD101R,0.04337X0.06699*%
%ADD153R,0.03943X0.01187*%
%ADD154R,0.01187X0.03943*%
%ADD155R,0.11424X0.11424*%
%ADD156R,0.05912X0.05124*%
%ADD157R,0.05833X0.02683*%
%ADD158R,0.16541X0.1851*%
%ADD159R,0.05124X0.05912*%
%ADD160R,0.06699X0.1103*%
%ADD161R,0.16148X0.20085*%
%ADD162R,0.02683X0.05833*%
%ADD163R,0.1851X0.16541*%
%ADD164R,0.20085X0.16148*%
%ADD165R,0.1103X0.06699*%
%ADD166R,0.05518X0.12211*%
%ADD167O,0.05518X0.12211*%
%ADD168R,0.12211X0.05518*%
%ADD169O,0.12211X0.05518*%
%ADD170R,0.1418X0.12211*%
%ADD171O,0.02762X0.06691*%
%ADD172O,0.03156X0.0788*%
%ADD173O,0.03156X0.08668*%
%ADD174O,0.08274X0.14179*%
%ADD175R,0.06306X0.06306*%
%ADD176C,0.06306*%
%ADD195R,0.22054X0.08274*%
*
*
*
*
G04 PC Circuitry*
G04 Layer Name SE_13.pcb - circuitry*
%LPD*%
*
*
G04 PC Custom Flashes*
G04 Layer Name SE_13.pcb - flashes*
%LPD*%
*
*
G04 PC Circuitry*
G04 Layer Name SE_13.pcb - circuitry*
%LPD*%
*
G54D10*
G54D24*
G01X284834Y396576D02*
X282474Y394216D01*
X284834Y391857*
X287193Y394216*
X284834Y396576*
X284690Y392000D02*
X284977D01*
X283690Y393000D02*
X285977D01*
X282690Y394000D02*
X286977D01*
X283258Y395000D02*
X286410D01*
X284258Y396000D02*
X285410D01*
X283000Y393690D02*
Y394742D01*
X284000Y392690D02*
Y395742D01*
X285000Y392023D02*
Y396410D01*
X286000Y393023D02*
Y395410D01*
X287000Y394023D02*
Y394410D01*
X279266Y402143D02*
X276907Y399784D01*
X279266Y397424*
X281626Y399784*
X279266Y402143*
X278690Y398000D02*
X279842D01*
X277690Y399000D02*
X280842D01*
X277123Y400000D02*
X281410D01*
X278123Y401000D02*
X280410D01*
X279123Y402000D02*
X279410D01*
X277000Y399690D02*
Y399877D01*
X278000Y398690D02*
Y400877D01*
X279000Y397690D02*
Y401877D01*
X280000Y398158D02*
Y401410D01*
X281000Y399158D02*
Y400410D01*
X427284Y402626D02*
X424924Y400266D01*
X427284Y397907*
X429643Y400266*
X427284Y402626*
X427190Y398000D02*
X427377D01*
X426190Y399000D02*
X428377D01*
X425190Y400000D02*
X429377D01*
X425658Y401000D02*
X428910D01*
X426658Y402000D02*
X427910D01*
X425000Y400190D02*
Y400342D01*
X426000Y399190D02*
Y401342D01*
X427000Y398190D02*
Y402342D01*
X428000Y398623D02*
Y401910D01*
X429000Y399623D02*
Y400910D01*
X421716Y408193D02*
X419357Y405834D01*
X421716Y403474*
X424076Y405834*
X421716Y408193*
X421190Y404000D02*
X422242D01*
X420190Y405000D02*
X423242D01*
X419523Y406000D02*
X423910D01*
X420523Y407000D02*
X422910D01*
X421523Y408000D02*
X421910D01*
X420000Y405190D02*
Y406477D01*
X421000Y404190D02*
Y407477D01*
X422000Y403758D02*
Y407910D01*
X423000Y404758D02*
Y406910D01*
X424000Y405758D02*
Y405910D01*
X355716Y149626D02*
X353357Y147266D01*
X355716Y144907*
X358076Y147266*
X355716Y149626*
X355623Y145000D02*
X355810D01*
X354623Y146000D02*
X356810D01*
X353623Y147000D02*
X357810D01*
X354090Y148000D02*
X357342D01*
X355090Y149000D02*
X356342D01*
X354000Y146623D02*
Y147910D01*
X355000Y145623D02*
Y148910D01*
X356000Y145190D02*
Y149342D01*
X357000Y146190D02*
Y148342D01*
X358000Y147190D02*
Y147342D01*
X361284Y155193D02*
X358924Y152834D01*
X361284Y150474*
X363643Y152834*
X361284Y155193*
X360758Y151000D02*
X361810D01*
X359758Y152000D02*
X362810D01*
X359090Y153000D02*
X363477D01*
X360090Y154000D02*
X362477D01*
X361090Y155000D02*
X361477D01*
X359000Y152758D02*
Y152910D01*
X360000Y151758D02*
Y153910D01*
X361000Y150758D02*
Y154910D01*
X362000Y151190D02*
Y154477D01*
X363000Y152190D02*
Y153477D01*
G54D28*
X375350Y262400D02*
G75*
G03X375150Y262600I-200J0D01*
G01X355600*
G03X355400Y262400I0J-200*
G01Y257100*
X213700*
G03X213500Y256900I0J-200*
G01Y225250*
G03X213700Y225050I200J0*
G01X229450*
Y147150*
G03X229650Y146950I200J0*
G01X281700*
Y131200*
G03X281900Y131000I200J0*
G01X295950*
G03X296150Y131200I0J200*
G01Y160100*
G03X295950Y160300I-200J0*
G01X256550*
Y237700*
X375150*
G03X375350Y237900I0J200*
G01Y262400*
X355400Y262399D02*
X375350D01*
X355400Y262039D02*
X375350D01*
X355400Y261679D02*
X375350D01*
X355400Y261319D02*
X375350D01*
X355400Y260959D02*
X375350D01*
X355400Y260599D02*
X375350D01*
X355400Y260239D02*
X375350D01*
X355400Y259879D02*
X375350D01*
X355400Y259519D02*
X375350D01*
X355400Y259159D02*
X375350D01*
X355400Y258799D02*
X375350D01*
X355400Y258439D02*
X375350D01*
X355400Y258079D02*
X375350D01*
X355400Y257719D02*
X375350D01*
X355400Y257359D02*
X375350D01*
X213526Y256999D02*
X375350D01*
X213500Y256639D02*
X375350D01*
X213500Y256279D02*
X375350D01*
X213500Y255919D02*
X375350D01*
X213500Y255559D02*
X375350D01*
X213500Y255199D02*
X375350D01*
X213500Y254839D02*
X375350D01*
X213500Y254479D02*
X375350D01*
X213500Y254119D02*
X375350D01*
X213500Y253759D02*
X375350D01*
X213500Y253399D02*
X375350D01*
X213500Y253039D02*
X375350D01*
X213500Y252679D02*
X375350D01*
X213500Y252319D02*
X375350D01*
X213500Y251959D02*
X375350D01*
X213500Y251599D02*
X375350D01*
X213500Y251239D02*
X375350D01*
X213500Y250879D02*
X375350D01*
X213500Y250519D02*
X375350D01*
X213500Y250159D02*
X375350D01*
X213500Y249799D02*
X375350D01*
X213500Y249439D02*
X375350D01*
X213500Y249079D02*
X375350D01*
X213500Y248719D02*
X375350D01*
X213500Y248359D02*
X375350D01*
X213500Y247999D02*
X375350D01*
X213500Y247639D02*
X375350D01*
X213500Y247279D02*
X375350D01*
X213500Y246919D02*
X375350D01*
X213500Y246559D02*
X375350D01*
X213500Y246199D02*
X375350D01*
X213500Y245839D02*
X375350D01*
X213500Y245479D02*
X375350D01*
X213500Y245119D02*
X375350D01*
X213500Y244759D02*
X375350D01*
X213500Y244399D02*
X375350D01*
X213500Y244039D02*
X375350D01*
X213500Y243679D02*
X375350D01*
X213500Y243319D02*
X375350D01*
X213500Y242959D02*
X375350D01*
X213500Y242599D02*
X375350D01*
X213500Y242239D02*
X375350D01*
X213500Y241879D02*
X375350D01*
X213500Y241519D02*
X375350D01*
X213500Y241159D02*
X375350D01*
X213500Y240799D02*
X375350D01*
X213500Y240439D02*
X375350D01*
X213500Y240079D02*
X375350D01*
X213500Y239719D02*
X375350D01*
X213500Y239359D02*
X375350D01*
X213500Y238999D02*
X375350D01*
X213500Y238639D02*
X375350D01*
X213500Y238279D02*
X375350D01*
X213500Y237919D02*
X375350D01*
X229450Y159799D02*
X296150D01*
X229450Y159439D02*
X296150D01*
X229450Y159079D02*
X296150D01*
X229450Y158719D02*
X296150D01*
X229450Y158359D02*
X296150D01*
X229450Y157999D02*
X296150D01*
X229450Y157639D02*
X296150D01*
X229450Y157279D02*
X296150D01*
X229450Y156919D02*
X296150D01*
X229450Y156559D02*
X296150D01*
X229450Y156199D02*
X296150D01*
X229450Y155839D02*
X296150D01*
X229450Y155479D02*
X296150D01*
X229450Y155119D02*
X296150D01*
X229450Y154759D02*
X296150D01*
X229450Y154399D02*
X296150D01*
X229450Y154039D02*
X296150D01*
X229450Y153679D02*
X296150D01*
X229450Y153319D02*
X296150D01*
X229450Y152959D02*
X296150D01*
X229450Y152599D02*
X296150D01*
X229450Y152239D02*
X296150D01*
X229450Y151879D02*
X296150D01*
X229450Y151519D02*
X296150D01*
X229450Y151159D02*
X296150D01*
X229450Y150799D02*
X296150D01*
X229450Y150439D02*
X296150D01*
X229450Y150079D02*
X296150D01*
X229450Y149719D02*
X296150D01*
X229450Y149359D02*
X296150D01*
X229450Y148999D02*
X296150D01*
X229450Y148639D02*
X296150D01*
X229450Y148279D02*
X296150D01*
X229450Y147919D02*
X296150D01*
X229450Y147559D02*
X296150D01*
X229450Y147199D02*
X296150D01*
X281700Y146839D02*
X296150D01*
X281700Y146479D02*
X296150D01*
X281700Y146119D02*
X296150D01*
X281700Y145759D02*
X296150D01*
X281700Y145399D02*
X296150D01*
X281700Y145039D02*
X296150D01*
X281700Y144679D02*
X296150D01*
X281700Y144319D02*
X296150D01*
X281700Y143959D02*
X296150D01*
X281700Y143599D02*
X296150D01*
X281700Y143239D02*
X296150D01*
X281700Y142879D02*
X296150D01*
X281700Y142519D02*
X296150D01*
X281700Y142159D02*
X296150D01*
X281700Y141799D02*
X296150D01*
X281700Y141439D02*
X296150D01*
X281700Y141079D02*
X296150D01*
X281700Y140719D02*
X296150D01*
X281700Y140359D02*
X296150D01*
X281700Y139999D02*
X296150D01*
X281700Y139639D02*
X296150D01*
X281700Y139279D02*
X296150D01*
X281700Y138919D02*
X296150D01*
X281700Y138559D02*
X296150D01*
X281700Y138199D02*
X296150D01*
X281700Y137839D02*
X296150D01*
X281700Y137479D02*
X296150D01*
X281700Y137119D02*
X296150D01*
X281700Y136759D02*
X296150D01*
X281700Y136399D02*
X296150D01*
X281700Y136039D02*
X296150D01*
X281700Y135679D02*
X296150D01*
X281700Y135319D02*
X296150D01*
X281700Y134959D02*
X296150D01*
X281700Y134599D02*
X296150D01*
X281700Y134239D02*
X296150D01*
X281700Y133879D02*
X296150D01*
X281700Y133519D02*
X296150D01*
X281700Y133159D02*
X296150D01*
X281700Y132799D02*
X296150D01*
X281700Y132439D02*
X296150D01*
X281700Y132079D02*
X296150D01*
X281700Y131719D02*
X296150D01*
X281700Y131359D02*
X296150D01*
X229450Y160159D02*
X296141D01*
X213500Y237559D02*
X256550D01*
X213500Y237199D02*
X256550D01*
X213500Y236839D02*
X256550D01*
X213500Y236479D02*
X256550D01*
X213500Y236119D02*
X256550D01*
X213500Y235759D02*
X256550D01*
X213500Y235399D02*
X256550D01*
X213500Y235039D02*
X256550D01*
X213500Y234679D02*
X256550D01*
X213500Y234319D02*
X256550D01*
X213500Y233959D02*
X256550D01*
X213500Y233599D02*
X256550D01*
X213500Y233239D02*
X256550D01*
X213500Y232879D02*
X256550D01*
X213500Y232519D02*
X256550D01*
X213500Y232159D02*
X256550D01*
X213500Y231799D02*
X256550D01*
X213500Y231439D02*
X256550D01*
X213500Y231079D02*
X256550D01*
X213500Y230719D02*
X256550D01*
X213500Y230359D02*
X256550D01*
X213500Y229999D02*
X256550D01*
X213500Y229639D02*
X256550D01*
X213500Y229279D02*
X256550D01*
X213500Y228919D02*
X256550D01*
X213500Y228559D02*
X256550D01*
X213500Y228199D02*
X256550D01*
X213500Y227839D02*
X256550D01*
X213500Y227479D02*
X256550D01*
X213500Y227119D02*
X256550D01*
X213500Y226759D02*
X256550D01*
X213500Y226399D02*
X256550D01*
X213500Y226039D02*
X256550D01*
X213500Y225679D02*
X256550D01*
X213500Y225319D02*
X256550D01*
X229450Y224959D02*
X256550D01*
X229450Y224599D02*
X256550D01*
X229450Y224239D02*
X256550D01*
X229450Y223879D02*
X256550D01*
X229450Y223519D02*
X256550D01*
X229450Y223159D02*
X256550D01*
X229450Y222799D02*
X256550D01*
X229450Y222439D02*
X256550D01*
X229450Y222079D02*
X256550D01*
X229450Y221719D02*
X256550D01*
X229450Y221359D02*
X256550D01*
X229450Y220999D02*
X256550D01*
X229450Y220639D02*
X256550D01*
X229450Y220279D02*
X256550D01*
X229450Y219919D02*
X256550D01*
X229450Y219559D02*
X256550D01*
X229450Y219199D02*
X256550D01*
X229450Y218839D02*
X256550D01*
X229450Y218479D02*
X256550D01*
X229450Y218119D02*
X256550D01*
X229450Y217759D02*
X256550D01*
X229450Y217399D02*
X256550D01*
X229450Y217039D02*
X256550D01*
X229450Y216679D02*
X256550D01*
X229450Y216319D02*
X256550D01*
X229450Y215959D02*
X256550D01*
X229450Y215599D02*
X256550D01*
X229450Y215239D02*
X256550D01*
X229450Y214879D02*
X256550D01*
X229450Y214519D02*
X256550D01*
X229450Y214159D02*
X256550D01*
X229450Y213799D02*
X256550D01*
X229450Y213439D02*
X256550D01*
X229450Y213079D02*
X256550D01*
X229450Y212719D02*
X256550D01*
X229450Y212359D02*
X256550D01*
X229450Y211999D02*
X256550D01*
X229450Y211639D02*
X256550D01*
X229450Y211279D02*
X256550D01*
X229450Y210919D02*
X256550D01*
X229450Y210559D02*
X256550D01*
X229450Y210199D02*
X256550D01*
X229450Y209839D02*
X256550D01*
X229450Y209479D02*
X256550D01*
X229450Y209119D02*
X256550D01*
X229450Y208759D02*
X256550D01*
X229450Y208399D02*
X256550D01*
X229450Y208039D02*
X256550D01*
X229450Y207679D02*
X256550D01*
X229450Y207319D02*
X256550D01*
X229450Y206959D02*
X256550D01*
X229450Y206599D02*
X256550D01*
X229450Y206239D02*
X256550D01*
X229450Y205879D02*
X256550D01*
X229450Y205519D02*
X256550D01*
X229450Y205159D02*
X256550D01*
X229450Y204799D02*
X256550D01*
X229450Y204439D02*
X256550D01*
X229450Y204079D02*
X256550D01*
X229450Y203719D02*
X256550D01*
X229450Y203359D02*
X256550D01*
X229450Y202999D02*
X256550D01*
X229450Y202639D02*
X256550D01*
X229450Y202279D02*
X256550D01*
X229450Y201919D02*
X256550D01*
X229450Y201559D02*
X256550D01*
X229450Y201199D02*
X256550D01*
X229450Y200839D02*
X256550D01*
X229450Y200479D02*
X256550D01*
X229450Y200119D02*
X256550D01*
X229450Y199759D02*
X256550D01*
X229450Y199399D02*
X256550D01*
X229450Y199039D02*
X256550D01*
X229450Y198679D02*
X256550D01*
X229450Y198319D02*
X256550D01*
X229450Y197959D02*
X256550D01*
X229450Y197599D02*
X256550D01*
X229450Y197239D02*
X256550D01*
X229450Y196879D02*
X256550D01*
X229450Y196519D02*
X256550D01*
X229450Y196159D02*
X256550D01*
X229450Y195799D02*
X256550D01*
X229450Y195439D02*
X256550D01*
X229450Y195079D02*
X256550D01*
X229450Y194719D02*
X256550D01*
X229450Y194359D02*
X256550D01*
X229450Y193999D02*
X256550D01*
X229450Y193639D02*
X256550D01*
X229450Y193279D02*
X256550D01*
X229450Y192919D02*
X256550D01*
X229450Y192559D02*
X256550D01*
X229450Y192199D02*
X256550D01*
X229450Y191839D02*
X256550D01*
X229450Y191479D02*
X256550D01*
X229450Y191119D02*
X256550D01*
X229450Y190759D02*
X256550D01*
X229450Y190399D02*
X256550D01*
X229450Y190039D02*
X256550D01*
X229450Y189679D02*
X256550D01*
X229450Y189319D02*
X256550D01*
X229450Y188959D02*
X256550D01*
X229450Y188599D02*
X256550D01*
X229450Y188239D02*
X256550D01*
X229450Y187879D02*
X256550D01*
X229450Y187519D02*
X256550D01*
X229450Y187159D02*
X256550D01*
X229450Y186799D02*
X256550D01*
X229450Y186439D02*
X256550D01*
X229450Y186079D02*
X256550D01*
X229450Y185719D02*
X256550D01*
X229450Y185359D02*
X256550D01*
X229450Y184999D02*
X256550D01*
X229450Y184639D02*
X256550D01*
X229450Y184279D02*
X256550D01*
X229450Y183919D02*
X256550D01*
X229450Y183559D02*
X256550D01*
X229450Y183199D02*
X256550D01*
X229450Y182839D02*
X256550D01*
X229450Y182479D02*
X256550D01*
X229450Y182119D02*
X256550D01*
X229450Y181759D02*
X256550D01*
X229450Y181399D02*
X256550D01*
X229450Y181039D02*
X256550D01*
X229450Y180679D02*
X256550D01*
X229450Y180319D02*
X256550D01*
X229450Y179959D02*
X256550D01*
X229450Y179599D02*
X256550D01*
X229450Y179239D02*
X256550D01*
X229450Y178879D02*
X256550D01*
X229450Y178519D02*
X256550D01*
X229450Y178159D02*
X256550D01*
X229450Y177799D02*
X256550D01*
X229450Y177439D02*
X256550D01*
X229450Y177079D02*
X256550D01*
X229450Y176719D02*
X256550D01*
X229450Y176359D02*
X256550D01*
X229450Y175999D02*
X256550D01*
X229450Y175639D02*
X256550D01*
X229450Y175279D02*
X256550D01*
X229450Y174919D02*
X256550D01*
X229450Y174559D02*
X256550D01*
X229450Y174199D02*
X256550D01*
X229450Y173839D02*
X256550D01*
X229450Y173479D02*
X256550D01*
X229450Y173119D02*
X256550D01*
X229450Y172759D02*
X256550D01*
X229450Y172399D02*
X256550D01*
X229450Y172039D02*
X256550D01*
X229450Y171679D02*
X256550D01*
X229450Y171319D02*
X256550D01*
X229450Y170959D02*
X256550D01*
X229450Y170599D02*
X256550D01*
X229450Y170239D02*
X256550D01*
X229450Y169879D02*
X256550D01*
X229450Y169519D02*
X256550D01*
X229450Y169159D02*
X256550D01*
X229450Y168799D02*
X256550D01*
X229450Y168439D02*
X256550D01*
X229450Y168079D02*
X256550D01*
X229450Y167719D02*
X256550D01*
X229450Y167359D02*
X256550D01*
X229450Y166999D02*
X256550D01*
X229450Y166639D02*
X256550D01*
X229450Y166279D02*
X256550D01*
X229450Y165919D02*
X256550D01*
X229450Y165559D02*
X256550D01*
X229450Y165199D02*
X256550D01*
X229450Y164839D02*
X256550D01*
X229450Y164479D02*
X256550D01*
X229450Y164119D02*
X256550D01*
X229450Y163759D02*
X256550D01*
X229450Y163399D02*
X256550D01*
X229450Y163039D02*
X256550D01*
X229450Y162679D02*
X256550D01*
X229450Y162319D02*
X256550D01*
X229450Y161959D02*
X256550D01*
X229450Y161599D02*
X256550D01*
X229450Y161239D02*
X256550D01*
X229450Y160879D02*
X256550D01*
X229450Y160519D02*
X256550D01*
X100000Y111811D02*
G03X111811Y100000I11811J0D01*
G01X481890*
G03X493701Y111811I-0J11811*
G01Y481890*
G03X481890Y493701I-11811J-0*
G01X111811*
G03X100000Y481890I0J-11811*
G01Y111811*
X183071Y139370D02*
G03X183071I-4331J0D01*
G01X419291D02*
G03X419291I-4330J0D01*
G01X418898Y454331D02*
G03X418898I-3937J0D01*
G01X183071D02*
G03X183071I-4331J0D01*
G54D31*
G01X266100Y123100D03*
X286100D03*
G54D34*
X212056Y417350D03*
X200244D03*
X212056Y426700D03*
X200244D03*
X227744Y417350D03*
X239556D03*
X227744Y426150D03*
X239556D03*
X227744Y434950D03*
X239556D03*
X238744Y445950D03*
X250556D03*
X353406Y422300D03*
X341594D03*
X353406Y431650D03*
X341594D03*
X368544Y422300D03*
X380356D03*
X368544Y431650D03*
X380356D03*
X368544Y441000D03*
X380356D03*
X380644Y452000D03*
X392456D03*
X325356Y203950D03*
X313544D03*
X366606Y224300D03*
X354794D03*
X151006Y171500D03*
X139194D03*
X151006Y162700D03*
X139194D03*
X151006Y153350D03*
X139194D03*
X113344Y162700D03*
X125156D03*
X113344Y153900D03*
X125156D03*
X112244Y220450D03*
X124056D03*
X112244Y211650D03*
X124056D03*
X112244Y202850D03*
X124056D03*
G54D35*
X230900Y454750D03*
Y476774D03*
X372250Y460800D03*
Y482824D03*
X451450Y205050D03*
Y227074D03*
G54D36*
X222650Y323156D03*
Y311344D03*
X344200Y366606D03*
Y354794D03*
X365650Y326456D03*
Y314644D03*
X422850Y196106D03*
Y184294D03*
Y213994D03*
Y225806D03*
X432200Y196106D03*
Y184294D03*
X432750Y213994D03*
Y225806D03*
X441550Y196106D03*
Y184294D03*
X454200Y186206D03*
Y174394D03*
X201750Y361106D03*
Y349294D03*
G54D37*
X152337Y444850D03*
X144463D03*
X137487D03*
X129613D03*
X153987Y410200D03*
X146113D03*
X133463Y215500D03*
X141337D03*
X156187Y145100D03*
X148313D03*
X155463Y109350D03*
X163337D03*
X145737Y346950D03*
X137863D03*
X145737Y353550D03*
X137863D03*
X290300Y379863D03*
Y387737D03*
X340263Y138500D03*
X348137D03*
X232463Y305150D03*
X240337D03*
X232463Y311750D03*
X240337D03*
X233563Y409100D03*
X241437D03*
X344200Y346487D03*
Y338613D03*
X374913Y414050D03*
X382787D03*
X375463Y309000D03*
X383337D03*
X375463Y316150D03*
X383337D03*
X431650Y385363D03*
Y393237D03*
X306800Y194137D03*
Y186263D03*
X313950Y194137D03*
Y186263D03*
X346487Y224300D03*
X338613D03*
X414050Y192487D03*
Y184613D03*
X119713Y359050D03*
X127587D03*
X120900Y342087D03*
Y334213D03*
X114300Y342087D03*
Y334213D03*
X201750Y340987D03*
Y333113D03*
X157200Y314413D03*
Y322287D03*
X150600Y314413D03*
Y322287D03*
X145737Y340350D03*
X137863D03*
X127500Y342087D03*
Y334213D03*
X124663Y319450D03*
X132537D03*
X124663Y312850D03*
X132537D03*
X124663Y306250D03*
X132537D03*
X114763Y171500D03*
X122637D03*
G54D39*
X117050Y288342D03*
Y282358D03*
X179200Y124992D03*
Y119008D03*
X168200Y133308D03*
Y139292D03*
X180300Y318042D03*
Y312058D03*
X185800Y318042D03*
Y312058D03*
Y335642D03*
Y329658D03*
X180300Y335642D03*
Y329658D03*
X185800Y353242D03*
Y347258D03*
X180300Y353242D03*
Y347258D03*
X417350Y436842D03*
Y430858D03*
X410750Y436842D03*
Y430858D03*
X379400Y154758D03*
Y160742D03*
X269400Y429692D03*
Y423708D03*
X276000Y429692D03*
Y423708D03*
X282050Y441242D03*
Y435258D03*
X288650D03*
Y441242D03*
X295250D03*
Y435258D03*
X298550Y385142D03*
Y379158D03*
X301850Y441242D03*
Y435258D03*
X305150Y385142D03*
Y379158D03*
X425600Y448392D03*
Y442408D03*
X432200D03*
Y448392D03*
X438800D03*
Y442408D03*
X439900Y387342D03*
Y381358D03*
X445400Y448392D03*
Y442408D03*
X446500Y387342D03*
Y381358D03*
X351350Y123408D03*
Y129392D03*
X388200Y132692D03*
Y126708D03*
Y139908D03*
Y145892D03*
X376650Y113508D03*
Y119492D03*
X370600Y113508D03*
Y119492D03*
X388750Y113508D03*
Y119492D03*
X382700D03*
Y113508D03*
X394800Y119492D03*
Y113508D03*
X400850D03*
Y119492D03*
X153900Y271908D03*
Y277892D03*
X139050Y288342D03*
Y282358D03*
X133550Y288342D03*
Y282358D03*
X128050Y288342D03*
Y282358D03*
X122550Y288342D03*
Y282358D03*
X144550Y288342D03*
Y282358D03*
X183050Y277892D03*
Y271908D03*
Y255408D03*
Y261392D03*
X176450Y255408D03*
Y261392D03*
X161050Y255958D03*
Y261942D03*
X183050Y294942D03*
Y288958D03*
X176450Y294942D03*
Y288958D03*
Y277892D03*
Y271908D03*
X161050Y294942D03*
Y288958D03*
Y277892D03*
Y271908D03*
X153900Y288958D03*
Y294942D03*
Y255958D03*
Y261942D03*
G54D84*
X472500Y151750D03*
Y162750D03*
Y173750D03*
G54D85*
X170708Y108800D03*
X176692D03*
X417042Y424500D03*
X411058D03*
X391742Y161050D03*
X385758D03*
X391742Y154450D03*
X385758D03*
X275692Y417350D03*
X269708D03*
X288342Y428900D03*
X282358D03*
X295558D03*
X301542D03*
X304842Y391500D03*
X298858D03*
X316942Y408000D03*
X310958D03*
X316942Y414600D03*
X310958D03*
Y421200D03*
X316942D03*
Y427800D03*
X310958D03*
Y434400D03*
X316942D03*
Y441000D03*
X310958D03*
X431892Y436050D03*
X425908D03*
X439108D03*
X445092D03*
X446192Y393700D03*
X440208D03*
X459942Y416250D03*
X453958D03*
X459942Y422850D03*
X453958D03*
Y429450D03*
X459942D03*
Y436050D03*
X453958D03*
Y442650D03*
X459942D03*
Y449250D03*
X453958D03*
X344992Y123100D03*
X339008D03*
X344992Y129700D03*
X339008D03*
X400542Y126400D03*
X394558D03*
X400542Y133000D03*
X394558D03*
Y139600D03*
X400542D03*
Y146200D03*
X394558D03*
X120108Y261700D03*
X126092D03*
X120108Y268300D03*
X126092D03*
X138742Y261700D03*
X132758D03*
X138742Y268300D03*
X132758D03*
G54D86*
X416200Y474700D03*
X405200D03*
X394200D03*
X273750Y465900D03*
X262750D03*
X251750D03*
X172000Y475800D03*
X161000D03*
X150000D03*
X135700D03*
X124700D03*
X113700D03*
G54D88*
X220450Y444850D03*
X198426D03*
X361800Y450350D03*
X339776D03*
X461900Y194050D03*
X483924D03*
G54D93*
X133660Y206700D03*
X141140D03*
X119910Y350800D03*
X127390D03*
X168750Y262140D03*
Y254660D03*
Y295690D03*
Y288210D03*
Y278640D03*
Y271160D03*
G54D96*
X165450Y117050D03*
X169190D03*
X172930D03*
Y127050D03*
X169190D03*
X165450D03*
G54D101*
X155961Y239469D03*
X156087Y211602D03*
G54D153*
X302771Y404138D03*
Y405713D03*
Y407288D03*
Y408862D03*
Y410437D03*
Y412012D03*
Y413587D03*
Y415162D03*
X286629D03*
Y413587D03*
Y412012D03*
Y410437D03*
Y408862D03*
Y407288D03*
Y405713D03*
Y404138D03*
X444671Y411288D03*
Y412863D03*
Y414438D03*
Y416012D03*
Y417587D03*
Y419162D03*
Y420737D03*
Y422312D03*
X428529D03*
Y420737D03*
Y419162D03*
Y417587D03*
Y416012D03*
Y414438D03*
Y412863D03*
Y411288D03*
X377571Y132989D03*
Y134563D03*
Y136138D03*
Y137713D03*
Y139287D03*
Y140862D03*
Y142436D03*
Y144011D03*
X361429D03*
Y142436D03*
Y140862D03*
Y139287D03*
Y137713D03*
Y136138D03*
Y134563D03*
Y132989D03*
G54D154*
X300211Y417721D03*
X298637D03*
X297062D03*
X295487D03*
X293913D03*
X292338D03*
X290764D03*
X289189D03*
Y401579D03*
X290764D03*
X292338D03*
X293913D03*
X295487D03*
X297062D03*
X298637D03*
X300211D03*
X442111Y424871D03*
X440537D03*
X438962D03*
X437387D03*
X435813D03*
X434238D03*
X432664D03*
X431089D03*
Y408729D03*
X432664D03*
X434238D03*
X435813D03*
X437387D03*
X438962D03*
X440537D03*
X442111D03*
X363988Y130429D03*
X365563D03*
X367138D03*
X368712D03*
X370287D03*
X371862D03*
X373437D03*
X375012D03*
Y146571D03*
X373437D03*
X371862D03*
X370287D03*
X368712D03*
X367138D03*
X365563D03*
X363988D03*
G54D155*
X294700Y409650D03*
X436600Y416800D03*
X369500Y138500D03*
G54D156*
X156650Y116957D03*
Y130343D03*
X278200Y377107D03*
Y390493D03*
X423400Y380407D03*
Y393793D03*
G54D157*
X257501Y338350D03*
Y343350D03*
Y348350D03*
Y353350D03*
X233999Y353330D03*
Y348370D03*
Y343370D03*
Y338370D03*
X400501Y344400D03*
Y349400D03*
Y354400D03*
Y359400D03*
X376999Y359380D03*
Y354420D03*
Y349420D03*
Y344420D03*
X358701Y200850D03*
Y205850D03*
Y210850D03*
Y215850D03*
X335199Y215830D03*
Y210870D03*
Y205870D03*
Y200870D03*
G54D158*
X243014Y345850D03*
X386014Y351900D03*
X344214Y208350D03*
G54D159*
X333657Y146750D03*
X347043D03*
G54D160*
X214412Y267750D03*
X203388D03*
X214412Y280950D03*
X203388D03*
X214412Y294150D03*
X203388D03*
X230888Y267750D03*
X241912D03*
X230888Y280950D03*
X241912D03*
X230888Y294150D03*
X241912D03*
X356862Y272150D03*
X345838D03*
X356862Y285350D03*
X345838D03*
X356862Y298550D03*
X345838D03*
X373888Y272150D03*
X384912D03*
X373888Y285350D03*
X384912D03*
X373888Y298550D03*
X384912D03*
G54D161*
X373100Y207250D03*
X409100D03*
G54D162*
X225750Y354851D03*
X220750D03*
X215750D03*
X210750D03*
X210770Y331349D03*
X215730D03*
X220730D03*
X225730D03*
X368750Y359251D03*
X363750D03*
X358750D03*
X353750D03*
X353770Y335749D03*
X358730D03*
X363730D03*
X368730D03*
X351000Y169099D03*
X356000D03*
X361000D03*
X366000D03*
X365980Y192601D03*
X361020D03*
X356020D03*
X351020D03*
G54D163*
X218250Y340364D03*
X361250Y344764D03*
X358500Y183586D03*
G54D164*
X219350Y368150D03*
Y404150D03*
X360700Y373100D03*
Y409100D03*
G54D165*
X268850Y195712D03*
Y184688D03*
Y213288D03*
Y224312D03*
X282600Y195712D03*
Y184688D03*
Y213288D03*
Y224312D03*
X296350Y195712D03*
Y184688D03*
Y213288D03*
Y224312D03*
G54D166*
X238050Y143248D03*
G54D167*
Y111752D03*
G54D168*
X225984Y155118D03*
X225748Y190750D03*
G54D169*
X194488Y155118D03*
X194252Y190750D03*
G54D170*
X136300Y113350D03*
Y138350D03*
G54D171*
X152700Y437487D03*
X147700D03*
X142700D03*
X137700D03*
X132700D03*
X127700D03*
X122700D03*
X117700D03*
Y417014D03*
X122700D03*
X127700D03*
X132700D03*
X137700D03*
X142700D03*
X147700D03*
X152700D03*
G54D172*
X112240Y180330D03*
X124060D03*
G54D173*
X118150Y181313D03*
G54D174*
Y190170D03*
G54D175*
X106050Y300750D03*
G54D176*
Y290750D03*
Y280750D03*
Y270750D03*
G54D195*
X153351Y382150D03*
X115949D03*
G74*
X0Y0D02*
M02*
